<svg width="531" height="614" viewBox="0 0 531 614" fill="none" xmlns="http://www.w3.org/2000/svg">
<path d="M257.723 613.092C400.06 613.092 515.446 606.074 515.446 597.416C515.446 588.758 400.06 581.74 257.723 581.74C115.387 581.74 0 588.758 0 597.416C0 606.074 115.387 613.092 257.723 613.092Z" fill="#CED3E6"/>
<path d="M241.655 160.867L267.687 256.063L258.399 245.369C261.833 247.202 265.819 248.607 270.214 249.586C274.609 250.582 279.413 251.152 284.431 251.401C289.449 251.668 294.68 251.615 300.036 251.401C305.392 251.17 310.855 250.778 316.406 250.298H316.442C324.627 249.604 331.834 255.671 332.527 263.857C333.186 271.668 327.652 278.572 320.054 279.817C314.325 280.725 308.506 281.597 302.545 282.291C296.567 282.985 290.446 283.501 284.111 283.643C277.776 283.785 271.211 283.536 264.413 282.558C257.634 281.579 250.606 279.8 243.737 276.846C239.342 274.942 236.211 271.348 234.787 267.131L234.449 266.134L203.221 172.522C199.716 162.006 205.392 150.618 215.926 147.112C226.442 143.607 237.83 149.283 241.335 159.817C241.442 160.137 241.566 160.529 241.655 160.867Z" fill="#EA9B7A"/>
<path d="M251.673 505.957C251.281 505.957 250.89 505.886 250.498 505.743L114.128 456.58C112.349 455.939 111.423 453.964 112.064 452.184C112.705 450.405 114.68 449.462 116.459 450.12L252.829 499.284C254.609 499.925 255.552 501.9 254.894 503.679C254.413 505.085 253.079 505.957 251.673 505.957Z" fill="#C77E2E"/>
<path d="M109.627 505.957C108.221 505.957 106.904 505.085 106.388 503.679C105.748 501.9 106.673 499.925 108.452 499.266L246.442 449.284C248.221 448.643 250.196 449.569 250.855 451.348C251.495 453.127 250.57 455.102 248.791 455.761L110.801 505.743C110.41 505.886 110.018 505.957 109.627 505.957Z" fill="#C77E2E"/>
<path d="M263.808 593.822C260.908 593.822 258.381 591.669 257.972 588.715L233.345 404.782H130.267L106.014 588.715C105.587 591.936 102.633 594.213 99.4127 593.786C96.1921 593.359 93.9145 590.405 94.3415 587.185L119.27 398.163C119.662 395.227 122.153 393.038 125.107 393.038H238.506C241.459 393.038 243.95 395.227 244.342 398.145L269.662 587.167C270.089 590.388 267.83 593.359 264.609 593.786C264.324 593.804 264.075 593.822 263.808 593.822Z" fill="#FAAF3A"/>
<path d="M205.659 398.91H132.011C108.683 398.91 83.7011 386.134 80.1067 363.092C75.3202 332.255 74.1281 302.415 75.4626 275.013C76.9751 244.034 91.7794 215.209 116.121 195.991C116.121 195.991 130.836 260.102 112.331 348.59C119.413 382.184 205.659 398.91 205.659 398.91Z" fill="#FAAF3A"/>
<path d="M190.303 22.9127C190.303 22.9127 181.548 1.80945 158.363 5.79523C142.171 8.57104 135.267 28.749 136.21 59.9235C137.598 105.279 122.26 132.611 122.26 132.611L142.616 137.237C142.633 137.219 194.466 59.4609 190.303 22.9127Z" fill="#39393B"/>
<path d="M376.032 515.013H343.132C343.132 515.013 335.516 478.501 332.972 458.038C330.41 437.558 329.093 389.034 329.093 389.034C329.093 389.034 302.883 397.558 248.007 394.337C126.423 387.237 172.527 297.913 172.527 297.913C176.637 303.589 201.797 299.657 219.004 302.362C271.797 307.433 317.563 328.145 345.036 339.995C351.655 342.842 357.527 345.867 362.687 349.052C369.306 353.127 373.452 365.529 375.961 381.81C383.452 430.761 376.032 515.013 376.032 515.013Z" fill="#39393B"/>
<path d="M347.225 497.416C346.673 497.416 346.193 497.024 346.068 496.473C341.317 472.985 339.734 443.75 338.452 420.262C337.385 400.778 336.388 382.38 333.879 380.173C331.851 378.376 323.435 379.782 312.794 381.543C291.602 385.067 259.573 390.369 224.271 382.166C205.036 377.682 190.89 368.341 182.242 354.39C167.313 330.333 174.128 300.493 174.199 300.191C174.342 299.55 174.982 299.159 175.623 299.319C176.263 299.461 176.655 300.102 176.495 300.742C176.423 301.027 169.858 329.942 184.27 353.163C192.58 366.561 206.228 375.547 224.822 379.871C259.68 387.985 291.424 382.718 312.438 379.23C325.018 377.148 332.616 375.885 335.481 378.412C338.577 381.152 339.449 394.604 340.837 420.138C342.118 443.554 343.702 472.682 348.417 496.01C348.541 496.651 348.132 497.273 347.492 497.398C347.367 497.416 347.296 497.416 347.225 497.416Z" fill="#585859"/>
<path d="M376.655 498.038H376.637L340.054 497.255C339.395 497.237 338.879 496.704 338.897 496.045C338.915 495.387 339.449 494.871 340.107 494.889L376.691 495.672C377.349 495.689 377.865 496.223 377.847 496.882C377.829 497.522 377.296 498.038 376.655 498.038Z" fill="#585859"/>
<path d="M375.125 557.149H351.904L347.438 529.925L344.982 515.014H373.826L374.289 529.925L375.125 557.149Z" fill="#EA9B7A"/>
<path d="M375.125 557.149H351.904L348.577 536.882L347.438 529.925H374.289L374.52 537.131L375.125 557.149Z" fill="#FAAF3A"/>
<path d="M374.52 537.131L348.577 536.882L347.438 529.925H374.289L374.52 537.131Z" fill="#C77E2E"/>
<path d="M432.42 593.822H344.609C343.95 592.629 343.595 590.957 343.452 588.946C342.901 581.508 345.267 569.658 346.424 562.184C346.566 561.313 346.691 560.494 346.78 559.764C346.94 558.519 347.047 557.469 347.047 556.704C347.047 550.601 352.438 551.651 352.438 551.651C361.317 560.369 371.388 547.291 377.26 551.579C377.26 551.579 377.491 551.757 378.043 552.167C378.541 552.558 379.289 553.163 380.321 554.035C381.815 555.28 383.915 557.095 386.762 559.658C393.737 565.939 405.588 570.067 415.677 574.284C416.958 574.818 418.15 575.37 419.271 575.903C420.107 576.313 420.908 576.722 421.655 577.113C429.912 581.562 432.527 585.832 433.132 588.928C433.719 591.918 432.42 593.822 432.42 593.822Z" fill="#0875F7"/>
<path d="M421.673 577.131C419.413 578.928 414.378 582.54 410.338 582.54C410.16 582.54 409.983 582.54 409.805 582.522C406.958 582.291 396.495 577.149 387.972 572.469C383.096 569.782 378.63 567.149 375.427 565.031C370.178 561.562 369.253 560.245 369.057 559.32C368.292 555.85 374.022 553.448 378.043 552.184C378.541 552.576 379.289 553.181 380.321 554.053C375.338 555.405 371.228 557.54 371.424 558.768C371.922 559.8 377.118 563.75 389.538 570.565C399.022 575.761 408.007 579.942 410 580.12C412.705 580.334 416.673 577.878 419.271 575.939C420.125 576.33 420.926 576.74 421.673 577.131Z" fill="#084FC7"/>
<path d="M432.42 593.821H344.609C343.95 592.629 343.594 590.957 343.452 588.946H433.15C433.719 591.917 432.42 593.821 432.42 593.821Z" fill="#084FC7"/>
<path d="M353.559 593.821H350.943C353.541 590.85 355.979 586.277 355.658 579.764C355.231 571.081 350.036 565.245 346.406 562.184C346.548 561.312 346.673 560.494 346.762 559.764C350.658 562.736 357.224 569.266 357.74 579.658C358.078 585.885 356.032 590.53 353.559 593.821Z" fill="#084FC7"/>
<path d="M385.285 564.853C384.644 564.853 384.039 564.409 383.879 563.75C383.683 562.967 384.164 562.184 384.929 561.989L390.41 560.619C391.192 560.423 391.975 560.903 392.171 561.668C392.367 562.451 391.886 563.234 391.121 563.43L385.641 564.8C385.516 564.836 385.392 564.853 385.285 564.853Z" fill="white"/>
<path d="M379.84 560.298C379.2 560.298 378.595 559.854 378.434 559.195C378.239 558.412 378.719 557.629 379.484 557.434L384.965 556.064C385.748 555.868 386.531 556.348 386.726 557.113C386.922 557.896 386.442 558.679 385.676 558.857L380.196 560.227C380.071 560.281 379.947 560.298 379.84 560.298Z" fill="white"/>
<path d="M390.765 568.039C390.125 568.039 389.52 567.594 389.36 566.935C389.164 566.152 389.644 565.37 390.409 565.192L395.89 563.822C396.673 563.626 397.456 564.106 397.651 564.871C397.847 565.654 397.367 566.437 396.602 566.633L391.121 568.003C390.997 568.039 390.89 568.039 390.765 568.039Z" fill="white"/>
<path d="M396.246 571.117C395.587 571.117 395 570.672 394.84 570.014C394.644 569.231 395.125 568.448 395.89 568.252L401.37 566.882C402.153 566.686 402.936 567.167 403.132 567.932C403.328 568.715 402.847 569.498 402.082 569.676L396.602 571.046C396.495 571.099 396.37 571.117 396.246 571.117Z" fill="white"/>
<path d="M402.242 573.946C401.602 573.946 400.997 573.501 400.837 572.843C400.641 572.06 401.121 571.277 401.887 571.099L407.367 569.729C408.15 569.533 408.933 570.014 409.129 570.779C409.324 571.562 408.844 572.345 408.079 572.54L402.598 573.91C402.474 573.928 402.349 573.946 402.242 573.946Z" fill="white"/>
<path d="M408.719 576.366C408.079 576.366 407.474 575.921 407.314 575.263C407.118 574.48 407.598 573.697 408.364 573.501L413.844 572.131C414.627 571.935 415.41 572.416 415.606 573.181C415.801 573.964 415.321 574.747 414.556 574.925L409.075 576.295C408.951 576.348 408.844 576.366 408.719 576.366Z" fill="white"/>
<path d="M111.637 269.586C111.637 269.586 110.605 276.685 120.107 278.678L219.182 281.988C219.182 281.988 225.872 278.625 224.662 270.333C224.662 270.315 182.829 246.81 111.637 269.586Z" fill="#084FC7"/>
<path d="M220.534 302.344C169.11 330.636 112.954 307.86 112.954 307.86C115.694 300.369 117.74 291.917 119.217 284.23C120.925 275.28 121.886 267.379 122.331 263.233C144.199 262.041 197.829 259.746 218.844 264.728L219.004 273.145L220.534 302.344Z" fill="#EA9B7A"/>
<path d="M182.544 288.785C182.171 291.437 180.961 293.465 179.875 293.305C178.772 293.145 178.203 290.867 178.576 288.216C178.95 285.565 180.16 283.536 181.245 283.696C182.349 283.857 182.918 286.134 182.544 288.785Z" fill="#D96C63"/>
<path d="M218.986 273.145C197.082 271.81 154.004 271.348 119.199 284.212C120.907 275.262 121.868 267.362 122.313 263.216C144.181 262.024 197.812 259.728 218.826 264.711L218.986 273.145Z" fill="#D96C63"/>
<path d="M243.417 232.45C243.203 233.091 242.954 233.678 242.669 234.23C242.563 234.443 242.456 234.657 242.349 234.853C239.591 239.959 235.338 244.39 231.762 247.539C231.015 248.198 230.303 248.785 229.644 249.319C228.328 250.386 227.207 251.223 226.442 251.774C225.73 252.273 225.321 252.539 225.321 252.539C225.321 252.593 225.321 252.628 225.303 252.7C225.267 253.073 225.232 253.483 225.196 253.91C225.071 255.529 224.965 257.451 224.894 259.657C224.822 261.419 224.769 263.358 224.733 265.458C224.716 267.006 224.68 268.625 224.662 270.298C195.605 257.308 135.747 265.511 111.637 269.568C112.082 267.486 112.473 265.44 112.847 263.447C114.555 254.248 115.516 245.974 115.89 238.554C116.459 227.522 115.498 210.938 113.149 193.803C113.007 192.682 112.847 191.578 112.687 190.475C112.58 189.746 112.473 189.034 112.349 188.304C111.53 182.931 110.569 177.539 109.484 172.308C104.733 149.496 108.06 125.564 131.192 122.735C132.865 122.521 134.52 122.343 136.139 122.165C147.029 121.009 155.997 120.6 158.488 120.511C158.95 120.493 159.182 120.493 159.182 120.493L203.879 133.482L208.132 134.71C210.57 135.493 212.829 136.258 214.929 137.005C215.819 137.326 216.691 137.646 217.509 137.948C219.68 138.767 221.637 139.55 223.434 140.351C227.011 141.934 229.84 143.482 232.082 145.066C241.886 152.023 240.374 159.888 240.125 175.422C240.125 175.493 240.125 175.564 240.125 175.635C240.125 175.831 240.125 176.027 240.125 176.24C240.125 176.329 240.125 176.418 240.125 176.507C240.125 177.148 240.125 177.771 240.125 178.411C240.143 180.422 240.214 182.415 240.338 184.408C240.499 187.344 240.765 190.262 241.086 193.109C241.21 194.248 241.335 195.386 241.477 196.525C241.602 197.593 241.744 198.643 241.886 199.692C243.63 213.287 245.854 225.208 243.417 232.45Z" fill="#0875F7"/>
<path d="M240.107 175.635C240.107 175.831 240.107 176.027 240.107 176.24C240.107 176.329 240.107 176.418 240.107 176.507C240.107 177.148 240.107 177.771 240.107 178.411L230.712 184.301C230.427 184.479 230.107 184.532 229.787 184.479C229.431 184.425 229.111 184.212 228.897 183.892C228.506 183.269 228.701 182.468 229.306 182.077L239.271 175.831C239.52 175.671 239.822 175.617 240.107 175.635Z" fill="#084FC7"/>
<path d="M178.185 225.956C177.829 225.956 177.473 225.813 177.206 225.529C176.726 224.995 176.762 224.159 177.295 223.678L186.032 215.813C186.566 215.333 187.402 215.368 187.883 215.902C188.363 216.436 188.327 217.272 187.794 217.753L179.057 225.618C178.808 225.831 178.488 225.956 178.185 225.956Z" fill="#084FC7"/>
<path d="M241.851 199.692L235.872 205.084C235.623 205.315 235.303 205.422 235 205.422C234.644 205.422 234.288 205.279 234.021 204.995C233.541 204.461 233.577 203.625 234.11 203.144L241.441 196.543C241.566 197.593 241.708 198.642 241.851 199.692Z" fill="#084FC7"/>
<path d="M160.463 194.318C160.267 194.016 160.178 193.642 160.267 193.269C160.427 192.557 161.139 192.13 161.851 192.29L173.292 194.995C174.004 195.155 174.431 195.867 174.271 196.578C174.11 197.29 173.399 197.717 172.687 197.557L161.246 194.852C160.908 194.781 160.641 194.585 160.463 194.318Z" fill="#084FC7"/>
<path d="M119.626 216.774C119.27 216.774 118.914 216.632 118.647 216.347C118.167 215.813 118.203 214.977 118.736 214.497L127.473 206.632C128.007 206.152 128.843 206.187 129.324 206.721C129.804 207.255 129.768 208.091 129.235 208.571L120.498 216.436C120.249 216.668 119.946 216.774 119.626 216.774Z" fill="#084FC7"/>
<path d="M221.335 214.906C221.442 214.568 221.708 214.265 222.047 214.123C222.705 213.838 223.488 214.141 223.773 214.799L228.47 225.582C228.755 226.24 228.452 227.023 227.794 227.308C227.136 227.593 226.353 227.29 226.068 226.632L221.37 215.849C221.246 215.529 221.246 215.191 221.335 214.906Z" fill="#084FC7"/>
<path d="M243.417 232.45C243.203 233.091 242.954 233.678 242.669 234.23C242.563 234.443 242.456 234.657 242.349 234.853L235.961 232.842C235.641 232.735 235.392 232.522 235.232 232.255C235.054 231.952 234.983 231.561 235.107 231.205C235.321 230.511 236.068 230.137 236.744 230.351L243.417 232.45Z" fill="#084FC7"/>
<path d="M207.331 233.393C207.687 233.358 208.06 233.465 208.345 233.732C208.879 234.212 208.914 235.048 208.434 235.582L200.534 244.283C200.053 244.817 199.217 244.853 198.683 244.372C198.149 243.892 198.114 243.055 198.594 242.522L206.495 233.821C206.726 233.571 207.028 233.429 207.331 233.393Z" fill="#084FC7"/>
<path d="M202.687 213.322C202.331 213.269 202.011 213.055 201.797 212.735C201.406 212.13 201.601 211.312 202.206 210.92L212.171 204.674C212.776 204.283 213.594 204.479 213.986 205.084C214.377 205.689 214.182 206.507 213.577 206.899L203.612 213.144C203.327 213.322 202.989 213.376 202.687 213.322Z" fill="#084FC7"/>
<path d="M209.039 175.457C209.271 175.724 209.413 176.08 209.36 176.472C209.288 177.183 208.63 177.717 207.918 177.628L196.228 176.347C195.516 176.276 194.982 175.618 195.071 174.906C195.142 174.194 195.801 173.66 196.513 173.749L208.203 175.03C208.523 175.066 208.826 175.226 209.039 175.457Z" fill="#084FC7"/>
<path d="M192.046 150.101C192.135 149.746 192.367 149.443 192.705 149.265C193.345 148.927 194.146 149.158 194.484 149.799L200.054 160.155C200.392 160.795 200.16 161.596 199.52 161.934C198.879 162.272 198.078 162.041 197.74 161.4L192.171 151.045C191.993 150.742 191.957 150.404 192.046 150.101Z" fill="#084FC7"/>
<path d="M231.78 247.557C231.032 248.216 230.321 248.803 229.662 249.337L228.132 245.422C228.007 245.102 228.007 244.781 228.132 244.479C228.257 244.141 228.523 243.856 228.879 243.714C229.555 243.447 230.321 243.785 230.588 244.461L231.78 247.557Z" fill="#084FC7"/>
<path d="M124.306 227.628C124.128 227.308 124.092 226.935 124.235 226.561C124.484 225.885 125.231 225.529 125.907 225.778L136.975 229.764C137.651 230.013 138.007 230.76 137.758 231.436C137.509 232.112 136.762 232.468 136.085 232.219L125.018 228.233C124.697 228.144 124.448 227.913 124.306 227.628Z" fill="#084FC7"/>
<path d="M129.715 242.593C130.071 242.593 130.427 242.753 130.694 243.038C131.175 243.571 131.121 244.408 130.587 244.888L121.779 252.682C121.246 253.162 120.409 253.109 119.929 252.575C119.449 252.041 119.502 251.205 120.036 250.724L128.844 242.931C129.093 242.7 129.413 242.593 129.715 242.593Z" fill="#084FC7"/>
<path d="M145.676 254.959C145.89 255.244 146.014 255.618 145.943 255.991C145.819 256.703 145.142 257.184 144.431 257.059L132.847 255.084C132.135 254.959 131.655 254.283 131.779 253.571C131.904 252.86 132.58 252.379 133.292 252.504L144.876 254.479C145.196 254.532 145.481 254.71 145.676 254.959Z" fill="#084FC7"/>
<path d="M155.374 144.888C155.285 144.55 155.32 144.158 155.534 143.838C155.925 143.233 156.744 143.055 157.349 143.447L167.224 149.817C167.829 150.208 168.007 151.027 167.616 151.632C167.224 152.237 166.406 152.415 165.801 152.023L155.925 145.653C155.64 145.457 155.445 145.19 155.374 144.888Z" fill="#084FC7"/>
<path d="M222.776 152.397C223.096 152.219 223.47 152.183 223.843 152.308C224.52 152.557 224.876 153.304 224.644 153.98L220.712 165.066C220.463 165.742 219.715 166.098 219.039 165.867C218.363 165.617 218.007 164.87 218.239 164.194L222.171 153.109C222.278 152.806 222.509 152.557 222.776 152.397Z" fill="#084FC7"/>
<path d="M217.491 137.966L211.424 145.76C210.979 146.329 210.16 146.436 209.591 145.991C209.022 145.546 208.915 144.728 209.36 144.158L214.911 137.041C215.801 137.326 216.673 137.646 217.491 137.966Z" fill="#084FC7"/>
<path d="M158.114 245.493C158.239 245.867 158.559 246.134 158.915 246.205C159.093 246.24 159.288 246.241 159.466 246.169C159.662 246.098 178.683 239.942 198.684 248.233C208.844 252.45 217.883 254.052 225.196 253.91C225.232 253.483 225.267 253.091 225.303 252.7C225.303 252.646 225.321 252.593 225.321 252.557C225.321 252.557 225.73 252.29 226.442 251.792C219.253 252.148 210.054 250.618 199.502 246.258C178.737 237.646 159.591 243.874 158.79 244.141C158.239 244.337 157.936 244.942 158.114 245.493Z" fill="#084FC7"/>
<path d="M203.861 133.482C201.352 137.361 196.192 141.756 185.729 141.009C171.299 139.959 161.797 126.187 158.487 120.529C158.932 120.511 159.181 120.511 159.181 120.511L203.861 133.482Z" fill="#084FC7"/>
<path d="M188.523 159.034C188.95 159.123 189.377 159.176 189.804 159.212C193.79 159.532 197.029 158.376 199.413 155.778C206.353 148.198 203.506 130.902 203.381 130.173C203.274 129.585 202.723 129.194 202.153 129.301C201.566 129.408 201.175 129.959 201.281 130.529C201.317 130.706 204.075 147.521 197.847 154.336C195.908 156.454 193.328 157.361 190 157.094C176.014 155.973 160.338 120.44 160.178 120.084C159.947 119.55 159.306 119.301 158.772 119.532C158.239 119.763 157.989 120.404 158.221 120.938C158.826 122.415 173.701 156.027 188.523 159.034Z" fill="white"/>
<path d="M232.082 145.066C231.157 155.315 233.683 172.237 240.303 184.408C240.142 181.792 240.071 179.141 240.107 176.507C240.107 176.418 240.107 176.329 240.107 176.24C240.107 175.973 240.125 175.707 240.125 175.44C240.356 159.906 241.868 152.023 232.082 145.066Z" fill="#EA9B7A"/>
<path d="M149.857 163.109C144.733 182.895 125.978 198.767 113.167 193.82C113.007 192.717 112.864 191.596 112.704 190.493C112.598 189.763 112.491 189.052 112.366 188.322C111.548 182.949 110.587 177.557 109.501 172.326C104.751 149.514 108.096 125.582 131.21 122.753C132.882 122.539 134.537 122.361 136.156 122.183C147.704 127.112 155.765 140.333 149.857 163.109Z" fill="#EA9B7A"/>
<path d="M152.491 148.02L182.527 257.877L171.815 245.529C175.783 247.628 180.374 249.265 185.463 250.404C190.534 251.543 196.085 252.201 201.868 252.504C207.669 252.806 213.701 252.753 219.876 252.504C226.05 252.255 232.367 251.792 238.772 251.24H238.808C248.256 250.44 256.566 257.433 257.367 266.881C258.132 275.885 251.744 283.874 242.954 285.297C236.353 286.347 229.627 287.344 222.74 288.144C215.854 288.945 208.79 289.532 201.459 289.71C194.146 289.87 186.566 289.604 178.737 288.465C170.925 287.326 162.811 285.297 154.875 281.863C149.804 279.675 146.192 275.511 144.555 270.653L144.181 269.515L108.132 161.472C104.075 149.336 110.64 136.205 122.776 132.148C134.911 128.091 148.043 134.657 152.1 146.792C152.26 147.183 152.384 147.646 152.491 148.02Z" fill="#EA9B7A"/>
<path d="M165.943 254.372C165.64 254.372 165.338 254.212 165.178 253.927C164.929 253.5 165.089 252.967 165.516 252.717C165.8 252.557 172.366 248.856 179.235 248.322C179.733 248.287 180.16 248.643 180.196 249.141C180.231 249.639 179.875 250.066 179.377 250.102C172.918 250.6 166.459 254.23 166.405 254.265C166.245 254.337 166.085 254.372 165.943 254.372Z" fill="#D96C63"/>
<path d="M176.868 250.404C176.708 250.404 176.548 250.369 176.406 250.28C172.26 247.771 167.242 247.379 167.189 247.379C166.69 247.344 166.335 246.917 166.37 246.436C166.406 245.938 166.815 245.582 167.313 245.618C167.527 245.635 172.811 246.027 177.313 248.767C177.74 249.016 177.865 249.568 177.616 249.995C177.456 250.244 177.153 250.404 176.868 250.404Z" fill="#D96C63"/>
<path d="M203.648 192.504C216.94 195.191 222.758 181.454 222.812 181.312C223.043 180.76 222.776 180.137 222.224 179.924C221.673 179.692 221.05 179.959 220.836 180.511C220.623 181.027 215.605 192.753 204.075 190.422C191.957 187.966 169.359 164.141 169.146 163.892C168.737 163.465 168.061 163.447 167.633 163.856C167.206 164.265 167.189 164.941 167.598 165.369C168.523 166.347 190.89 189.906 203.648 192.504Z" fill="#084FC7"/>
<path d="M182.758 105.973C182.758 105.973 161.424 101.952 155.409 80.4217C149.68 59.9234 154.093 49.2828 160.054 38.2152C164.538 29.8699 178.772 18.6066 198.719 22.6457C218.861 26.7205 233.933 37.0764 236.157 53.6422C240.303 84.6388 215.303 122.45 182.758 105.973Z" fill="#39393B"/>
<path d="M156.406 83.749C156.014 83.749 155.64 83.5532 155.445 83.1796C155.053 82.5034 146.085 66.3646 153.541 45.119C158.203 31.8449 167.367 25.9196 174.253 23.2684C181.69 20.4036 187.936 20.6883 188.203 20.6883C188.808 20.7239 189.288 21.2399 189.253 21.8627C189.217 22.4677 188.719 22.9481 188.096 22.9125C188.043 22.9125 181.975 22.6634 174.964 25.368C165.641 28.9801 159.146 35.8663 155.64 45.8485C148.541 66.0977 157.295 81.9162 157.384 82.0764C157.687 82.6102 157.509 83.2863 156.975 83.5888C156.779 83.6956 156.601 83.749 156.406 83.749Z" fill="#FAAF3A"/>
<path d="M224.129 84.0873C224.129 84.0873 231.068 78.6068 232.901 85.8666C234.734 93.1264 229.573 106.027 221.495 102.112L224.129 84.0873Z" fill="#D96C63"/>
<path d="M217.349 97.4325C213.897 98.5713 210.855 101.632 210.072 105.422C208.933 111.08 212.598 116.596 218.239 117.753C223.897 118.892 229.413 115.226 230.57 109.586C231.424 105.351 229.591 101.187 226.228 98.8916C225.107 98.1087 223.808 97.5571 222.385 97.2724C222.349 97.2724 222.314 97.2546 222.278 97.2546C222.082 97.9663 222.154 98.5357 222.563 98.9806C223.702 99.2831 224.734 99.7991 225.641 100.475C228.257 102.468 229.662 105.831 228.969 109.265C228.008 114.034 223.328 117.13 218.559 116.169C213.791 115.208 210.694 110.529 211.655 105.76C212.367 102.29 214.929 99.8346 218.15 99.0517L217.349 97.4325Z" fill="#FAAF3A"/>
<path d="M203.096 115.208L200.196 133.393C200.196 133.393 186.584 147.29 161.726 122.361C168.399 117.397 170.943 105.867 170.16 98.429C170.16 98.429 172.118 99.6034 175.142 102.344C175.73 102.877 176.495 103.287 177.224 103.803C183.79 108.251 193.861 114.07 203.096 115.208Z" fill="#EA9B7A"/>
<path d="M203.096 115.208L201.726 123.82C194.271 120.493 181.086 113.393 175.143 102.326C175.783 102.788 176.495 103.269 177.224 103.785C183.79 108.251 193.862 114.069 203.096 115.208Z" fill="#39393B"/>
<path d="M230.854 79.7101C230.463 81.6319 230.107 83.4646 229.733 85.2084C229.342 87.0945 228.968 88.8739 228.595 90.5465C225.837 103.127 223.577 109.87 219.911 112.397C201.353 125.155 171.157 99.3187 170.178 98.4824C170.16 98.4646 170.16 98.4646 170.16 98.4646C170.143 96.9878 170.143 95.5109 170.16 94.0696C170.392 81.8276 172.473 70.8311 175.783 60.6709C177.438 49.5677 186.05 40.6709 197.135 38.9983C208.63 37.2723 217.278 43.9271 222.687 46.8631C230.854 51.3115 234.057 63.6781 230.854 79.7101Z" fill="#EA9B7A"/>
<path d="M176.423 49.2473C176.423 49.2473 189.413 24.265 215.32 31.2401C241.228 38.2153 242.598 50.2438 243.061 56.258C243.523 62.2723 229.644 51.6139 229.644 51.6139C229.644 51.6139 229.164 63.6424 224.537 59.9413C218.861 55.3861 212.527 45.5818 212.527 45.5818C212.527 45.5818 197.1 60.742 182.438 56.6495C174.092 54.3363 176.423 49.2473 176.423 49.2473Z" fill="#39393B"/>
<path d="M208.239 104.212C204.876 104.212 202.562 101.881 202.456 101.756C202.1 101.383 202.1 100.796 202.473 100.44C202.847 100.084 203.416 100.084 203.772 100.457C203.897 100.582 206.566 103.233 210.089 102.023C210.57 101.863 211.103 102.112 211.263 102.593C211.424 103.073 211.175 103.607 210.694 103.767C209.84 104.087 209.021 104.212 208.239 104.212Z" fill="#D96C63"/>
<path d="M200.498 89.0874C200.498 89.0874 212.989 92.7885 219.466 92.7885C219.466 92.7885 216.228 102.041 206.975 98.8027C199.769 96.276 200.498 89.0874 200.498 89.0874Z" fill="white"/>
<path d="M223.683 63.0731C223.683 63.0731 220.445 62.735 220.961 65.8845C221.495 69.0339 228.523 67.1122 232.011 73.4112C232.011 73.4112 235.374 66.8097 223.683 63.0731Z" fill="#39393B"/>
<path d="M209.253 60.1547C209.253 60.1547 212.367 61.1156 210.659 63.8024C208.951 66.4893 203.221 61.9875 197.563 66.4359C197.563 66.4359 197.047 59.0515 209.253 60.1547Z" fill="#39393B"/>
<path d="M203.63 82.6994C203.328 84.1762 200.036 84.7634 196.246 83.9983C192.474 83.2332 189.662 81.4182 189.965 79.9236C190.267 78.4467 193.559 77.8595 197.349 78.6246C201.121 79.3898 203.933 81.2225 203.63 82.6994Z" fill="#D96C63"/>
<path d="M240.498 83.6781L230.409 81.9521C230.356 82.3791 230.249 82.8062 230.16 83.2154C230.142 83.2866 230.124 83.3578 230.089 83.429L240.249 85.1549C240.658 85.2261 241.05 84.9414 241.121 84.5322C241.192 84.1407 240.925 83.7492 240.498 83.6781Z" fill="white"/>
<path d="M213.559 75.0658C213.559 74.5498 213.541 74.0338 213.47 73.5355C213.132 70.7953 211.922 68.2686 210.071 66.3113C208.363 64.5142 206.139 63.1974 203.559 62.628C203.523 62.6102 203.47 62.6102 203.434 62.5924C197.527 61.3825 191.708 64.4786 189.306 69.7455C189.092 70.2081 188.914 70.6707 188.754 71.1512C188.612 71.5782 188.505 72.0231 188.398 72.4679C187.722 75.7775 188.381 79.0515 190.035 81.7206C190.605 82.6281 191.281 83.4644 192.046 84.1939C193.719 85.8131 195.836 86.9875 198.274 87.4857C202.384 88.3398 206.423 87.0943 209.324 84.4964C211.281 82.7526 212.722 80.3683 213.292 77.6103C213.292 77.5925 213.292 77.5925 213.292 77.5747C213.47 76.7384 213.559 75.9021 213.559 75.0658ZM198.594 86.0089C198.523 85.9911 198.47 85.9911 198.416 85.9733C195.231 85.2615 192.651 83.2331 191.139 80.5818C189.84 78.2864 189.324 75.5462 189.893 72.7704C190.018 72.201 190.178 71.6494 190.374 71.1156C190.391 71.08 190.409 71.0444 190.409 71.0088C191.993 66.8985 195.854 64.1049 200.196 63.8558C201.157 63.8024 202.135 63.8558 203.132 64.0693C205.267 64.5141 207.117 65.5284 208.594 66.9341C211.299 69.5142 212.651 73.3932 211.85 77.3078C210.569 83.3576 204.644 87.2722 198.594 86.0089Z" fill="white"/>
<path d="M236.174 69.8702C235.836 69.6922 235.48 69.532 235.107 69.3719C234.68 69.194 234.235 69.0516 233.79 68.9093C233.47 68.8203 233.167 68.7313 232.829 68.678C232.224 68.5534 231.637 68.4822 231.05 68.4467C230.338 68.3933 229.626 68.4111 228.932 68.5C226.993 68.7136 225.16 69.3541 223.541 70.3684C221.762 71.4716 220.249 73.0196 219.217 74.8879C218.932 75.3684 218.701 75.8666 218.488 76.3648C218.47 76.4004 218.47 76.4182 218.452 76.4538C218.185 77.13 217.972 77.8417 217.811 78.5712C216.797 83.4823 218.772 88.3221 222.491 91.2047C223.701 92.1478 225.089 92.8773 226.619 93.3222C226.851 93.3933 227.082 93.4645 227.331 93.5001C227.456 93.5357 227.562 93.5535 227.687 93.5891C228.915 93.8382 230.142 93.9094 231.335 93.8026C231.53 93.7848 231.726 93.767 231.904 93.7492C232.42 93.678 232.936 93.5891 233.452 93.4467C234.395 93.1976 235.32 92.8417 236.174 92.3969C239.431 90.6887 241.922 87.5926 242.722 83.7136C243.879 78.0196 241.05 72.4324 236.174 69.8702ZM241.228 83.3933C241.174 83.6424 241.121 83.8737 241.05 84.1051C240.961 84.4431 240.854 84.7634 240.73 85.1015C239.84 87.4681 238.203 89.3898 236.139 90.6531C235.392 91.1157 234.573 91.4894 233.719 91.7741C233.185 91.9521 232.651 92.0766 232.082 92.1656C231.922 92.2012 231.762 92.219 231.601 92.2367C230.427 92.3791 229.199 92.3435 227.972 92.0944C227.865 92.0766 227.74 92.041 227.633 92.0232C227.562 92.0054 227.491 91.9876 227.438 91.9699C225.641 91.5072 224.039 90.6175 222.74 89.4253C222.545 89.2474 222.367 89.0695 222.189 88.8915C219.715 86.3292 218.505 82.6104 219.27 78.8559C219.448 78.0196 219.715 77.2011 220.053 76.4538C221.174 73.9983 223.132 72.0943 225.498 70.9733C226.957 70.2794 228.577 69.9057 230.249 69.9057C230.516 69.9057 230.783 69.9235 231.068 69.9413C231.548 69.9769 232.029 70.0481 232.509 70.137C232.865 70.2082 233.203 70.2972 233.541 70.4039C234.004 70.5463 234.448 70.7242 234.893 70.92C235.231 71.0801 235.569 71.258 235.908 71.436C239.947 73.8025 242.224 78.5534 241.228 83.3933Z" fill="white"/>
<path d="M173.221 72.0407C173.132 72.0229 173.043 71.9874 172.971 71.934C172.616 71.7027 172.527 71.24 172.74 70.9019C177.794 63.0016 189.947 70.1013 190.053 70.1724C190.409 70.3859 190.534 70.8486 190.32 71.2045C190.107 71.5603 189.644 71.6849 189.288 71.4714C189.181 71.4002 178.274 65.0478 174.004 71.7205C173.843 71.9696 173.523 72.0941 173.221 72.0407Z" fill="white"/>
<path d="M219.022 76.7919C218.826 76.7563 218.666 76.6318 218.541 76.4716C216.922 73.9805 213.47 75.1015 213.435 75.1015C213.043 75.226 212.616 75.0125 212.492 74.6211C212.367 74.2296 212.58 73.8026 212.972 73.678C214.556 73.1442 218.025 72.8773 219.823 75.6531C220.054 76.009 219.947 76.4716 219.591 76.6851C219.413 76.7919 219.218 76.8275 219.022 76.7919Z" fill="white"/>
<g opacity="0.8">
<g opacity="0.8">
<g opacity="0.8">
<g opacity="0.8">
<g opacity="0.8">
<g opacity="0.8">
<g opacity="0.8">
<path opacity="0.8" d="M229.734 85.2082C229.342 87.0943 228.968 88.8737 228.595 90.5463C225.161 89.71 222.687 88.0196 222.972 86.6139C223.274 85.226 226.228 84.621 229.734 85.2082Z" fill="#D96C63"/>
</g>
</g>
</g>
</g>
</g>
</g>
</g>
<path d="M206.281 75.2437C205.872 77.29 204.609 78.7491 203.47 78.5178C202.331 78.2865 201.744 76.4537 202.153 74.4074C202.562 72.3612 203.826 70.9021 204.965 71.1334C206.103 71.3647 206.691 73.1975 206.281 75.2437Z" fill="#39393B"/>
<path d="M226.459 79.3363C226.05 81.3826 224.787 82.8417 223.648 82.6104C222.509 82.379 221.922 80.5463 222.331 78.5C222.741 76.4538 224.004 74.9947 225.143 75.226C226.282 75.4573 226.869 77.2901 226.459 79.3363Z" fill="#39393B"/>
<path d="M216.032 84.8165C217.011 85.0123 217.705 84.9767 217.758 84.9767C217.989 84.9589 218.221 84.8521 218.381 84.6742C218.541 84.4963 218.594 84.2472 218.577 84.0158L217.278 74.4962C217.206 74.0336 216.779 73.6955 216.317 73.7667C215.854 73.8379 215.516 74.2649 215.587 74.7276L216.744 83.2151C215.89 83.0906 214.609 82.7347 213.452 81.7738C213.096 81.4713 212.545 81.5247 212.242 81.8806C211.94 82.2365 211.993 82.7881 212.349 83.0906C213.612 84.1226 214.982 84.603 216.032 84.8165Z" fill="#39393B"/>
<path d="M178.506 91.5429C178.363 91.7564 174.413 97.4326 170.196 98.4646C170.178 98.4468 170.178 98.4469 170.178 98.4469C170.143 96.97 170.16 95.4931 170.178 94.0518C170.321 94.0696 174.342 94.1764 178.506 91.5429Z" fill="#39393B"/>
<path d="M177.634 76.6316C177.634 76.6316 171.691 64.0337 163.986 71.4181C157.634 77.5213 163.185 97.8772 174.217 93.5178L177.634 76.6316Z" fill="#EA9B7A"/>
<path d="M163.025 87.5035C159.573 88.6423 156.53 91.7029 155.747 95.4929C154.609 101.151 158.274 106.667 163.915 107.824C169.573 108.963 175.089 105.297 176.246 99.6566C177.1 95.4217 175.267 91.258 171.904 88.9626C170.783 88.1797 169.484 87.6281 168.061 87.3434C168.025 87.3434 167.989 87.3256 167.954 87.3256C167.758 88.0374 167.847 88.6068 168.239 89.0516C169.377 89.3541 170.409 89.8701 171.317 90.5463C173.933 92.5392 175.338 95.9022 174.644 99.3363C173.683 104.105 169.004 107.201 164.235 106.24C159.466 105.279 156.37 100.6 157.331 95.831C158.025 92.3612 160.605 89.9057 163.826 89.1228L163.025 87.5035Z" fill="#FAAF3A"/>
<path d="M173.754 90.0126C173.79 90.0126 173.808 90.0304 173.843 90.0304C174.306 90.066 174.733 89.728 174.769 89.2475C175.641 79.7279 168.452 74.9058 168.149 74.7101C167.758 74.4432 167.224 74.5678 166.957 74.9592C166.69 75.3507 166.815 75.8845 167.206 76.1514C167.473 76.3293 173.843 80.6354 173.061 89.1052C173.043 89.5322 173.345 89.9237 173.754 90.0126Z" fill="#39393B"/>
<path d="M166.958 83.3399C167.136 83.3755 167.349 83.3577 167.527 83.251C168.381 82.8061 170.89 81.8097 172.26 82.468C172.687 82.6816 173.203 82.5037 173.399 82.0766C173.612 81.6496 173.434 81.1335 173.007 80.9378C170.623 79.7812 167.136 81.5428 166.744 81.7385C166.317 81.9521 166.157 82.4681 166.388 82.8951C166.495 83.1264 166.726 83.2866 166.958 83.3399Z" fill="#39393B"/>
<path d="M185.285 55.2615C185.285 55.2615 177.296 76.952 176.869 81.3292C176.281 87.2901 168.399 66.863 176.317 49.4252L185.285 55.2615Z" fill="#39393B"/>
<path d="M318.773 515.12H285.872C285.872 515.12 278.257 478.608 275.712 458.145C273.15 437.665 271.833 389.141 271.833 389.141C271.833 389.141 245.623 397.665 190.747 394.444C69.1635 387.344 115.267 298.02 115.267 298.02C119.377 303.696 150.196 311.508 167.384 314.23C220.178 319.301 260.303 328.269 287.776 340.12C294.395 342.967 300.267 345.992 305.427 349.177C312.047 353.252 316.193 365.654 318.702 381.935C326.193 430.885 318.773 515.12 318.773 515.12Z" fill="#39393B"/>
<path d="M289.947 497.54C289.395 497.54 288.915 497.149 288.79 496.597C284.039 473.11 282.456 443.875 281.175 420.387C280.107 400.903 279.11 382.505 276.602 380.298C274.573 378.501 266.157 379.907 255.516 381.668C234.324 385.191 202.295 390.494 166.993 382.291C147.758 377.807 133.612 368.465 124.964 354.515C110.035 330.458 116.85 300.618 116.921 300.316C117.064 299.675 117.704 299.284 118.345 299.444C118.986 299.586 119.377 300.227 119.217 300.867C119.146 301.152 112.58 330.067 126.993 353.287C135.302 366.686 148.95 375.672 167.544 379.996C202.402 388.11 234.146 382.843 255.16 379.355C267.74 377.273 275.338 376.01 278.203 378.537C281.299 381.277 282.171 394.729 283.559 420.263C284.84 443.679 286.424 472.807 291.139 496.135C291.264 496.775 290.854 497.398 290.214 497.523C290.107 497.523 290.036 497.54 289.947 497.54Z" fill="#585859"/>
<path d="M319.395 498.145H319.377L282.794 497.362C282.135 497.344 281.619 496.811 281.637 496.152C281.655 495.494 282.189 494.978 282.847 494.996L319.431 495.779C320.089 495.796 320.605 496.33 320.587 496.989C320.552 497.647 320.036 498.145 319.395 498.145Z" fill="#585859"/>
<path d="M317.866 557.274H294.645L290.179 530.032L287.723 515.12H316.567L317.029 530.032L317.866 557.274Z" fill="#EA9B7A"/>
<path d="M317.865 557.273H294.644L291.317 536.989L290.178 530.031H317.029L317.242 537.238L317.865 557.273Z" fill="#FAAF3A"/>
<path d="M317.242 537.238L291.317 536.989L290.178 530.031H317.029L317.242 537.238Z" fill="#C77E2E"/>
<path d="M375.161 593.946H287.331C286.673 592.754 286.317 591.082 286.175 589.071C285.623 581.633 287.99 569.783 289.146 562.309C289.289 561.437 289.413 560.619 289.502 559.889C289.662 558.644 289.769 557.594 289.769 556.829C289.769 550.726 295.161 551.775 295.161 551.775C304.04 560.494 314.111 547.434 319.983 551.704C319.983 551.704 320.214 551.882 320.766 552.291C321.264 552.683 322.011 553.288 323.043 554.16C324.538 555.405 326.638 557.22 329.485 559.783C336.46 566.064 348.31 570.192 358.399 574.409C359.68 574.943 360.873 575.477 361.994 576.028C362.83 576.437 363.631 576.847 364.378 577.238C372.634 581.687 375.25 585.957 375.855 589.053C376.442 592.025 375.161 593.946 375.161 593.946Z" fill="#0875F7"/>
<path d="M364.396 577.256C362.136 579.053 357.1 582.665 353.061 582.665C352.883 582.665 352.705 582.665 352.527 582.647C349.68 582.416 339.218 577.274 330.694 572.594C325.819 569.907 321.353 567.274 318.15 565.156C312.901 561.686 311.976 560.37 311.78 559.444C311.015 555.975 316.744 553.573 320.766 552.309C321.264 552.701 322.011 553.306 323.043 554.178C318.061 555.53 313.951 557.665 314.146 558.875C314.645 559.907 319.84 563.857 332.26 570.672C341.744 575.868 350.73 580.049 352.723 580.227C355.428 580.441 359.396 577.985 361.993 576.046C362.865 576.437 363.648 576.847 364.396 577.256Z" fill="#084FC7"/>
<path d="M375.161 593.946H287.331C286.673 592.754 286.317 591.081 286.175 589.071H375.873C376.442 592.025 375.161 593.946 375.161 593.946Z" fill="#084FC7"/>
<path d="M296.3 593.946H293.684C296.282 590.975 298.719 586.402 298.399 579.889C297.972 571.206 292.776 565.37 289.146 562.309C289.289 561.437 289.413 560.619 289.502 559.889C293.399 562.861 299.965 569.391 300.481 579.783C300.801 586.01 298.755 590.654 296.3 593.946Z" fill="#084FC7"/>
<path d="M328.026 564.978C327.385 564.978 326.78 564.533 326.62 563.875C326.424 563.092 326.905 562.309 327.67 562.114L333.15 560.743C333.933 560.548 334.716 561.028 334.912 561.793C335.107 562.576 334.627 563.359 333.862 563.555L328.381 564.925C328.257 564.961 328.132 564.978 328.026 564.978Z" fill="white"/>
<path d="M322.563 560.405C321.904 560.405 321.317 559.96 321.157 559.302C320.961 558.519 321.442 557.736 322.207 557.54L327.687 556.17C328.47 555.975 329.253 556.455 329.449 557.22C329.645 558.003 329.164 558.786 328.399 558.982L322.919 560.352C322.794 560.387 322.687 560.405 322.563 560.405Z" fill="white"/>
<path d="M333.506 568.163C332.866 568.163 332.261 567.719 332.1 567.06C331.905 566.277 332.385 565.494 333.15 565.316L338.631 563.946C339.414 563.751 340.196 564.231 340.392 564.996C340.588 565.779 340.108 566.562 339.342 566.758L333.862 568.128C333.737 568.146 333.613 568.163 333.506 568.163Z" fill="white"/>
<path d="M338.987 571.224C338.346 571.224 337.741 570.779 337.581 570.121C337.385 569.338 337.866 568.555 338.631 568.377L344.111 567.007C344.894 566.811 345.677 567.292 345.873 568.057C346.068 568.84 345.588 569.622 344.823 569.818L339.342 571.188C339.218 571.206 339.111 571.224 338.987 571.224Z" fill="white"/>
<path d="M344.965 574.053C344.325 574.053 343.72 573.608 343.559 572.95C343.364 572.167 343.844 571.384 344.609 571.206L350.09 569.836C350.873 569.64 351.656 570.121 351.851 570.886C352.047 571.669 351.567 572.452 350.801 572.647L345.321 574.017C345.196 574.053 345.09 574.053 344.965 574.053Z" fill="white"/>
<path d="M351.46 576.473C350.801 576.473 350.214 576.028 350.054 575.37C349.858 574.587 350.339 573.804 351.104 573.608L356.584 572.238C357.367 572.042 358.15 572.523 358.346 573.288C358.542 574.071 358.061 574.854 357.296 575.049L351.816 576.42C351.691 576.455 351.566 576.473 351.46 576.473Z" fill="white"/>
<path d="M439.948 296.703V303.999C439.948 308.198 437.421 311.597 434.289 311.597H40.2135C37.0819 311.597 34.5552 308.198 34.5552 303.999V296.703C34.5552 292.504 37.0819 289.106 40.2135 289.106H434.272C437.403 289.106 439.948 292.504 439.948 296.703Z" fill="#21B573"/>
<path d="M439.948 299.017H34.5552V302.362H439.948V299.017Z" fill="#217C58"/>
<path d="M428.097 330.333H57.6868C56.032 330.333 54.6797 328.981 54.6797 327.326V311.49H431.104V327.326C431.104 328.981 429.752 330.333 428.097 330.333Z" fill="#217C58"/>
<path d="M411.46 423.287H80.1958V436.205H411.46V423.287Z" fill="#217C58"/>
<path d="M56.3168 596.242L120.445 330.333H97.9183L33.79 596.242H56.3168Z" fill="#21B573"/>
<path d="M434.912 596.242L370.766 330.333H393.293L457.421 596.242H434.912Z" fill="#21B573"/>
<path d="M70.5194 227.994L63.5718 229.058L71.6025 281.491L78.5501 280.427L70.5194 227.994Z" fill="#FAAF3A"/>
<path d="M70.5333 227.967L63.5938 229.034L65.124 223.732L65.9069 220.974L67.4906 223.358L70.5333 227.967Z" fill="#EA9B7A"/>
<path d="M77.9599 276.61L71.0122 277.674L71.5968 281.491L78.5445 280.427L77.9599 276.61Z" fill="#39393B"/>
<path d="M78.5765 283.501L72.5444 284.426C72.2953 284.462 72.0462 284.284 72.0106 284.035L71.6191 281.454L78.5765 280.387L78.9679 282.967C79.0035 283.234 78.8256 283.465 78.5765 283.501Z" fill="#DF615C"/>
<path d="M67.4911 223.358L65.1245 223.732L65.9074 220.974L67.4911 223.358Z" fill="#39393B"/>
<path d="M77.5668 273.871L70.6191 274.935L71.0367 277.661L77.9844 276.597L77.5668 273.871Z" fill="#C77E2E"/>
<path d="M65.7118 231.347L71.6549 270.173C71.7083 270.476 71.9752 270.671 72.2599 270.618C72.5446 270.565 72.7581 270.298 72.7047 270.013L66.7616 231.187C66.7083 230.902 66.4414 230.689 66.1567 230.742C65.872 230.778 65.6584 231.063 65.7118 231.347Z" fill="#C77E2E"/>
<path d="M68.4345 230.938L74.3776 269.764C74.4309 270.048 74.6978 270.262 74.9825 270.208C75.285 270.155 75.4808 269.888 75.4274 269.604L69.4843 230.778C69.4309 230.493 69.164 230.28 68.8793 230.333C68.5946 230.369 68.3811 230.635 68.4345 230.938Z" fill="#C77E2E"/>
<path d="M83.1164 228.206L76.0879 228.229L76.2623 281.272L83.2908 281.249L83.1164 228.206Z" fill="#21B573"/>
<path d="M83.1139 228.216L76.0854 228.233L78.3808 223.216L79.573 220.6L80.783 223.198L83.1139 228.216Z" fill="#EA9B7A"/>
<path d="M83.2687 277.406L76.2402 277.429L76.2529 281.29L83.2814 281.267L83.2687 277.406Z" fill="#39393B"/>
<path d="M82.829 284.319L76.7258 284.337C76.4589 284.337 76.2632 284.123 76.2632 283.874V281.276L83.2917 281.259V283.856C83.2917 284.105 83.0959 284.319 82.829 284.319Z" fill="#DF615C"/>
<path d="M80.783 223.198L78.3809 223.216L79.573 220.6L80.783 223.198Z" fill="#39393B"/>
<path d="M83.2526 274.63L76.2241 274.653L76.2332 277.411L83.2617 277.388L83.2526 274.63Z" fill="#217C58"/>
<path d="M77.8291 230.849L77.9537 270.12C77.9537 270.422 78.2028 270.654 78.4875 270.654C78.79 270.654 79.0213 270.404 79.0213 270.12L78.8967 230.849C78.8967 230.547 78.6476 230.315 78.3629 230.315C78.0782 230.298 77.8291 230.547 77.8291 230.849Z" fill="#217C58"/>
<path d="M80.5874 230.831L80.712 270.102C80.712 270.404 80.9611 270.636 81.2458 270.636C81.5483 270.636 81.7796 270.386 81.7796 270.102L81.655 230.831C81.655 230.529 81.4059 230.297 81.1212 230.297C80.8365 230.297 80.5874 230.529 80.5874 230.831Z" fill="#217C58"/>
<path d="M88.3011 227.943L80.8433 280.461L87.8022 281.449L95.26 228.932L88.3011 227.943Z" fill="#0875F7"/>
<path d="M95.2493 228.963L88.292 227.967L91.2813 223.322L92.8472 220.92L93.6657 223.661L95.2493 228.963Z" fill="#EA9B7A"/>
<path d="M88.3617 277.674L81.4028 276.686L80.8599 280.509L87.8189 281.497L88.3617 277.674Z" fill="#39393B"/>
<path d="M86.9041 284.444L80.8721 283.59C80.6229 283.554 80.445 283.323 80.4806 283.056L80.8543 280.476L87.8116 281.472L87.4379 284.052C87.3845 284.301 87.1532 284.479 86.9041 284.444Z" fill="#DF615C"/>
<path d="M93.6656 223.661L91.2812 223.322L92.8471 220.92L93.6656 223.661Z" fill="#39393B"/>
<path d="M81.7801 273.925L81.3921 276.656L88.351 277.645L88.7391 274.914L81.7801 273.925Z" fill="#084FC7"/>
<path d="M89.6442 230.796L84.1282 269.675C84.0926 269.977 84.2883 270.244 84.5908 270.28C84.8933 270.316 85.1602 270.12 85.1958 269.817L90.7118 230.938C90.7474 230.636 90.5517 230.369 90.2492 230.333C89.9645 230.298 89.6976 230.511 89.6442 230.796Z" fill="#084FC7"/>
<path d="M92.3844 231.187L86.8684 270.067C86.8328 270.369 87.0286 270.636 87.3311 270.672C87.6336 270.707 87.9005 270.511 87.936 270.209L93.4521 231.33C93.4877 231.027 93.2919 230.76 92.9894 230.725C92.6869 230.689 92.42 230.885 92.3844 231.187Z" fill="#084FC7"/>
<path d="M97.5447 249.194L97.171 252.041L96.8329 254.621L96.3347 258.536L95.9966 261.098L95.4984 265.048L95.1603 267.575L94.6443 271.561L94.324 274.052L93.808 278.073L93.4877 280.529L92.9717 284.586L92.6514 287.006L92.3845 289.105H64.7332L64.4663 287.006L64.146 284.586L63.63 280.529L63.3097 278.073L62.7937 274.052L62.4734 271.561L61.9574 267.575L61.6371 265.048L61.1211 261.098L60.8008 258.536L60.2848 254.621L59.9467 252.041L59.5908 249.194H97.5447Z" fill="#DF615C"/>
<path d="M97.1711 252.041L96.833 254.621H60.2848L59.9468 252.041H97.1711Z" fill="#B11722"/>
<path d="M96.3347 258.536L95.9966 261.098H61.1211L60.8008 258.536H96.3347Z" fill="#B11722"/>
<path d="M95.4985 265.049L95.1604 267.575H61.9575L61.6372 265.049H95.4985Z" fill="#B11722"/>
<path d="M94.6445 271.561L94.3243 274.052H62.7939L62.4736 271.561H94.6445Z" fill="#B11722"/>
<path d="M93.8079 278.073L93.4876 280.529H63.6299L63.3096 278.073H93.8079Z" fill="#B11722"/>
<path d="M92.9717 284.586L92.6514 287.006H64.4663L64.146 284.586H92.9717Z" fill="#B11722"/>
<path d="M437.652 148.091L414.075 247.806L413.453 250.422L411.869 257.13C411.175 260.049 408.595 262.095 405.606 262.095H246.762C242.598 262.095 239.537 258.216 240.498 254.177L266.281 145.119C266.975 142.219 269.555 140.173 272.545 140.173H431.371C435.534 140.173 438.595 144.052 437.652 148.091Z" fill="#39393B"/>
<path d="M414.058 247.789L413.453 250.422H248.523V247.789H414.058Z" fill="#585859"/>
<path d="M310.765 164.835C309.449 171.899 302.651 177.628 295.587 177.628C288.523 177.628 283.861 171.899 285.178 164.835C286.495 157.771 293.292 152.041 300.356 152.041C307.438 152.041 312.082 157.771 310.765 164.835Z" fill="#FAAF3A"/>
<path d="M296.317 162.397C296.05 163.803 295.338 164.959 294.733 164.959C294.111 164.959 293.826 163.82 294.093 162.397C294.36 160.991 295.071 159.835 295.676 159.835C296.299 159.835 296.584 160.974 296.317 162.397Z" fill="#39393B"/>
<path d="M302.99 162.397C302.723 163.803 302.011 164.959 301.406 164.959C300.801 164.959 300.499 163.821 300.766 162.397C301.032 160.991 301.744 159.835 302.349 159.835C302.972 159.835 303.257 160.974 302.99 162.397Z" fill="#39393B"/>
<path d="M296.922 171.08C291.424 171.08 291.192 165.582 291.192 165.529C291.175 165.226 291.424 164.924 291.744 164.87C292.064 164.799 292.313 164.995 292.331 165.297C292.331 165.493 292.545 169.977 297.153 169.977C301.744 169.977 303.63 165.493 303.719 165.297C303.844 164.995 304.182 164.817 304.466 164.87C304.751 164.941 304.893 165.226 304.769 165.529C304.715 165.564 302.42 171.08 296.922 171.08Z" fill="#39393B"/>
<path d="M384.2 224.586C384.342 231.205 395.552 239.497 395.552 239.497C395.552 239.497 408.577 231.205 410.161 224.586C411.869 217.415 403.684 215.209 397.616 220.618C392.723 215.209 384.04 217.415 384.2 224.586Z" fill="#DF615C"/>
<path d="M360.463 205.386C359.698 212.255 353.524 217.806 346.673 217.806C339.823 217.806 334.858 212.237 335.623 205.386C336.388 198.518 342.563 192.966 349.413 192.966C356.282 192.966 361.228 198.536 360.463 205.386Z" fill="#585859"/>
<path d="M278.844 140.173L251.388 262.095H246.762C242.598 262.095 239.537 258.216 240.498 254.177L266.281 145.119C266.975 142.219 269.555 140.155 272.545 140.155H278.844V140.173Z" fill="#585859"/>
<path d="M324.84 262.095L320.018 289.195H335.943L340.765 262.095H324.84Z" fill="white"/>
<path d="M296.21 284.533L299.466 279.96C300.623 278.323 302.509 277.362 304.52 277.362H348.15C350.463 277.362 352.58 278.643 353.648 280.689L355.837 284.889C356.869 286.846 355.445 289.212 353.221 289.212H298.612C296.21 289.195 294.822 286.472 296.21 284.533Z" fill="white"/>
<path d="M205.303 289.177H336.371L337.794 284.23C338.684 281.116 336.353 278.02 333.114 278.02H212.171C210 278.02 208.096 279.461 207.491 281.543L205.303 289.177Z" fill="white"/>
<path d="M377.154 107.61L319.182 107.575C316.94 107.575 315.107 105.742 315.107 103.5L315.125 67.8772C315.125 65.6352 316.958 63.8025 319.2 63.8025L377.172 63.8381C379.414 63.8381 381.246 65.6708 381.246 67.9128L381.229 103.536C381.229 105.795 379.414 107.61 377.154 107.61Z" fill="#DF615C"/>
<path d="M373.702 101.045L368.417 121.009L359.182 102.237L373.702 101.045Z" fill="#DF615C"/>
<path d="M362.83 82.4857C361.655 89.959 347.687 99.3185 347.687 99.3185C347.687 99.3185 334.253 89.9412 333.488 82.4501C332.652 74.3362 342.26 71.8629 348.292 77.9839C354.645 71.8807 364.111 74.3718 362.83 82.4857Z" fill="white"/>
<path d="M499.232 524.42H374.606C372.239 524.42 370.317 522.498 370.317 520.132V518.156C370.317 515.79 372.239 513.868 374.606 513.868H499.232C501.599 513.868 503.521 515.79 503.521 518.156V520.132C503.521 522.498 501.599 524.42 499.232 524.42Z" fill="#39393B"/>
<path d="M376.172 396.982H497.934C499.962 396.982 501.599 398.619 501.599 400.647V415.612C501.599 417.64 499.962 419.277 497.934 419.277H376.172C374.143 419.277 372.506 417.64 372.506 415.612V400.647C372.506 398.619 374.143 396.982 376.172 396.982Z" fill="#585859"/>
<path d="M404.926 302.142C404.926 302.142 353.592 291.999 339.268 256.181C324.944 220.362 377.328 193.494 404.926 212.729C434.464 233.298 404.926 302.142 404.926 302.142Z" fill="#21B573"/>
<path d="M435.46 396.252C435.015 396.252 434.606 395.914 434.535 395.452C429.624 362.178 409.784 314.313 394.037 280.024C376.937 242.836 360.816 213.156 360.656 212.853C360.407 212.409 360.585 211.839 361.03 211.59C361.474 211.341 362.044 211.519 362.293 211.964C362.453 212.266 378.61 241.999 395.745 279.241C411.563 313.654 431.457 361.697 436.403 395.185C436.475 395.701 436.136 396.163 435.62 396.235C435.549 396.235 435.496 396.252 435.46 396.252Z" fill="#39393B"/>
<path d="M403.004 298.672C402.666 298.672 402.346 298.494 402.186 298.192C379.855 256.608 343.592 226.43 343.236 226.128C342.844 225.807 342.791 225.22 343.111 224.829C343.431 224.437 344.019 224.384 344.41 224.704C344.784 225.007 381.314 255.398 403.823 297.32C404.072 297.765 403.894 298.334 403.449 298.583C403.289 298.637 403.147 298.672 403.004 298.672Z" fill="#39393B"/>
<path d="M404.019 301.661C403.752 301.661 403.503 301.555 403.307 301.341C387.026 282.177 370.335 270.256 359.214 263.636C347.15 256.465 338.841 253.779 338.769 253.761C338.289 253.601 338.004 253.085 338.164 252.586C338.325 252.106 338.841 251.821 339.339 251.982C339.677 252.088 347.898 254.722 360.122 261.999C371.385 268.69 388.271 280.754 404.731 300.131C405.069 300.523 405.015 301.11 404.624 301.448C404.446 301.59 404.214 301.661 404.019 301.661Z" fill="#39393B"/>
<path d="M399.499 290.754C399.108 290.754 398.752 290.505 398.627 290.131C386.101 253.387 390.709 208.743 390.762 208.298C390.816 207.782 391.278 207.426 391.777 207.48C392.293 207.533 392.649 207.996 392.595 208.494C392.542 208.939 387.987 253.192 400.371 289.526C400.531 290.007 400.282 290.54 399.784 290.701C399.695 290.736 399.588 290.754 399.499 290.754Z" fill="#39393B"/>
<path d="M402.649 298.032C402.204 298.032 401.813 297.711 401.741 297.249C397.916 273.992 400.852 255.024 404.001 243.209C407.418 230.38 411.688 223.156 411.866 222.853C412.133 222.409 412.702 222.266 413.147 222.533C413.592 222.8 413.734 223.369 413.467 223.814C413.432 223.885 409.126 231.163 405.78 243.779C402.702 255.398 399.82 274.081 403.574 296.964C403.663 297.462 403.307 297.943 402.809 298.032C402.738 298.014 402.684 298.032 402.649 298.032Z" fill="#39393B"/>
<path d="M459.072 311.501C459.072 311.501 510.923 304.402 527.346 269.508C543.77 234.597 493.058 204.686 464.375 222.248C433.663 241.038 459.072 311.501 459.072 311.501Z" fill="#21B573"/>
<path d="M439.41 393.21C438.894 393.21 438.467 392.783 438.485 392.267C438.681 375.131 442.417 355.612 449.588 334.259C455.318 317.195 463.218 298.921 473.111 279.953C489.926 247.658 506.866 224.188 507.044 223.957C507.346 223.547 507.934 223.44 508.343 223.743C508.752 224.045 508.859 224.633 508.556 225.042C508.396 225.273 491.528 248.654 474.766 280.825C459.321 310.487 440.816 353.886 440.371 392.284C440.335 392.8 439.926 393.21 439.41 393.21Z" fill="#39393B"/>
<path d="M461.261 308.156C461.101 308.156 460.923 308.121 460.78 308.014C460.336 307.747 460.211 307.177 460.478 306.733C485.424 266.216 523.699 238.031 524.09 237.747C524.499 237.444 525.087 237.533 525.389 237.942C525.692 238.352 525.603 238.939 525.193 239.241C524.82 239.526 486.83 267.498 462.079 307.693C461.884 307.996 461.581 308.156 461.261 308.156Z" fill="#39393B"/>
<path d="M460.069 311.074C459.837 311.074 459.606 310.985 459.428 310.825C459.054 310.469 459.036 309.882 459.392 309.508C476.99 291.127 494.553 280.095 506.19 274.081C518.823 267.551 527.168 265.398 527.524 265.309C528.022 265.184 528.521 265.487 528.645 265.985C528.77 266.483 528.467 266.982 527.969 267.106C527.88 267.124 519.428 269.312 506.973 275.754C495.478 281.697 478.129 292.622 460.727 310.789C460.567 310.967 460.318 311.074 460.069 311.074Z" fill="#39393B"/>
<path d="M465.229 300.451C465.104 300.451 464.997 300.434 464.873 300.38C464.392 300.185 464.179 299.651 464.357 299.17C478.876 263.619 476.937 219.188 476.919 218.743C476.901 218.227 477.293 217.8 477.809 217.764C478.307 217.729 478.752 218.138 478.787 218.654C478.805 219.099 480.762 263.939 466.1 299.882C465.94 300.238 465.602 300.451 465.229 300.451Z" fill="#39393B"/>
<path d="M461.652 307.533C461.581 307.533 461.51 307.533 461.439 307.515C460.941 307.409 460.62 306.91 460.745 306.412C465.87 283.779 464.09 264.971 461.706 253.191C459.108 240.416 455.265 232.889 455.229 232.8C454.998 232.337 455.176 231.786 455.62 231.554C456.083 231.323 456.635 231.501 456.866 231.946C457.026 232.248 460.852 239.722 463.503 252.747C465.941 264.739 467.756 283.85 462.56 306.821C462.471 307.231 462.08 307.533 461.652 307.533Z" fill="#39393B"/>
<path d="M439.108 243.956C439.108 243.956 395.175 215.522 395.122 176.946C395.069 138.369 453.681 132.817 472.204 160.896C492.044 190.949 439.108 243.956 439.108 243.956Z" fill="#21B573"/>
<path d="M432.969 342.729C432.898 342.729 432.827 342.729 432.756 342.711C432.257 342.587 431.955 342.089 432.062 341.59C439.82 308.868 439.126 257.053 437.186 219.366C435.086 178.494 431.083 144.935 431.047 144.615C430.994 144.099 431.35 143.636 431.866 143.583C432.364 143.529 432.844 143.885 432.898 144.401C432.933 144.739 436.937 178.351 439.054 219.277C441.012 257.088 441.688 309.081 433.894 342.017C433.77 342.444 433.396 342.729 432.969 342.729Z" fill="#39393B"/>
<path d="M438.948 240.095C438.485 240.095 438.076 239.739 438.022 239.277C432.684 192.373 410.175 150.913 409.944 150.504C409.695 150.059 409.855 149.49 410.318 149.241C410.763 148.992 411.332 149.152 411.581 149.614C411.812 150.024 434.499 191.803 439.873 239.081C439.926 239.597 439.57 240.059 439.054 240.113C439.019 240.095 438.983 240.095 438.948 240.095Z" fill="#39393B"/>
<path d="M438.788 243.227C438.396 243.227 438.04 242.978 437.916 242.586C429.891 218.743 418.806 201.501 410.923 191.234C402.382 180.095 395.656 174.543 395.585 174.49C395.193 174.17 395.122 173.583 395.46 173.191C395.781 172.8 396.368 172.728 396.759 173.067C397.044 173.298 403.681 178.778 412.346 190.059C420.336 200.451 431.546 217.889 439.66 241.999C439.82 242.48 439.571 243.013 439.073 243.173C438.984 243.209 438.895 243.227 438.788 243.227Z" fill="#39393B"/>
<path d="M438.627 231.43C438.609 231.43 438.592 231.43 438.574 231.43C438.058 231.412 437.666 230.967 437.702 230.451C439.677 191.697 460.496 151.928 460.691 151.518C460.94 151.056 461.492 150.896 461.955 151.127C462.417 151.358 462.578 151.928 462.346 152.39C462.133 152.782 441.51 192.195 439.57 230.54C439.535 231.038 439.125 231.43 438.627 231.43Z" fill="#39393B"/>
<path d="M438.859 239.348C438.788 239.348 438.734 239.348 438.663 239.33C438.165 239.223 437.844 238.725 437.951 238.227C443.005 215.202 452.791 198.547 460.122 188.618C468.076 177.835 474.731 172.586 475.015 172.373C475.425 172.052 476.012 172.124 476.314 172.533C476.635 172.942 476.563 173.529 476.154 173.832C476.083 173.885 469.375 179.188 461.563 189.775C454.357 199.544 444.731 215.949 439.766 238.618C439.677 239.063 439.286 239.348 438.859 239.348Z" fill="#39393B"/>
<path d="M492.791 337.747L491.261 341.804L490.3 344.384L487.524 351.75L486.546 354.33L483.699 361.91L482.738 364.473L470.496 396.964H403.627L391.385 364.473L390.424 361.91L387.577 354.33L386.599 351.75L383.823 344.384L382.862 341.804L381.332 337.747C380.282 334.953 382.346 331.982 385.318 331.982H488.823C491.777 331.982 493.841 334.953 492.791 337.747Z" fill="#0875F7"/>
<path d="M491.261 341.804L490.3 344.384H383.823L382.844 341.804H491.261Z" fill="#084FC7"/>
<path d="M487.506 351.75L486.545 354.33H387.559L386.599 351.75H487.506Z" fill="#084FC7"/>
<path d="M483.681 361.911L482.72 364.473H391.385L390.424 361.911H483.681Z" fill="#084FC7"/>
<path d="M419.143 419.259L415.442 431.217L363.823 597.587H353.734L386.456 434.615L389.552 419.259H419.143Z" fill="#39393B"/>
<path d="M520.674 597.587H510.585L457.453 426.288L455.264 419.259H484.855L485.602 422.996L520.674 597.587Z" fill="#39393B"/>
<path d="M499.232 501.484H374.606C372.239 501.484 370.317 499.562 370.317 497.196V495.22C370.317 492.854 372.239 490.932 374.606 490.932H499.215C501.581 490.932 503.503 492.854 503.503 495.22V497.196C503.521 499.562 501.599 501.484 499.232 501.484Z" fill="#585859"/>
<path d="M342.256 101.495C368.908 101.495 390.513 80.1606 390.513 53.8435C390.513 27.5264 368.908 6.19214 342.256 6.19214C315.605 6.19214 294 27.5264 294 53.8435C294 80.1606 315.605 101.495 342.256 101.495Z" fill="#CED3E6"/>
<path d="M342.256 95.3027C368.908 95.3027 390.513 73.9685 390.513 47.6514C390.513 21.3342 368.908 0 342.256 0C315.605 0 294 21.3342 294 47.6514C294 73.9685 315.605 95.3027 342.256 95.3027Z" fill="#0875F7"/>
<path d="M342.256 86.3882C363.915 86.3882 381.473 69.0452 381.473 47.6514C381.473 26.2577 363.915 8.91467 342.256 8.91467C320.597 8.91467 303.039 26.2577 303.039 47.6514C303.039 69.0452 320.597 86.3882 342.256 86.3882Z" fill="white"/>
<path d="M381.473 47.6514C381.473 48.6835 381.438 49.6977 381.349 50.7119C379.765 30.7831 362.826 15.0357 342.238 15.0357C321.651 15.0357 304.729 30.7831 303.128 50.7119C303.057 49.6977 303.003 48.6835 303.003 47.6514C303.003 26.2813 320.601 8.91467 342.221 8.91467C363.875 8.91467 381.473 26.2813 381.473 47.6514Z" fill="#CED3E6"/>
<path d="M342.256 51.6727C341.954 51.6727 341.651 51.5304 341.473 51.2812L322.238 25.694C321.918 25.2669 322.007 24.662 322.434 24.3417C322.861 24.0214 323.484 24.1103 323.804 24.5374L342.577 49.5019L363.911 40.2492C364.409 40.0357 364.979 40.2492 365.21 40.7474C365.424 41.2456 365.21 41.815 364.712 42.0285L342.665 51.5837C342.523 51.6549 342.381 51.6727 342.256 51.6727Z" fill="#39393B"/>
</svg>
