<svg width="355" height="350" viewBox="0 0 355 350" fill="none" xmlns="http://www.w3.org/2000/svg">
<path d="M172.331 349.784C267.041 349.784 343.82 345.262 343.82 339.683C343.82 334.104 267.041 329.582 172.331 329.582C77.62 329.582 0.841797 334.104 0.841797 339.683C0.841797 345.262 77.62 349.784 172.331 349.784Z" fill="#CED3E6"/>
<path d="M239.563 344.415C185.993 342.53 130.579 335.211 101.891 236.385C93.3588 207.005 98.9041 184.762 108.267 167.992C110.579 163.845 113.125 160.049 115.748 156.552C116.735 155.239 117.735 153.965 118.735 152.73C139.669 127.029 174.772 117.812 205.901 129.174C223.355 135.544 245.744 144.956 265.705 157.202C305.808 181.811 315.223 209.865 328.327 257.978C329.456 262.112 330.573 266.74 331.43 271.667C331.885 274.293 332.262 277.01 332.521 279.766C335.43 310.537 323.573 347.366 239.563 344.415Z" fill="#39393B"/>
<path d="M332.521 279.766C330.742 284.771 328.21 289.867 324.833 294.703C314.703 309.237 293.6 326.787 250.64 327.931C248.744 327.983 246.887 328.009 245.043 328.009C228.628 328.009 214.148 326.02 200.914 321.977C187.071 317.752 174.993 311.356 163.98 302.464C145.578 287.592 130.397 265.843 114.8 231.952C108.631 218.562 105.436 204.99 105.307 191.613C105.229 183.644 106.216 175.727 108.28 168.005C110.592 163.858 113.137 160.062 115.761 156.565C115.098 158.099 114.449 159.711 113.839 161.388C108.229 176.793 104.359 201.311 117.826 230.561C145.215 290.062 176.967 326.54 250.562 324.616C292.146 323.524 312.431 306.715 322.119 292.818C327.184 285.564 330.041 278.219 331.443 271.68C331.885 274.293 332.262 277.01 332.521 279.766Z" fill="#585859"/>
<path d="M255.887 97.3892C255.887 97.3892 289.523 143.071 297.198 165.834C304.873 188.584 286.25 204.756 286.25 204.756L268.952 211.256C268.952 211.243 251.173 130.903 255.887 97.3892Z" fill="#084FC7"/>
<path d="M252.913 225.361C238.212 230.236 202.291 243.028 186.694 237.854C186.032 237.633 185.422 237.386 184.837 237.1C183.136 236.268 181.772 235.15 180.811 233.694C174.695 224.373 168.63 185.256 171.357 162.272C171.695 159.399 171.864 156.279 171.916 153.003C171.993 148.18 171.838 143.019 171.63 137.832C170.864 118.306 167.786 104.825 176.136 100.08C183.629 95.8162 193.11 92.4882 199.149 91.0452C202.889 90.1482 209.018 88.2762 213.317 88.3542L231.914 91.7342C231.914 91.7342 247.965 94.4122 251.667 97.1552C255.368 99.8852 257.264 111.936 263.952 122.973C270.64 134.01 272.095 145.086 265.705 157.202C260.147 167.745 261.121 163.741 260.394 181.031C259.498 202.221 281.627 215.832 252.913 225.361Z" fill="white"/>
<g opacity="0.8">
<g opacity="0.8">
<path opacity="0.8" d="M203.538 126.08C203.538 126.08 223.693 120.867 249.42 125.677L250.043 143.474C250.043 143.474 221.758 140.328 203.941 144.865L203.538 126.08Z" fill="#CED3E6"/>
</g>
</g>
<g opacity="0.8">
<path opacity="0.8" d="M226.693 111.052C226.42 111.052 226.148 111.039 225.862 111.026C214.849 110.454 204.746 100.73 204.33 100.314C204.031 100.028 204.031 99.5471 204.317 99.2481C204.603 98.9491 205.083 98.9491 205.382 99.2351C205.486 99.3261 215.499 108.985 225.94 109.518C235.94 110.051 237.147 100.119 237.199 99.6901C237.251 99.2741 237.615 98.9751 238.031 99.0271C238.446 99.0661 238.745 99.4431 238.693 99.8591C238.693 99.9631 237.368 111.052 226.693 111.052Z" fill="#CED3E6"/>
</g>
<g opacity="0.8">
<path opacity="0.8" d="M195.473 200.141C195.395 200.076 195.33 200.011 195.265 199.92C195.045 199.543 195.162 199.062 195.525 198.841C209.849 190.157 223.589 187.102 232.589 186.062C242.368 184.931 248.667 185.841 248.926 185.88C249.355 185.945 249.654 186.348 249.589 186.777C249.524 187.206 249.121 187.505 248.693 187.44C248.628 187.427 242.29 186.517 232.706 187.635C223.875 188.662 210.382 191.678 196.33 200.193C196.071 200.362 195.733 200.336 195.473 200.141Z" fill="#CED3E6"/>
</g>
<path d="M214.2 232.446C200.966 228.247 188.993 219.797 180.824 212.27C180.175 211.672 179.551 211.087 178.954 210.502C174.72 206.381 171.734 208.5 170.435 206.134C165.487 197.073 168.292 161.518 170.435 148.453C172.578 135.401 163.578 111.481 168.422 102.927C173.266 94.3731 189.954 91.3831 189.954 91.3831C189.954 91.3831 187.59 88.6271 192.071 85.4681C196.551 82.3091 208.473 83.6221 208.473 83.6221C209.044 140.12 217.031 192.614 214.2 232.446Z" fill="#0875F7"/>
<path d="M201.187 216.248C200.824 216.248 200.512 215.988 200.46 215.624C194.434 176.429 200.395 102.693 200.46 101.952C200.499 101.549 200.85 101.25 201.252 101.276C201.655 101.315 201.967 101.666 201.928 102.069C201.863 102.81 195.928 176.364 201.928 215.39C201.993 215.793 201.707 216.17 201.304 216.235C201.265 216.235 201.226 216.248 201.187 216.248Z" fill="white"/>
<path d="M213.304 222.124C212.953 222.124 212.641 221.877 212.577 221.513C204.694 176.494 204.07 98.8061 204.07 98.0261C204.07 97.6231 204.395 97.2852 204.798 97.2852C205.2 97.2852 205.538 97.6102 205.538 98.0132C205.538 98.7932 206.174 176.351 214.031 221.253C214.096 221.656 213.836 222.033 213.434 222.111C213.382 222.124 213.343 222.124 213.304 222.124Z" fill="#084FC7"/>
<path d="M200.226 97.5711C200.161 97.5711 200.096 97.558 200.031 97.545C193.798 95.881 189.98 92.2021 189.811 92.0461C189.525 91.7601 189.512 91.292 189.798 91.006C190.083 90.72 190.551 90.707 190.837 90.993C190.876 91.032 194.551 94.568 200.395 96.128C200.784 96.232 201.018 96.635 200.914 97.038C200.849 97.363 200.551 97.5711 200.226 97.5711Z" fill="#084FC7"/>
<path d="M271.536 207.772C271.536 207.772 266.822 223.671 249.264 231.25C247.082 188.142 242.147 138.911 235.771 86.5472C235.771 86.5472 242.485 85.3642 245.277 89.2122C246.485 90.8632 246.745 93.6713 246.745 93.6713C246.745 93.6713 250.173 94.3342 253.926 96.0892C257.679 97.8442 257.251 100.249 258.147 106.359C259.043 112.469 268.471 121.92 271.536 134.725C274.601 147.53 266.471 155.694 263.939 166.445C261.394 177.17 271.536 207.772 271.536 207.772Z" fill="#0875F7"/>
<path d="M256.459 214.441C256.056 214.441 255.731 214.129 255.718 213.726C254.017 155.083 243.316 102.68 243.212 102.16C243.134 101.757 243.381 101.367 243.784 101.289C244.186 101.211 244.576 101.458 244.654 101.861C244.757 102.381 255.484 154.901 257.186 213.687C257.199 214.09 256.874 214.441 256.472 214.441C256.472 214.441 256.471 214.441 256.459 214.441Z" fill="white"/>
<path d="M240.303 99.1961C239.953 99.1961 239.641 98.9361 239.576 98.5851C239.511 98.1821 239.784 97.8051 240.173 97.7271C240.225 97.7141 244.952 96.8561 246.03 93.4371C246.147 93.0471 246.563 92.8261 246.952 92.9561C247.342 93.0731 247.55 93.489 247.433 93.879C246.069 98.169 240.641 99.1441 240.42 99.1831C240.381 99.1961 240.342 99.1961 240.303 99.1961Z" fill="#084FC7"/>
<path d="M254.745 214.441C254.381 214.441 254.056 214.168 254.017 213.791C248.823 170.553 240.615 101.458 240.537 100.769C240.485 100.366 240.784 100.002 241.186 99.9502C241.589 99.8982 241.953 100.197 242.005 100.6C242.083 101.289 250.29 170.397 255.485 213.622C255.537 214.025 255.251 214.389 254.835 214.441C254.796 214.441 254.771 214.441 254.745 214.441Z" fill="#084FC7"/>
<path d="M211.122 245.485C213.369 247.097 216.901 248.774 222.213 250.464C252.342 260.058 279.964 244.575 279.964 244.575C281.64 236.32 280.601 226.934 277.822 223.489C278.692 222.267 278.12 220.811 278.12 220.811L305.847 192.003C290.081 205.081 270.575 209.358 255.394 218.549C255.394 218.549 255.394 218.549 255.381 218.549C251.004 221.201 247.069 223.528 244.186 225.153C239.784 227.623 234.173 227.87 228.667 227.103C217.94 225.621 207.655 220.33 207.655 220.33C207.655 220.33 173.123 204.665 166.656 205.185C161.63 205.575 188.72 233.889 211.122 245.485Z" fill="#21B573"/>
<path d="M264.484 269.626C264.484 269.626 255.601 267.065 252.861 264.179L246.679 278.739L267.705 285.304C267.718 285.304 268.003 272.525 264.484 269.626Z" fill="#EA9B7A"/>
<path d="M315.223 311.694L288.042 251.309C287.029 251.231 285.756 251.504 284.327 252.024C279.055 253.948 271.639 259.252 266.873 262.359C266.315 262.723 265.795 263.061 265.315 263.36C264.51 263.854 263.821 264.244 263.302 264.491C259.107 266.376 261.315 268.638 261.315 268.638C269.133 272.551 264.367 284.147 269.133 286.851C269.133 286.851 271.159 288.034 277.626 290.881C284.094 293.728 290.6 300.605 296.626 306.234C304.405 313.514 309.288 314.359 312.08 313.696C314.314 313.176 315.223 311.694 315.223 311.694Z" fill="#EBB12B"/>
<path d="M315.222 311.694L288.041 251.309C287.028 251.231 285.756 251.504 284.327 252.024L312.08 313.696C314.313 313.176 315.222 311.694 315.222 311.694Z" fill="#C77E2E"/>
<path d="M290.82 257.471L290.015 255.677C288.782 258.394 286.392 261.475 281.821 263.282C275.73 265.674 270.094 263.906 266.886 262.372C266.328 262.736 265.808 263.074 265.328 263.373C268.587 265.128 275.094 267.624 282.392 264.764C286.756 263.022 289.314 260.175 290.82 257.471Z" fill="#C77E2E"/>
<path d="M280.73 288.255C280.535 287.813 280.042 287.54 279.535 287.631C278.938 287.735 278.548 288.307 278.652 288.905L279.418 293.104C279.522 293.702 280.094 294.092 280.691 293.988C281.288 293.884 281.678 293.312 281.574 292.714L280.808 288.515C280.795 288.424 280.769 288.333 280.73 288.255Z" fill="white"/>
<path d="M275.912 285.915C275.717 285.473 275.224 285.2 274.717 285.291C274.12 285.395 273.73 285.967 273.834 286.565L274.6 290.764C274.704 291.362 275.276 291.752 275.873 291.648C276.47 291.544 276.86 290.972 276.756 290.374L275.99 286.175C275.977 286.084 275.951 285.993 275.912 285.915Z" fill="white"/>
<path d="M284.626 291.037C284.431 290.595 283.938 290.322 283.431 290.413C282.834 290.517 282.444 291.089 282.548 291.687L283.314 295.886C283.418 296.484 283.99 296.874 284.587 296.77C285.184 296.666 285.574 296.094 285.47 295.496L284.704 291.297C284.678 291.206 284.652 291.115 284.626 291.037Z" fill="white"/>
<path d="M288.431 293.858C288.236 293.416 287.743 293.143 287.236 293.234C286.639 293.338 286.249 293.91 286.353 294.508L287.119 298.707C287.223 299.305 287.795 299.695 288.392 299.591C288.989 299.487 289.379 298.915 289.275 298.317L288.509 294.118C288.483 294.027 288.457 293.936 288.431 293.858Z" fill="white"/>
<path d="M292.223 297.095C292.029 296.653 291.535 296.38 291.029 296.471C290.431 296.575 290.042 297.147 290.146 297.745L290.912 301.944C291.016 302.542 291.587 302.932 292.185 302.828C292.782 302.724 293.172 302.152 293.068 301.554L292.301 297.355C292.288 297.264 292.262 297.173 292.223 297.095Z" fill="white"/>
<path d="M295.886 300.813C295.691 300.371 295.197 300.098 294.691 300.189C294.093 300.293 293.704 300.865 293.808 301.463L294.574 305.662C294.678 306.26 295.249 306.65 295.847 306.546C296.444 306.442 296.834 305.87 296.73 305.272L295.964 301.073C295.951 300.969 295.925 300.891 295.886 300.813Z" fill="white"/>
<path d="M166.656 205.172C166.656 205.172 144.799 193.368 132.15 202.494C109.008 219.186 148.279 251.283 193.213 266.961C238.147 282.639 252.731 280.494 252.731 280.494C252.731 280.494 262.497 277.803 259.03 261.969C259.03 261.969 233.134 252.115 219.654 241.793C206.174 231.471 196.992 218.822 166.656 205.172Z" fill="#21B573"/>
<path d="M257.277 266.584C247.848 264.322 228.654 255.495 205.914 243.002C188.902 233.655 169.292 221.708 166.409 217.561C164.851 215.325 164.461 213.492 165.24 212.114C166.409 210.06 169.786 209.852 171.318 209.865C171.708 209.865 172.019 210.203 171.993 210.593C171.967 210.957 171.669 211.23 171.305 211.23C169.798 211.217 167.162 211.477 166.422 212.79C165.799 213.882 166.682 215.559 167.526 216.768C169.85 220.109 186.266 230.639 206.564 241.793C224.044 251.4 246.628 262.606 257.588 265.245L257.277 266.584Z" fill="#217C58"/>
<path d="M255.497 259.876C254.432 268.196 252.277 275.762 247.588 281.573C247.588 281.573 251.614 284.472 255.289 282.392C258.095 280.806 263.51 267.806 261.445 260.864C259.095 259.564 257.069 259.122 255.497 259.876Z" fill="#217C58"/>
<path d="M198.486 267.988C198.486 267.988 207.421 266.259 209.953 263.191L217.083 277.296L196.551 285.252C196.538 285.265 195.162 271.108 198.486 267.988Z" fill="#EA9B7A"/>
<path d="M150.903 314.762L173.993 252.7C175.006 252.544 176.279 252.739 177.746 253.168C183.136 254.741 190.889 259.525 195.85 262.32C196.434 262.645 196.967 262.944 197.473 263.204C198.317 263.646 199.018 263.997 199.564 264.192C203.875 265.791 202.083 267.013 202.083 267.013C193.59 271.004 199.811 283.874 195.239 286.903C195.239 286.903 193.291 288.216 187.032 291.492C180.772 294.768 174.733 302.061 169.097 308.08C161.825 315.854 157.007 317.037 154.175 316.556C151.916 316.179 150.903 314.762 150.903 314.762Z" fill="#EBB12B"/>
<path d="M150.903 314.762L173.993 252.7C175.006 252.544 176.279 252.739 177.746 253.168L154.162 316.556C151.916 316.179 150.903 314.762 150.903 314.762Z" fill="#C77E2E"/>
<path d="M171.629 259.031L172.318 257.185C173.733 259.811 176.318 262.736 181.006 264.218C187.239 266.207 192.746 264.062 195.849 262.307C196.434 262.632 196.966 262.931 197.473 263.191C194.343 265.167 188.006 268.092 180.538 265.713C176.058 264.296 173.305 261.631 171.629 259.031Z" fill="#C77E2E"/>
<path d="M183.746 289.074C183.915 288.619 184.383 288.307 184.889 288.372C185.486 288.437 185.915 288.983 185.85 289.581L185.37 293.819C185.305 294.417 184.759 294.846 184.162 294.781C183.564 294.716 183.136 294.17 183.201 293.572L183.681 289.334C183.694 289.243 183.72 289.152 183.746 289.074Z" fill="white"/>
<path d="M188.408 286.422C188.577 285.967 189.045 285.655 189.551 285.72C190.149 285.785 190.577 286.331 190.512 286.929L190.032 291.167C189.967 291.765 189.421 292.194 188.824 292.129C188.227 292.064 187.798 291.518 187.863 290.92L188.343 286.682C188.356 286.591 188.382 286.5 188.408 286.422Z" fill="white"/>
<path d="M180.058 292.103C180.227 291.648 180.694 291.349 181.201 291.401C181.798 291.466 182.227 292.012 182.162 292.61L181.681 296.848C181.616 297.446 181.071 297.875 180.473 297.81C179.876 297.745 179.447 297.199 179.512 296.601L179.993 292.363C180.006 292.272 180.019 292.194 180.058 292.103Z" fill="white"/>
<path d="M176.447 295.184C176.616 294.729 177.084 294.43 177.59 294.482C178.188 294.547 178.616 295.093 178.551 295.691L178.071 299.929C178.006 300.527 177.46 300.956 176.863 300.891C176.266 300.826 175.837 300.28 175.902 299.682L176.383 295.444C176.395 295.353 176.421 295.262 176.447 295.184Z" fill="white"/>
<path d="M172.876 298.655C173.045 298.2 173.512 297.901 174.019 297.953C174.616 298.018 175.045 298.564 174.98 299.162L174.499 303.4C174.435 303.998 173.889 304.427 173.292 304.362C172.694 304.297 172.266 303.751 172.331 303.153L172.811 298.915C172.824 298.824 172.85 298.746 172.876 298.655Z" fill="white"/>
<path d="M169.461 302.607C169.63 302.152 170.097 301.84 170.603 301.905C171.201 301.97 171.629 302.516 171.565 303.114L171.084 307.352C171.019 307.95 170.474 308.379 169.876 308.314C169.279 308.249 168.85 307.703 168.915 307.105L169.396 302.867C169.409 302.776 169.435 302.685 169.461 302.607Z" fill="white"/>
<path d="M296.938 195.591C296.938 195.591 317.613 181.824 331.054 189.754C355.638 204.249 319.47 239.817 276.159 259.551C232.862 279.285 218.135 278.492 218.135 278.492C218.135 278.492 208.174 276.711 210.161 260.617C210.161 260.617 235.044 248.423 247.524 236.905C260.004 225.4 267.991 211.958 296.938 195.591Z" fill="#21B573"/>
<path d="M259.121 266.974C256.731 267.754 254.316 268.547 251.809 269.34C242.121 272.395 231.057 275.593 221.044 278.05L221.005 279.48C230.057 277.27 240.667 274.28 252.212 270.64C254.471 269.925 256.77 269.184 259.082 268.417L259.121 266.974Z" fill="#217C58"/>
<path d="M212.343 265.05C221.524 261.93 239.836 251.387 261.329 236.853C277.406 225.985 295.847 212.283 298.328 207.889C299.665 205.523 299.899 203.664 298.99 202.364C297.639 200.427 294.263 200.518 292.73 200.674C292.341 200.713 292.055 201.077 292.12 201.467C292.185 201.818 292.497 202.065 292.86 202.039C294.367 201.896 297.003 201.909 297.873 203.144C298.587 204.171 297.873 205.926 297.146 207.213C295.146 210.749 279.757 222.735 260.562 235.722C244.043 246.889 222.576 260.123 211.901 263.763L212.343 265.05Z" fill="#217C58"/>
<path d="M213.486 258.212C215.304 266.402 218.148 273.734 223.355 279.09C223.355 279.09 219.615 282.353 215.771 280.611C212.836 279.285 206.252 266.831 207.668 259.733C209.888 258.238 211.862 257.601 213.486 258.212Z" fill="#217C58"/>
<path d="M210.694 192.536L209.031 216.287C209.031 216.287 180.811 212.257 166.967 208.721C162.929 207.694 158.409 206.368 154.253 204.158C146.604 200.089 140.267 193.004 140.734 179.198C140.877 174.765 141.734 169.643 143.475 163.689C153.552 129.2 170.435 100.236 170.435 100.236C192.162 109.544 190.33 125.04 190.33 125.04C184.136 141.589 170.435 176.832 170.435 176.832C178.396 186.569 210.694 192.536 210.694 192.536Z" fill="#0875F7"/>
<path d="M170.435 177.586C170.305 177.586 170.162 177.547 170.045 177.469C167.642 175.987 161.11 174.44 161.045 174.427C160.643 174.336 160.396 173.933 160.5 173.543C160.591 173.14 160.993 172.906 161.383 172.997C161.617 173.049 166.201 174.128 169.227 175.428C168.785 174.44 168.058 173.387 167.058 172.243C166.785 171.931 166.824 171.476 167.123 171.203C167.435 170.93 167.889 170.969 168.162 171.268C169.902 173.244 170.889 175.038 171.162 176.741C171.214 177.027 171.084 177.313 170.85 177.469C170.72 177.547 170.578 177.586 170.435 177.586Z" fill="#084FC7"/>
<path d="M154.253 204.171C146.604 200.102 140.267 193.017 140.734 179.211C146.799 182.383 157.357 190.066 154.253 204.171Z" fill="#084FC7"/>
<path d="M192.954 188.896C192.889 188.896 192.837 188.883 192.772 188.87C178.798 185.256 170.305 177.716 169.954 177.391C169.708 177.17 169.643 176.806 169.786 176.507C179.746 156.89 186.058 141.316 189.629 127.484C189.733 127.094 190.136 126.847 190.525 126.951C190.915 127.055 191.162 127.458 191.058 127.848C187.486 141.667 181.227 157.176 171.357 176.65C173.24 178.21 181.24 184.359 193.136 187.427C193.525 187.531 193.772 187.934 193.668 188.324C193.577 188.675 193.279 188.896 192.954 188.896Z" fill="#084FC7"/>
<path d="M187.356 138.495C187.2 138.495 187.032 138.443 186.902 138.339C186.577 138.079 186.525 137.624 186.785 137.299L191.967 130.786C192.226 130.461 192.681 130.409 193.005 130.669C193.33 130.929 193.382 131.384 193.122 131.709L187.941 138.222C187.785 138.391 187.564 138.495 187.356 138.495Z" fill="#084FC7"/>
<path d="M211.511 78.6172L236.576 82.2052C252.861 80.5802 258.043 74.0932 260.705 60.3912C262.043 53.5012 261.159 47.4172 259.848 42.8932C259.51 37.7452 258.328 33.2992 255.9 30.3612C244.9 17.0882 235.212 17.6082 235.212 17.6082C230.29 15.3462 214.031 13.7992 203.304 26.8382C202.966 27.1242 196.421 34.0662 194.914 48.6262C193.46 62.5232 202.719 80.2552 211.511 78.6172Z" fill="#39393B"/>
<path d="M225.511 21.2611C225.511 21.2611 228.122 -1.8789 207.603 1.0591C194.201 2.9701 185.902 21.1571 198.161 29.4121C210.408 37.6671 225.511 21.2611 225.511 21.2611Z" fill="#39393B"/>
<path d="M200.213 31.7911C200.109 31.7911 200.005 31.7651 199.902 31.7131C199.59 31.5441 199.473 31.1411 199.642 30.8291C204.395 22.1841 211.174 18.3621 216.018 16.6721C221.278 14.8521 225.368 15.0731 225.537 15.0731C225.901 15.0991 226.174 15.3981 226.148 15.7621C226.122 16.1261 225.823 16.3991 225.459 16.3731C225.303 16.3601 209.473 15.6321 200.785 31.4531C200.668 31.6611 200.447 31.7911 200.213 31.7911Z" fill="#EBB12B"/>
<path d="M213.473 73.404C213.473 73.404 197.486 64.447 200.629 45.805C203.772 27.163 216.031 15.944 234.823 21.352C234.823 21.352 233.005 75.237 213.473 73.404Z" fill="#39393B"/>
<path d="M257.939 39.123C257.939 39.123 259.575 55.126 256.653 57.44C253.744 59.754 250.887 53.423 250.887 53.423C250.887 53.423 254.861 39.305 257.939 39.123Z" fill="#39393B"/>
<path d="M250.575 58.896C250.575 58.896 255.342 54.71 256.926 59.845C258.51 64.98 255.303 74.4311 249.368 71.9221L250.575 58.896Z" fill="#D46A43"/>
<path d="M256.446 70.752C255.796 71.35 255.069 71.87 254.277 72.299C251.277 73.911 247.368 74.106 242.667 71.636C242.667 71.636 236.654 63.81 245.537 50.004C245.537 50.004 253.68 47.859 258.342 52.786C258.861 53.332 259.329 53.956 259.744 54.684C260.004 55.126 260.225 55.607 260.433 56.127C262.082 60.326 260.549 67.021 256.446 70.752Z" fill="#21B573"/>
<path d="M256.225 51.109C256.602 49.263 256.978 46.975 257.225 44.44C257.108 44.492 256.991 44.531 256.861 44.531C256.355 44.57 255.861 44.362 255.368 43.998C255.147 46.364 254.809 48.509 254.472 50.29L256.225 51.109Z" fill="white"/>
<path d="M256.446 70.7521C255.796 71.3501 255.069 71.8701 254.277 72.2991C258.394 63.7581 258.511 55.9581 258.342 52.7861C258.861 53.3321 259.329 53.9561 259.744 54.6841C259.744 58.2721 259.199 64.1741 256.446 70.7521Z" fill="#217C58"/>
<path d="M236.68 81.984L234.719 95.218C234.719 95.218 226.628 105.605 207.901 88.666C210.031 83.284 213.304 76.355 212.46 71.051C212.46 71.051 213.823 72.312 216.187 73.807C216.667 74.119 217.187 74.444 217.732 74.769C222.589 77.72 230.018 81.516 236.68 81.984Z" fill="#EA9B7A"/>
<path d="M236.68 81.9839L235.758 88.1719C230.29 86.0659 220.836 81.5029 216.174 73.7939C216.654 74.1059 217.174 74.4309 217.719 74.7559C222.589 77.7199 230.018 81.5159 236.68 81.9839Z" fill="#39393B"/>
<path d="M254.64 59.4811C254.432 60.8461 254.238 62.1331 254.03 63.3551C252.523 72.4811 251.147 77.3951 248.614 79.3451C235.796 89.1861 213.2 71.7921 212.472 71.2331C212.459 71.2201 212.459 71.2201 212.459 71.2201C212.382 70.1541 212.33 69.1011 212.304 68.0741C212.005 59.2861 213.083 51.3301 215.083 43.9071C215.849 35.8861 221.68 29.1781 229.563 27.5661C237.731 25.9021 244.173 30.3481 248.16 32.2461C254.173 35.1321 256.926 43.8811 255.238 55.5031C255.03 56.8941 254.835 58.2201 254.64 59.4811Z" fill="#EA9B7A"/>
<path d="M243.186 70.1151C236.017 70.1151 233.147 63.2511 233.121 63.1731C232.991 62.8351 233.147 62.4581 233.485 62.3281C233.823 62.1981 234.199 62.3541 234.329 62.6921C234.459 62.9911 237.459 70.1151 245.277 68.6071C245.627 68.5421 245.965 68.7761 246.043 69.1271C246.108 69.4781 245.874 69.8161 245.524 69.8941C244.692 70.0371 243.913 70.1151 243.186 70.1151Z" fill="#39393B"/>
<path d="M237.667 45.3372C239.511 44.7002 239.134 41.9832 237.186 41.8532C233.874 41.6452 228.55 41.7232 228.108 44.4012C227.459 48.3142 233.641 46.6892 237.55 45.3762C237.589 45.3632 237.628 45.3502 237.667 45.3372Z" fill="#39393B"/>
<path d="M247.446 46.4941C246.017 45.1681 247.459 42.8281 249.29 43.5041C252.407 44.6481 257.251 46.8711 256.575 49.4971C255.601 53.3451 250.588 49.3541 247.537 46.5851C247.498 46.5461 247.472 46.5201 247.446 46.4941Z" fill="#39393B"/>
<path d="M237.9 73.3131C239.212 73.6381 240.316 73.3911 240.394 73.3651C240.627 73.3131 240.77 73.0791 240.718 72.8451C240.666 72.6111 240.433 72.4681 240.199 72.5201C240.173 72.5201 238.03 73.0011 236.407 71.5711C236.225 71.4151 235.952 71.4281 235.796 71.6101C235.641 71.7921 235.654 72.0651 235.835 72.2211C236.498 72.8191 237.225 73.1441 237.9 73.3131Z" fill="#D46A43"/>
<path d="M242.394 64.3952C242.277 64.3432 242.199 64.2392 242.147 64.1222C242.069 63.8752 242.199 63.6022 242.446 63.5242L245.576 62.4972L243.718 60.6122C243.615 60.5082 243.563 60.3652 243.589 60.2222L244.16 55.0352C244.186 54.7752 244.42 54.5802 244.692 54.6192C244.952 54.6452 245.147 54.8792 245.108 55.1392L244.55 60.0922L246.783 62.3542C246.9 62.4712 246.952 62.6402 246.913 62.7962C246.874 62.9522 246.757 63.0822 246.601 63.1342L242.744 64.4082C242.628 64.4732 242.511 64.4602 242.394 64.3952Z" fill="#39393B"/>
<path d="M234.29 59.4422C234.134 60.5212 231.784 61.0543 229.057 60.6513C226.329 60.2483 224.239 59.0392 224.407 57.9602C224.563 56.8812 226.914 56.3483 229.641 56.7513C232.355 57.1673 234.446 58.3632 234.29 59.4422Z" fill="#D46A43"/>
<g opacity="0.8">
<g opacity="0.8">
<g opacity="0.8">
<g opacity="0.8">
<g opacity="0.8">
<g opacity="0.8">
<g opacity="0.8">
<g opacity="0.8">
<g opacity="0.8">
<g opacity="0.8">
<g opacity="0.8">
<path opacity="0.8" d="M254.64 60.742C254.433 62.107 254.238 63.394 254.03 64.616C251.537 64.148 249.705 63.017 249.861 62.016C250.004 60.989 252.108 60.456 254.64 60.742Z" fill="#D46A43"/>
</g>
</g>
</g>
</g>
</g>
</g>
</g>
</g>
</g>
</g>
</g>
<path d="M236.952 55.5941C236.732 57.0761 235.888 58.1681 235.056 58.0511C234.225 57.9341 233.745 56.6341 233.953 55.1521C234.173 53.6701 235.018 52.5781 235.849 52.6951C236.68 52.8121 237.173 54.1121 236.952 55.5941Z" fill="#39393B"/>
<path d="M251.55 57.765C251.329 59.247 250.485 60.339 249.654 60.222C248.823 60.105 248.342 58.805 248.55 57.323C248.771 55.841 249.615 54.749 250.446 54.866C251.29 54.996 251.77 56.296 251.55 57.765Z" fill="#39393B"/>
<path d="M218.174 65.9551C218.083 66.1111 215.472 70.3231 212.473 71.2331C212.46 71.2201 212.46 71.2201 212.46 71.2201C212.382 70.1541 212.33 69.1011 212.304 68.0741C212.408 68.0611 215.291 67.9831 218.174 65.9551Z" fill="#39393B"/>
<path d="M216.992 55.2822C216.992 55.2822 212.265 46.4682 207.018 52.0582C202.694 56.6602 207.369 71.3502 215.33 67.4242L216.992 55.2822Z" fill="#EA9B7A"/>
<path d="M214.719 65.0192C214.408 64.9672 214.187 64.7072 214.2 64.3822C214.434 58.2722 209.72 55.4382 209.525 55.3212C209.239 55.1522 209.135 54.7752 209.304 54.4762C209.473 54.1772 209.849 54.0862 210.148 54.2552C210.369 54.3852 215.706 57.5701 215.434 64.4341C215.421 64.7721 215.135 65.0322 214.797 65.0192C214.758 65.0192 214.745 65.0192 214.719 65.0192Z" fill="#39393B"/>
<path d="M209.602 60.4822C209.421 60.4562 209.265 60.3522 209.161 60.1832C208.992 59.8972 209.083 59.5202 209.382 59.3382C209.654 59.1822 212.083 57.7782 213.836 58.5192C214.148 58.6492 214.291 59.0132 214.161 59.3252C214.031 59.6372 213.667 59.7802 213.356 59.6502C212.343 59.2212 210.55 60.0662 210.005 60.3912C209.875 60.4822 209.732 60.5082 209.602 60.4822Z" fill="#39393B"/>
<path d="M231.628 63.3552C227.005 61.5872 224.68 56.3872 226.446 51.7592C228.213 47.1312 233.407 44.8042 238.03 46.5722C242.654 48.3402 244.978 53.5402 243.212 58.1682C241.446 62.7962 236.251 65.1232 231.628 63.3552ZM237.563 47.7942C233.615 46.2862 229.174 48.2752 227.667 52.2272C226.161 56.1792 228.148 60.6252 232.096 62.1332C236.044 63.6412 240.485 61.6522 241.991 57.7002C243.498 53.7482 241.511 49.3022 237.563 47.7942Z" fill="white"/>
<path d="M226.732 52.9553C226.654 52.9553 226.576 52.9293 226.498 52.8903C221.641 50.6673 217.083 52.3573 217.031 52.3833C216.693 52.5133 216.317 52.3443 216.187 52.0063C216.057 51.6683 216.226 51.2913 216.563 51.1613C216.771 51.0833 221.693 49.2503 227.044 51.7073C227.368 51.8633 227.511 52.2533 227.368 52.5783C227.238 52.8253 226.992 52.9683 226.732 52.9553Z" fill="white"/>
<path d="M251.484 65.6042C246.861 63.8362 244.537 58.6362 246.303 54.0082C248.069 49.3802 253.264 47.0532 257.887 48.8212C262.51 50.5892 264.835 55.7892 263.069 60.4172C261.315 65.0452 256.108 67.3722 251.484 65.6042ZM257.432 50.0432C253.484 48.5352 249.043 50.5242 247.537 54.4762C246.03 58.4282 248.017 62.8742 251.965 64.3822C255.913 65.8902 260.354 63.9012 261.861 59.9492C263.354 55.9972 261.38 51.5512 257.432 50.0432Z" fill="white"/>
<path d="M242.796 54.3592C242.692 54.3072 242.615 54.2292 242.55 54.1252C242.355 53.8132 242.446 53.4102 242.757 53.2152C242.848 53.1632 245.03 51.8242 247.303 53.5662C247.588 53.7872 247.64 54.2032 247.42 54.4892C247.199 54.7752 246.783 54.8272 246.498 54.6062C244.939 53.4102 243.459 54.3202 243.446 54.3202C243.238 54.4632 242.991 54.4632 242.796 54.3592Z" fill="white"/>
<path d="M247.601 24.173C253.056 26.63 257.341 31.18 259.25 36.848C260.445 40.397 261.445 45.0899 256.458 44.4789C242.848 42.8279 235.563 28.6839 235.563 28.6839C235.563 28.6839 232.914 41.7099 222.225 40.1239C211.537 38.5249 211.875 30.4649 217.953 25.9019C222.901 22.1839 235.511 18.726 247.601 24.173Z" fill="#39393B"/>
<path d="M222.641 38.6291C222.641 38.6291 216.564 45.1681 218.745 52.2011C220.927 59.2341 221.07 64.876 218.797 68.659C218.797 68.659 218.213 61.2491 215.499 55.6331C213.278 51.0181 211.2 47.5081 212.81 42.1911C213.901 38.5381 216.577 35.0411 222.641 38.6291Z" fill="#39393B"/>
<path d="M212.758 70.5311C208.044 71.6751 204.395 71.0121 201.694 69.3091C201.265 69.0361 200.863 68.7371 200.473 68.4251C194.811 63.6801 194.395 53.8392 197.863 49.0162C199.083 47.3132 200.499 46.1692 201.992 45.4412C202.447 45.2072 202.902 45.0251 203.356 44.8821C209.213 42.9581 215.564 46.4811 215.564 46.4811C222.2 64.7721 212.758 70.5311 212.758 70.5311Z" fill="#21B573"/>
<path d="M229.343 78.5391C215.564 75.7181 209.707 65.7861 209.434 65.3051C209.213 64.9281 209.343 64.4341 209.733 64.2131C210.109 63.9921 210.603 64.1221 210.824 64.5121C210.914 64.6681 218.07 76.7061 234.771 77.6161C235.212 77.6421 235.55 78.0191 235.524 78.4611C235.498 78.9031 235.122 79.2411 234.68 79.2151C232.784 79.1111 231.005 78.8771 229.343 78.5391Z" fill="white"/>
<path d="M239.16 79.0071C238.875 80.3851 237.524 81.2822 236.148 80.9962C234.771 80.7102 233.875 79.3582 234.161 77.9802C234.446 76.6022 235.797 75.7052 237.173 75.9912C238.55 76.2642 239.446 77.6161 239.16 79.0071Z" fill="#243434"/>
<path d="M201.694 69.322C201.265 69.049 200.863 68.75 200.473 68.438C204.837 58.558 203.356 49.926 201.98 45.454C202.434 45.22 202.889 45.038 203.343 44.895C204.811 49.627 206.421 58.844 201.694 69.322Z" fill="#217C58"/>
<path d="M257.627 33.1431C256.471 30.9721 255.186 29.5291 254.549 28.8141C254.017 27.2671 253.445 25.8111 252.588 24.4591C249.705 19.8831 245.147 17.0751 239.017 16.1261C232.407 15.0991 226.667 16.4121 221.966 20.0131C220.498 21.1311 219.2 22.4441 218.031 23.8481C216.42 25.8111 215.083 27.9821 213.992 30.1531C210.2 37.7451 209.291 45.5451 209.278 45.6491L207.473 45.4541C207.551 44.7131 209.589 27.1891 220.849 18.5571C225.953 14.6441 232.16 13.2141 239.29 14.3191C245.965 15.3461 250.952 18.4401 254.121 23.4841C255.965 26.4091 257.056 29.7371 257.627 33.1431Z" fill="white"/>
<path d="M189.109 233.213L182.824 221.253C181.253 218.276 183.447 214.701 186.811 214.727L285.548 215.793L282.639 231.107L189.109 233.213Z" fill="#39393B"/>
<path d="M280.925 229.846H192.564C190.434 229.846 188.889 228.117 189.135 225.985L195.161 171.333C195.395 169.201 197.317 167.472 199.447 167.472H287.808C289.938 167.472 291.483 169.201 291.236 171.333L285.211 225.985C284.977 228.117 283.055 229.846 280.925 229.846Z" fill="#39393B"/>
<path d="M191.252 232.199C191.227 232.199 191.188 232.199 191.162 232.199C190.759 232.147 190.46 231.77 190.512 231.367L197.85 172.841C197.902 172.438 198.278 172.139 198.681 172.191C199.083 172.243 199.382 172.62 199.33 173.023L191.993 231.549C191.941 231.926 191.616 232.199 191.252 232.199Z" fill="#564C54"/>
<path d="M234.238 199.634C233.9 204.028 237.134 207.811 241.446 208.084C245.77 208.357 249.549 205.029 249.887 200.635C250.225 196.241 246.991 192.458 242.679 192.185C238.355 191.899 234.576 195.24 234.238 199.634Z" fill="#585859"/>
<path d="M281.354 234.604H191.772C189.798 234.604 188.291 232.862 188.551 230.912L189.408 224.659H285.549L284.575 231.783C284.354 233.408 282.977 234.604 281.354 234.604Z" fill="#39393B"/>
<path d="M216.434 216.963L215.784 220.083H218.732L218.408 223.801H214.992L214.278 227.194H210.369L211.083 223.801H208.668L207.953 227.194H204.044L204.759 223.801H201.811L202.135 220.096H205.551L206.2 216.976H203.252L203.577 213.258H206.992L207.706 209.865H211.615L210.901 213.258H213.317L214.031 209.865H217.94L217.226 213.258H220.174L219.849 216.976L216.434 216.963ZM212.538 216.963H210.122L209.473 220.083H211.888L212.538 216.963Z" fill="#EBB12B"/>
<path d="M305.704 130.591C305.704 144.059 316.613 154.992 330.08 154.992C343.534 154.992 354.456 144.072 354.456 130.591C354.456 117.123 343.547 106.19 330.08 106.19C316.613 106.19 305.704 117.11 305.704 130.591Z" fill="#DF615C"/>
<path d="M317.613 150.546L304.509 153.315L310.184 142.018L317.613 150.546Z" fill="#DF615C"/>
<path d="M332.145 125.352C332.145 124.208 331.041 123.623 329.677 123.623C328.093 123.623 326.626 124.585 325.846 126.132L319.288 122.856C321.171 119.32 324.885 116.889 330.781 116.889C336.56 116.889 340.872 119.32 340.872 123.935C340.872 129.577 334.976 130.565 334.976 133.412H327.392C327.392 128.927 332.145 127.601 332.145 125.352ZM326.327 139.21C326.327 136.74 328.314 134.855 331.184 134.855C334.054 134.855 336.041 136.74 336.041 139.21C336.041 141.641 334.054 143.63 331.184 143.63C328.314 143.63 326.327 141.641 326.327 139.21Z" fill="white"/>
<path d="M63.4506 269.236C63.4506 269.236 53.4898 253.571 29.3216 239.336C12.2442 229.287 2.29639 200.895 2.29639 200.895C2.29639 200.895 35.0098 202.325 49.2302 222.254C63.4506 242.196 63.4506 269.236 63.4506 269.236Z" fill="#21B573"/>
<path d="M63.5673 269.665C63.3466 269.665 63.1518 269.522 63.0998 269.301C58.5025 251.92 48.4379 239.323 40.8017 231.809C32.5292 223.671 25.2697 219.602 25.1917 219.563C24.958 219.433 24.8671 219.134 24.997 218.9C25.1268 218.666 25.4255 218.575 25.6592 218.705C25.7372 218.744 33.1136 222.878 41.477 231.12C49.2041 238.712 59.3856 251.465 64.0349 269.054C64.0998 269.314 63.944 269.587 63.6842 269.652C63.6453 269.652 63.6063 269.665 63.5673 269.665Z" fill="#39393B"/>
<path d="M59.1651 268.885C59.1651 268.885 56.321 263.191 43.5162 264.608C30.7113 266.038 23.6076 273.149 0.85498 260.331C0.85498 260.331 17.9195 246.096 36.4125 248.943C54.8925 251.803 56.321 258.914 59.1651 268.885Z" fill="#21B573"/>
<path d="M59.2302 269.366C59.0743 269.366 58.9055 269.288 58.8146 269.132C58.7627 269.041 53.0356 260.032 43.828 258.355C27.7375 255.43 16.7768 260.578 16.6729 260.63C16.4261 260.747 16.1404 260.643 16.0236 260.396C15.9067 260.149 16.0106 259.863 16.2573 259.746C16.3742 259.694 27.5947 254.403 44.0098 257.393C53.6459 259.148 59.412 268.222 59.6458 268.612C59.7886 268.846 59.7237 269.145 59.4899 269.288C59.399 269.353 59.3211 269.366 59.2302 269.366Z" fill="#39393B"/>
<path d="M64.7492 267.507C64.7492 267.507 63.6323 261.241 74.7489 254.728C85.8655 248.215 95.8133 249.671 106.423 225.79C106.423 225.79 84.2422 224.568 71.1126 237.906C57.9831 251.257 61.0869 257.809 64.7492 267.507Z" fill="#21B573"/>
<path d="M64.6975 268.027C64.4507 268.027 64.2299 267.832 64.2169 267.585C64.178 267.13 63.3858 256.405 70.0739 249.242C81.4632 237.035 93.6188 234.565 93.7356 234.539C93.9954 234.487 94.2551 234.656 94.3071 234.929C94.359 235.189 94.1902 235.449 93.9175 235.501C93.8006 235.527 81.9438 237.945 70.7752 249.905C64.3858 256.756 65.165 267.403 65.178 267.507C65.204 267.78 64.9962 268.014 64.7364 268.027C64.7234 268.027 64.7105 268.027 64.6975 268.027Z" fill="#39393B"/>
<path d="M77.8401 275.242H46.6721C44.8279 275.242 43.3345 273.734 43.3345 271.901V270.497C43.3345 268.651 44.8409 267.156 46.6721 267.156H77.8401C79.6842 267.156 81.1776 268.664 81.1776 270.497V271.901C81.1906 273.747 79.6842 275.242 77.8401 275.242Z" fill="#DF615C"/>
<path d="M62.4116 344.961C36.9837 344.961 20.8023 340.905 23.3996 322.978C25.0489 311.603 33.9188 300.449 40.1784 293.819C41.0615 292.883 41.8926 292.038 42.6329 291.297C44.9575 288.996 46.5159 287.683 46.5159 287.683L46.5938 287.267L47.0354 284.745L47.5418 281.846L48.7106 275.229L49.1132 272.915L62.4116 272.33L76.2813 272.915L76.593 275.229L77.0865 278.856L77.8917 284.732L78.2423 287.254L78.2943 287.67C78.2943 287.67 79.8657 288.996 82.1773 291.284C82.9305 292.025 83.7617 292.87 84.6447 293.806C90.9043 300.436 99.7742 311.577 101.424 322.965C104.021 340.918 87.8395 344.961 62.4116 344.961Z" fill="#DF615C"/>
<path d="M78.2426 287.28H46.5811L47.0226 284.758H77.8919L78.2426 287.28Z" fill="#A92F4B"/>
<path d="M84.6449 293.819H40.1655C41.0486 292.883 41.8798 292.038 42.62 291.297H82.1774C82.9306 292.051 83.7618 292.896 84.6449 293.819Z" fill="#A92F4B"/>
<path d="M77.0867 278.882L47.542 281.859L48.7108 275.242H76.5932L77.0867 278.882Z" fill="#A92F4B"/>
</svg>
