<svg width="502" height="492" viewBox="0 0 502 492" fill="none" xmlns="http://www.w3.org/2000/svg">
<path d="M260.337 491.507C392.129 491.507 498.967 485.99 498.967 479.183C498.967 472.377 392.129 466.859 260.337 466.859C128.545 466.859 21.707 472.377 21.707 479.183C21.707 485.99 128.545 491.507 260.337 491.507Z" fill="#CED3E6"/>
<path d="M415.541 479.118H98.874V465.39C98.874 453.963 108.134 444.694 119.549 444.694H394.866C406.281 444.694 415.541 453.963 415.541 465.39V479.118Z" fill="white"/>
<path d="M313.713 370.919H198.923V444.681H313.713V370.919Z" fill="white"/>
<path d="M198.923 393.565L313.7 384.374L313.725 370.919L198.936 371.049L198.923 393.565Z" fill="#CED3E6"/>
<path d="M501.915 66.3032V355.592C501.915 364.068 495.045 370.945 486.578 370.945H15.9672C7.49985 370.945 0.629883 364.068 0.629883 355.592V66.3032C0.629883 57.8272 7.49985 50.9502 15.9672 50.9502H486.578C486.812 50.9502 487.033 50.9502 487.253 50.9632C487.422 50.9762 487.591 50.9762 487.747 50.9892H487.76C487.877 51.0022 487.994 51.0022 488.11 51.0282C488.305 51.0412 488.5 51.0672 488.708 51.0932C488.838 51.1062 488.968 51.1322 489.097 51.1582C489.162 51.1712 489.214 51.1712 489.279 51.1842C489.409 51.1972 489.526 51.2232 489.656 51.2622C496.656 52.6922 501.915 58.8802 501.915 66.3032Z" fill="white"/>
<path d="M263.131 358.191C267.563 354.364 268.057 347.666 264.234 343.23C260.412 338.794 253.721 338.3 249.289 342.126C244.858 345.952 244.364 352.65 248.186 357.086C252.008 361.522 258.7 362.017 263.131 358.191Z" fill="#CED3E6"/>
<path d="M489.669 51.2622C489.539 51.2362 489.422 51.2102 489.292 51.1842C489.227 51.1712 489.175 51.1582 489.11 51.1582C488.981 51.1322 488.851 51.1062 488.721 51.0932C488.526 51.0672 488.331 51.0412 488.123 51.0282C488.007 51.0152 487.89 51.0022 487.773 50.9892H487.76C487.591 50.9762 487.435 50.9632 487.266 50.9632C487.046 50.9502 486.812 50.9502 486.591 50.9502H15.9672C7.49985 50.9502 0.629883 57.8272 0.629883 66.3032V334.194H501.915V66.3032C501.915 58.8802 496.656 52.6922 489.669 51.2622ZM482.033 307.427C482.033 309.741 480.163 311.6 477.864 311.6H24.6812C22.3696 311.6 20.5125 309.728 20.5125 307.427V75.0262C20.5125 72.7122 22.3826 70.8532 24.6812 70.8532H477.864C480.176 70.8532 482.033 72.7252 482.033 75.0262V307.427Z" fill="#39393B"/>
<path d="M482.033 75.0263V307.427C482.033 309.741 480.163 311.6 477.864 311.6H24.6814C22.3698 311.6 20.5127 309.728 20.5127 307.427V75.0263C20.5127 72.7123 22.3828 70.8533 24.6814 70.8533H477.864C480.163 70.8533 482.033 72.7253 482.033 75.0263Z" fill="#CED3E6"/>
<path d="M482.033 75.0263V96.9573H20.5127V75.0263C20.5127 72.7123 22.3828 70.8533 24.6814 70.8533H477.864C480.163 70.8533 482.033 72.7253 482.033 75.0263Z" fill="white"/>
<path d="M446.281 83.5544C446.281 85.5174 444.696 87.1034 442.735 87.1034C440.774 87.1034 439.19 85.5174 439.19 83.5544C439.19 81.5914 440.774 80.0054 442.735 80.0054C444.696 80.0054 446.281 81.5914 446.281 83.5544Z" fill="#DF615C"/>
<path d="M457.774 83.5544C457.774 85.5174 456.19 87.1034 454.229 87.1034C452.268 87.1034 450.683 85.5174 450.683 83.5544C450.683 81.5914 452.268 80.0054 454.229 80.0054C456.19 80.0054 457.774 81.5914 457.774 83.5544Z" fill="#21B573"/>
<path d="M424.801 87.3113H63.9663C62.2261 87.3113 60.8105 85.8813 60.8105 84.1523V82.9693C60.8105 81.2273 62.2391 79.8103 63.9663 79.8103H424.801C426.541 79.8103 427.957 81.2403 427.957 82.9693V84.1523C427.97 85.8813 426.541 87.3113 424.801 87.3113Z" fill="#D2DCEC"/>
<path d="M37.1744 83.5543V87.0253C37.1744 87.5193 36.6419 87.8183 36.2133 87.5713L33.2134 85.8293L30.2135 84.0873C29.7849 83.8403 29.7849 83.2293 30.2135 82.9823L33.2134 81.2403L36.2133 79.4983C36.6419 79.2513 37.1744 79.5633 37.1744 80.0443V83.5543Z" fill="black"/>
<path d="M42.46 83.5543V87.0253C42.46 87.5193 42.9924 87.8183 43.421 87.5713L46.4209 85.8293L49.4208 84.0873C49.8494 83.8403 49.8494 83.2293 49.4208 82.9823L46.4209 81.2403L43.421 79.4983C42.9924 79.2513 42.46 79.5633 42.46 80.0443V83.5543Z" fill="black"/>
<path d="M462.579 86.544L462.371 86.336C462.033 85.998 462.033 85.465 462.371 85.127L467.189 80.304C467.527 79.966 468.059 79.966 468.397 80.304L468.605 80.512C468.942 80.85 468.942 81.383 468.605 81.721L463.786 86.544C463.449 86.882 462.903 86.882 462.579 86.544Z" fill="#39393B"/>
<path d="M468.371 86.544L468.579 86.336C468.916 85.998 468.916 85.465 468.579 85.127L463.761 80.304C463.423 79.966 462.89 79.966 462.553 80.304L462.345 80.512C462.007 80.85 462.007 81.383 462.345 81.721L467.163 86.544C467.501 86.882 468.046 86.882 468.371 86.544Z" fill="#39393B"/>
<path d="M420.281 302.253H81.0171C76.4069 302.253 72.6797 298.509 72.6797 293.907V110.607C72.6797 105.992 76.4198 102.261 81.0171 102.261H420.281C424.891 102.261 428.618 106.005 428.618 110.607V293.92C428.631 298.522 424.891 302.253 420.281 302.253Z" fill="white"/>
<path d="M170.872 249.525H88.4715C86.3157 249.525 84.5625 247.77 84.5625 245.612V202.751C84.5625 200.593 86.3157 198.838 88.4715 198.838H170.872C173.028 198.838 174.781 200.593 174.781 202.751V245.612C174.781 247.77 173.028 249.525 170.872 249.525Z" fill="#CED3E6"/>
<path d="M411.099 164.869H328.699C326.543 164.869 324.79 163.114 324.79 160.956V118.095C324.79 115.937 326.543 114.182 328.699 114.182H411.099C413.255 114.182 415.008 115.937 415.008 118.095V160.956C415.008 163.114 413.255 164.869 411.099 164.869Z" fill="#CED3E6"/>
<path d="M172.716 161.567H86.4973C85.3545 161.567 84.4194 160.644 84.4194 159.487V159.292C84.4194 158.148 85.3415 157.212 86.4973 157.212H172.716C173.859 157.212 174.794 158.135 174.794 159.292V159.487C174.781 160.631 173.859 161.567 172.716 161.567Z" fill="#CED3E6"/>
<path d="M172.716 143.198H86.4973C85.3545 143.198 84.4194 142.275 84.4194 141.118V140.923C84.4194 139.779 85.3415 138.843 86.4973 138.843H172.716C173.859 138.843 174.794 139.766 174.794 140.923V141.118C174.781 142.275 173.859 143.198 172.716 143.198Z" fill="#CED3E6"/>
<path d="M172.716 179.923H86.4973C85.3545 179.923 84.4194 179 84.4194 177.843V177.648C84.4194 176.504 85.3415 175.568 86.4973 175.568H172.716C173.859 175.568 174.794 176.491 174.794 177.648V177.843C174.781 179 173.859 179.923 172.716 179.923Z" fill="#CED3E6"/>
<path d="M412.944 204.584H326.868C325.725 204.584 324.79 203.661 324.79 202.504V202.309C324.79 201.165 325.712 200.229 326.868 200.229H412.944C414.086 200.229 415.021 201.152 415.021 202.309V202.504C415.008 203.661 414.086 204.584 412.944 204.584Z" fill="#CED3E6"/>
<path d="M412.944 186.228H326.868C325.725 186.228 324.79 185.305 324.79 184.148V183.953C324.79 182.809 325.712 181.873 326.868 181.873H412.944C414.086 181.873 415.021 182.796 415.021 183.953V184.148C415.008 185.292 414.086 186.228 412.944 186.228Z" fill="#CED3E6"/>
<path d="M412.944 222.953H326.868C325.725 222.953 324.79 222.03 324.79 220.873V220.678C324.79 219.534 325.712 218.598 326.868 218.598H412.944C414.086 218.598 415.021 219.521 415.021 220.678V220.873C415.008 222.017 414.086 222.953 412.944 222.953Z" fill="#CED3E6"/>
<path d="M72.6797 271.196H428.631V300.407C428.631 301.421 427.8 302.253 426.787 302.253H74.5238C73.4978 302.253 72.6797 301.421 72.6797 300.407V271.196Z" fill="#39393B"/>
<path d="M403.1 282.714V280.075H406.385V277.735H401.918C401.268 277.735 400.749 278.255 400.749 278.905V282.714H403.1Z" fill="white"/>
<path d="M403.1 287.394H400.762V291.398C400.762 292.048 401.282 292.568 401.931 292.568H406.398V290.228H403.113V287.394H403.1Z" fill="white"/>
<path d="M413.242 282.714H415.58V278.905C415.58 278.255 415.06 277.735 414.411 277.735H410.125V280.075H413.242V282.714Z" fill="white"/>
<path d="M413.242 287.394V290.228H410.125V292.568H414.411C415.06 292.568 415.58 292.048 415.58 291.398V287.394H413.242Z" fill="white"/>
<path d="M428.631 265.359H72.6797V271.196H428.631V265.359Z" fill="#CED3E6"/>
<path d="M98.5361 108.358H102.549V117.159H107.925V120.279H98.5361V108.358Z" fill="#39393B"/>
<path d="M109.029 108.358H113.042V120.279H109.029V108.358Z" fill="#39393B"/>
<path d="M127.717 108.358L122.678 120.279H118.73L113.691 108.358H118.016L120.86 115.326L123.769 108.358H127.717Z" fill="#39393B"/>
<path d="M138.016 117.237V120.266H128.107V108.345H137.795V111.374H132.055V112.765H137.094V115.664H132.055V117.237H138.016Z" fill="#39393B"/>
<path d="M91.9257 114.221C91.9257 116.925 89.731 119.122 87.0297 119.122C84.3285 119.122 82.1338 116.925 82.1338 114.221C82.1338 111.517 84.3285 109.32 87.0297 109.32C89.731 109.32 91.9257 111.504 91.9257 114.221Z" fill="#DF615C"/>
<path d="M382.243 245.56C382.243 247.939 380.321 249.863 377.944 249.863C375.568 249.863 373.646 247.939 373.646 245.56C373.646 243.181 375.568 241.257 377.944 241.257C380.321 241.244 382.243 243.181 382.243 245.56Z" fill="#DF615C"/>
<path d="M385.983 256.454H369.905C369.905 256.454 371.736 251.345 377.827 251.345C377.866 251.345 377.905 251.345 377.944 251.345C377.983 251.345 378.022 251.345 378.061 251.345C384.152 251.332 385.983 256.454 385.983 256.454Z" fill="#DF615C"/>
<path d="M400.813 242.947V245.651L396.476 255.986H391.671L395.801 246.353H393.294V248.251H389.671V242.947H400.813Z" fill="#39393B"/>
<path d="M412.242 252.58V255.986H401.8V253.282L406.502 248.927C407.398 248.095 407.528 247.588 407.528 247.133C407.528 246.496 407.099 246.106 406.268 246.106C405.489 246.106 404.748 246.535 404.346 247.315L401.034 245.664C401.982 243.87 403.865 242.648 406.67 242.648C409.761 242.648 411.93 244.247 411.93 246.73C411.93 248.017 411.592 249.174 409.696 250.89L407.839 252.58H412.242Z" fill="#39393B"/>
<path d="M347.451 150.309C347.451 150.309 350.659 160.631 358.698 161.45C365.191 162.1 370.269 155.236 371.983 152.571C372.399 151.934 372.607 151.544 372.607 151.544C372.607 151.544 373.074 151.531 373.775 151.414C375.412 151.167 378.269 150.426 379.126 148.242C380.347 145.148 374.165 144.004 374.165 144.004C374.165 144.004 376.814 140.871 375.788 139.012C374.775 137.179 370.646 137.348 370.646 137.348C370.646 137.348 374.62 133.89 372.814 131.615C370.087 128.196 366.139 132.928 365.802 133.201C366.048 132.837 376.243 117.315 372.996 116.691C370.165 116.145 360.776 128.677 358.269 132.109C357.867 132.655 357.646 132.967 357.646 132.967C357.646 132.967 357.451 132.863 357.114 132.694C355.516 131.914 350.646 129.925 348.114 132.72C345.062 136.087 347.451 150.309 347.451 150.309Z" fill="#EA9B7A"/>
<path d="M367.256 145.902C366.035 146.877 365.022 148.099 364.789 149.23C364.646 149.958 364.815 150.595 365.295 151.076C365.62 151.414 366.139 151.674 366.763 151.869C368.321 152.376 370.503 152.519 371.97 152.558C372.386 151.921 372.594 151.531 372.594 151.531C372.594 151.531 373.074 151.518 373.762 151.414C373.659 151.349 373.542 151.323 373.425 151.323C371.1 151.375 367.074 151.115 366.165 150.205C366.048 150.088 365.918 149.893 365.996 149.49C366.256 148.255 368.256 146.37 370.113 145.642C370.412 145.525 370.568 145.213 370.49 144.901C370.412 144.589 370.1 144.394 369.788 144.446C368.269 144.68 364.035 145.018 362.711 143.679C362.516 143.484 362.542 143.367 362.555 143.302C362.62 143.003 362.932 142.665 363.373 142.314C364.282 141.599 365.75 140.858 366.841 140.429C366.97 140.377 367.061 140.299 367.126 140.195C367.243 140.026 367.269 139.818 367.191 139.623C367.061 139.298 366.711 139.142 366.386 139.272C365.905 139.467 364.204 140.156 362.893 141.118C362.425 141.469 361.996 141.846 361.711 142.262C361.529 142.522 361.399 142.782 361.334 143.055C361.256 143.445 361.269 144.017 361.828 144.576C363.009 145.733 365.373 145.954 367.256 145.902Z" fill="#D46A43"/>
<path d="M361.23 136.841C361.412 137.023 361.477 137.283 361.373 137.53C361.061 138.284 360.893 138.986 360.971 139.493C361.035 139.896 361.217 140.039 361.373 140.104C361.62 140.221 361.997 140.26 362.451 140.247C363.581 140.208 365.217 139.792 366.685 139.324C366.62 139.428 366.516 139.506 366.399 139.558C365.308 139.987 363.841 140.728 362.932 141.443C362.789 141.456 362.633 141.469 362.49 141.469C362.035 141.482 361.62 141.456 361.256 141.378C361.1 141.339 360.958 141.287 360.828 141.235C360.204 140.949 359.828 140.403 359.724 139.675C359.607 138.908 359.815 137.972 360.204 137.036C360.373 136.633 360.88 136.542 361.191 136.828C361.217 136.841 361.217 136.841 361.23 136.841Z" fill="#D46A43"/>
<path d="M350.088 138.921C350.218 139.012 352.256 140.338 354.516 141.079C355.776 141.482 357.101 141.716 358.204 141.43C359.126 141.209 359.815 140.676 360.256 139.857C361.841 136.958 359.698 133.747 358.269 132.096C357.867 132.642 357.646 132.954 357.646 132.954C357.646 132.954 357.451 132.85 357.114 132.681C358.334 134.033 360.451 136.893 359.165 139.246C358.893 139.753 358.477 140.065 357.906 140.208C355.763 140.741 352.023 138.7 350.763 137.868C350.477 137.673 350.088 137.751 349.906 138.05C349.724 138.349 349.802 138.739 350.088 138.921Z" fill="#D46A43"/>
<path d="M356.464 155.665C356.672 155.73 356.906 155.691 357.075 155.535C357.334 155.301 357.347 154.911 357.127 154.651C355.893 153.273 355.36 151.752 355.542 150.153C356.023 146.058 360.919 142.574 360.971 142.535C361.256 142.34 361.321 141.95 361.127 141.664C360.932 141.378 360.542 141.313 360.256 141.508C360.036 141.664 354.841 145.343 354.296 149.997C354.062 151.973 354.711 153.806 356.192 155.47C356.27 155.574 356.36 155.639 356.464 155.665Z" fill="#D46A43"/>
<path d="M278.804 104.484L285.128 120.5C286.076 123.178 287.037 125.856 288.011 128.521C288.972 131.186 289.946 133.838 290.933 136.477C291.933 139.116 292.907 141.742 293.907 144.329C294.907 146.916 295.946 149.477 296.985 151.96C298.011 154.443 299.076 156.874 300.128 159.045C300.647 160.124 301.18 161.125 301.621 161.918L301.92 162.438L302.037 162.646C302.063 162.698 302.063 162.698 302.076 162.737C302.115 162.841 302.128 162.906 302.141 162.958C302.154 163.062 302.115 163.127 302.167 163.218C302.206 163.322 302.362 163.452 302.686 163.608C303.349 163.907 304.777 164.115 306.569 164.037C308.362 163.959 310.504 163.595 312.725 163.023C314.946 162.451 317.296 161.71 319.66 160.813C324.387 159.019 329.231 156.744 334.01 154.196C338.802 151.661 342.322 149.62 346.984 146.708C348.477 153.624 353.36 159.214 360.438 161.879C355.906 166.013 351.153 169.848 346.153 173.501C341.127 177.128 335.854 180.56 330.049 183.589C327.14 185.097 324.114 186.54 320.829 187.775C317.543 189.01 314.05 190.089 310.102 190.765C308.128 191.103 306.037 191.337 303.803 191.376C301.57 191.402 299.193 191.259 296.7 190.778C294.206 190.297 291.596 189.478 289.076 188.23C286.557 186.995 284.154 185.318 282.103 183.394C281.077 182.432 280.142 181.418 279.284 180.378L278.674 179.598L278.168 178.922C277.999 178.688 277.856 178.48 277.7 178.272C277.557 178.064 277.388 177.83 277.258 177.635C276.142 175.984 275.22 174.476 274.362 172.994C272.661 170.056 271.22 167.261 269.817 164.479C268.441 161.697 267.155 158.941 265.908 156.185C264.661 153.442 263.454 150.699 262.298 147.943C261.142 145.2 259.999 142.457 258.882 139.701C257.778 136.945 256.701 134.202 255.649 131.446C254.61 128.69 253.571 125.921 252.558 123.152L251.064 118.979L250.337 116.873C250.09 116.158 249.857 115.482 249.61 114.728L278.804 104.484Z" fill="#21B573"/>
<path d="M296.024 171.122C296.271 171.122 296.505 171.018 296.66 170.797C296.686 170.758 299.738 166.715 302.388 164.817C302.751 164.557 302.829 164.063 302.569 163.699C302.31 163.335 301.816 163.257 301.452 163.517C298.595 165.558 295.505 169.666 295.375 169.835C295.115 170.186 295.18 170.693 295.531 170.953C295.686 171.07 295.855 171.122 296.024 171.122Z" fill="#217C58"/>
<path d="M301.453 171.915C301.504 171.915 301.569 171.915 301.621 171.902C302.05 171.811 302.323 171.382 302.232 170.953C302.219 170.914 301.492 167.521 302.219 164.96C302.336 164.531 302.089 164.089 301.673 163.972C301.245 163.855 300.803 164.102 300.686 164.518C299.842 167.469 300.634 171.148 300.673 171.304C300.751 171.668 301.076 171.915 301.453 171.915Z" fill="#217C58"/>
<path d="M294.037 257.273C279.258 265.788 243.532 270.169 220.234 260.913C211.689 257.52 210.182 255.427 210.831 240.061C210.857 239.489 210.883 238.917 210.909 238.345C210.974 237.136 211.052 235.927 211.143 234.731C211.182 234.146 211.234 233.574 211.273 233.002C211.442 230.857 211.65 228.751 211.883 226.736C211.948 226.177 212.013 225.631 212.065 225.085C212.598 220.587 213.455 216.544 214.234 213.411C214.377 212.852 214.52 212.306 214.65 211.812C215.481 208.744 216.143 206.898 216.143 206.898C219.896 207.509 223.766 207.86 227.662 208.016C228.208 208.042 228.766 208.055 229.311 208.068C249.467 208.601 269.973 204.038 279.479 201.555C280.05 201.412 280.583 201.269 281.076 201.126C283.544 200.463 284.946 200.034 284.946 200.034C284.946 200.034 285.816 201.555 287.037 204.077C287.258 204.545 287.505 205.039 287.739 205.572C289.674 209.732 292.141 215.764 293.544 222.056C293.57 222.134 293.582 222.212 293.595 222.29C293.712 222.836 293.829 223.382 293.946 223.928C293.972 224.032 293.998 224.149 294.011 224.253C294.972 228.816 295.855 233.613 296.453 238.189C296.53 238.774 296.595 239.359 296.673 239.944C297.855 250.006 298.037 254.972 294.037 257.273Z" fill="#39393B"/>
<path d="M294.037 224.266C293.998 224.253 293.959 224.227 293.933 224.214C290.933 222.576 288.284 220.093 286.011 216.804C285.7 216.362 285.401 215.894 285.102 215.413C282.817 211.695 280.934 207.067 279.492 201.568C280.064 201.425 280.596 201.282 281.09 201.139C282.505 206.573 284.349 211.097 286.596 214.685C286.895 215.166 287.206 215.621 287.518 216.076C289.297 218.624 291.323 220.626 293.57 222.069C293.596 222.147 293.609 222.225 293.622 222.303C293.739 222.849 293.855 223.395 293.972 223.941C293.985 224.045 294.011 224.162 294.037 224.266Z" fill="#585859"/>
<path d="M229.325 208.081C228.676 213.879 227.377 218.78 225.481 222.771C225.234 223.291 224.974 223.811 224.689 224.292C223.13 227.113 221.221 229.414 218.975 231.182C216.221 233.34 213.416 234.315 211.144 234.731C211.183 234.146 211.234 233.574 211.273 233.002C213.26 232.586 215.65 231.689 217.988 229.856C219.936 228.335 221.598 226.359 222.987 223.967C223.273 223.473 223.546 222.966 223.806 222.446C225.728 218.585 227.013 213.775 227.689 208.016C228.221 208.042 228.766 208.068 229.325 208.081Z" fill="#585859"/>
<path d="M287.752 205.585C286.609 206.092 285.388 206.612 284.077 207.145C283.57 207.353 283.051 207.561 282.518 207.769C274.908 210.746 264.947 213.801 254.194 214.906C253.779 214.945 253.363 214.984 252.961 215.023C243.208 215.92 233.273 215.504 225.091 214.737C224.507 214.685 223.935 214.633 223.364 214.568C219.91 214.217 216.806 213.814 214.234 213.424C214.377 212.865 214.52 212.319 214.65 211.825C217.299 212.215 220.481 212.631 224.039 212.995C224.598 213.047 225.169 213.099 225.741 213.151C234.078 213.905 244.195 214.282 254.026 213.268C264.519 212.189 274.246 209.212 281.713 206.313C282.246 206.105 282.752 205.897 283.259 205.702C284.609 205.156 285.869 204.623 287.038 204.103C287.271 204.558 287.505 205.065 287.752 205.585Z" fill="#585859"/>
<path d="M310.699 327.551C308.543 294.193 303.647 263.266 296.479 238.202L256.856 256.675C258.09 287.03 264.181 308.064 271.194 327.551H310.699Z" fill="#39393B"/>
<path d="M277.596 327.551C266.103 294.726 264.09 267.868 264.064 267.517C264.025 267.062 263.635 266.724 263.181 266.75C262.726 266.776 262.376 267.179 262.415 267.634C262.441 267.972 264.453 294.739 275.856 327.551H277.596Z" fill="#585859"/>
<path d="M248.974 327.551C251.415 303.852 254.233 274.745 254.597 263.474L210.832 240.048C210.832 240.048 203.118 266.698 208.182 327.538H248.974V327.551Z" fill="#39393B"/>
<path d="M244.973 327.551L252.311 266.867C252.376 266.347 252.012 265.879 251.493 265.827C250.973 265.762 250.506 266.126 250.454 266.646L243.09 327.551H244.973Z" fill="#585859"/>
<path d="M258.402 258.105C258.454 258.56 258.869 258.872 259.311 258.833C259.311 258.833 259.311 258.833 259.324 258.833C259.778 258.781 260.103 258.365 260.051 257.91C259.687 254.829 259.337 251.67 258.999 248.524C258.934 247.965 258.882 247.419 258.83 246.86C257.765 236.538 256.895 226.385 256.324 219.196C256.285 218.611 256.233 218.052 256.194 217.506C256.064 215.933 255.96 214.529 255.869 213.346C255.311 213.346 254.765 213.359 254.207 213.359C254.298 214.542 254.402 215.959 254.532 217.545C254.571 218.091 254.623 218.65 254.662 219.235C255.233 226.359 256.09 236.421 257.155 246.678C257.207 247.25 257.272 247.809 257.324 248.381C257.661 251.644 258.025 254.92 258.402 258.105Z" fill="#585859"/>
<path d="M254.285 247.731C254.558 247.809 255.791 248.173 257.324 248.368C257.856 248.446 258.428 248.498 258.999 248.511C259.532 248.524 260.051 248.511 260.57 248.459C261.57 248.342 262.492 248.082 263.233 247.549C264.142 246.886 264.635 245.885 264.648 244.65C264.713 241.4 263.778 228.179 263.064 218.845C263.025 218.273 262.986 217.714 262.934 217.168C262.817 215.673 262.713 214.321 262.622 213.164C262.077 213.19 261.518 213.216 260.973 213.229C261.064 214.386 261.168 215.764 261.285 217.285C261.324 217.831 261.363 218.39 261.415 218.962C262.116 228.283 263.051 241.478 262.986 244.624C262.973 245.352 262.739 245.859 262.246 246.223C261.454 246.795 260.155 246.925 258.817 246.86C258.246 246.834 257.674 246.769 257.142 246.678C256.155 246.522 255.285 246.314 254.752 246.158C254.311 246.028 253.856 246.275 253.726 246.717C253.597 247.146 253.843 247.601 254.285 247.731Z" fill="#585859"/>
<path d="M204.416 117.939L267.583 116.314C265.622 113.571 265.804 87.3631 264.934 81.9551C264.025 76.3781 264.726 65.3021 265.557 56.2541C267.168 38.8861 253.077 24.0011 235.675 24.8591C235.415 24.8721 235.155 24.8851 234.883 24.8981C208.325 26.5881 206.377 49.3641 208.844 63.1571C211.104 75.7021 212.676 109.931 204.416 117.939Z" fill="#39393B"/>
<path d="M218.117 200.06L223.208 221.445C235.935 220.431 250.986 218.585 262.324 212.722C262.324 212.722 277.427 217.805 285.089 215.439L279.479 200.073H218.117V200.06Z" fill="white"/>
<path d="M292.894 215.881C278.219 215.777 269.414 213.879 261.415 207.314C246.402 222.927 209.325 223.525 209.325 223.525C213.039 211.539 214.247 190.336 214.247 190.336C213.948 188.139 213.793 185.851 213.559 183.524C213.325 181.21 213.013 178.857 212.416 176.543C208.754 165.974 204.481 158.395 200.676 147.462C200.429 146.747 200.183 146.045 199.923 145.343C199.754 144.875 199.585 144.42 199.416 143.965C198.17 140.546 196.819 137.14 195.416 133.864C189.274 119.551 188.287 103.405 203.053 98.478C204.131 98.127 205.182 97.776 206.208 97.451C213.195 95.241 219.013 93.785 220.637 93.395C220.935 93.33 221.078 93.291 221.078 93.291L252.077 95.865L255.025 96.112C259.363 96.593 263.947 96.476 266.843 97.113C269.389 97.672 270.934 97.542 273.531 98.309C279.635 100.116 279.466 108.345 281.362 118.563C281.388 118.732 281.427 118.914 281.453 119.096C281.466 119.148 281.479 119.213 281.492 119.265C281.83 121.007 282.219 122.723 282.674 124.426C283.18 126.324 283.739 128.209 284.323 130.029C287.895 141.248 292.206 146.396 291.466 153.468C290.791 159.864 284.284 168.587 282.557 170.446C282.154 170.875 281.921 171.109 281.921 171.109C281.921 171.135 281.934 171.174 281.934 171.213C281.96 171.46 281.986 171.733 282.025 172.019C282.154 173.098 282.349 174.372 282.583 175.828C283.115 181.223 283.882 186.124 284.739 190.479C285.206 192.832 285.7 195.029 286.219 197.057C289.323 209.342 292.894 215.881 292.894 215.881Z" fill="#21B573"/>
<path d="M286.219 197.031C282.025 199.254 278.635 200.736 278.635 200.736L275.505 194.834C278.505 193.755 281.713 192.156 284.739 190.44C285.427 192.273 286.064 194.132 286.219 197.031Z" fill="#217C58"/>
<path d="M218.584 191.493C218.584 191.493 232.688 197.486 243.129 198.5L241.532 204.987C241.532 204.987 224.428 202.166 217.584 197.278L218.584 191.493Z" fill="#217C58"/>
<path d="M284.453 169.484C284.661 169.484 284.869 169.406 285.038 169.237C285.427 168.834 294.375 159.266 291.258 150.543C290.388 148.112 289.388 145.668 288.31 143.081C285.064 135.203 281.388 126.285 280.453 114.715C280.414 114.273 280.025 113.948 279.596 113.987C279.155 114.026 278.83 114.403 278.869 114.845C279.83 126.662 283.557 135.71 286.843 143.692C287.908 146.266 288.908 148.697 289.765 151.089C292.557 158.889 283.986 168.054 283.895 168.145C283.596 168.47 283.609 168.977 283.921 169.276C284.051 169.419 284.245 169.484 284.453 169.484Z" fill="#217C58"/>
<path d="M258.402 135.385C258.402 136.347 257.623 137.127 256.662 137.127C255.701 137.127 254.921 136.347 254.921 135.385C254.921 134.423 255.701 133.643 256.662 133.643C257.623 133.643 258.402 134.423 258.402 135.385Z" fill="#217C58"/>
<path d="M260.999 150.816C260.999 151.778 260.22 152.558 259.259 152.558C258.298 152.558 257.519 151.778 257.519 150.816C257.519 149.854 258.298 149.074 259.259 149.074C260.22 149.074 260.999 149.854 260.999 150.816Z" fill="#217C58"/>
<path d="M262.544 166.494C262.544 167.456 261.765 168.236 260.804 168.236C259.843 168.236 259.064 167.456 259.064 166.494C259.064 165.532 259.843 164.752 260.804 164.752C261.778 164.752 262.544 165.532 262.544 166.494Z" fill="#217C58"/>
<path d="M263.22 182.627C263.22 183.589 262.44 184.369 261.479 184.369C260.518 184.369 259.739 183.589 259.739 182.627C259.739 181.665 260.518 180.885 261.479 180.885C262.44 180.885 263.22 181.665 263.22 182.627Z" fill="#217C58"/>
<path d="M263.142 199.397C263.142 200.359 262.363 201.139 261.402 201.139C260.441 201.139 259.662 200.359 259.662 199.397C259.662 198.435 260.441 197.655 261.402 197.655C262.363 197.655 263.142 198.435 263.142 199.397Z" fill="#217C58"/>
<path d="M248.506 95.8389C248.506 95.8389 255.233 95.2279 259.96 96.4889L259.454 114.195L255.428 115.066L258.817 118.407L254.752 130.289C254.752 130.263 249.194 110.503 248.506 95.8389Z" fill="#217C58"/>
<path d="M221.065 93.291L208.754 96.658L223.221 115.898L234.065 115.027L230.26 123.334L254.753 130.25C254.753 130.25 226.39 103.288 224.117 93.538L221.065 93.291Z" fill="#217C58"/>
<path d="M223.221 94.7341C223.221 94.7341 230.298 109.814 254.752 130.25C254.752 130.25 253.441 114.169 248.519 96.9311C248.519 96.9441 234.117 101.962 223.221 94.7341Z" fill="white"/>
<path d="M258.155 142.886C250.103 142.886 233.662 131.342 232.961 130.848C232.662 130.64 232.597 130.224 232.805 129.925C233.013 129.626 233.428 129.561 233.727 129.769C233.896 129.886 250.519 141.573 258.155 141.573C265.467 141.573 267.077 133.578 267.103 133.5C267.168 133.136 267.518 132.902 267.882 132.98C268.246 133.045 268.479 133.396 268.402 133.76C268.389 133.825 266.544 142.886 258.155 142.886Z" fill="#217C58"/>
<path d="M248.506 95.8391L248.831 100.012C249.454 107.799 243.909 110.009 235.857 105.888C229.494 102.625 224.091 97.7631 223.208 94.7471L248.506 95.8391Z" fill="#EA9B7A"/>
<path d="M236.974 175.386C237.104 175.62 237.35 175.75 237.597 175.75C237.714 175.75 237.844 175.724 237.948 175.659C238.065 175.594 249.701 169.029 263.908 171.811C271.129 173.215 277.258 173.072 282.024 172.006C281.985 171.72 281.959 171.46 281.934 171.2C281.934 171.161 281.921 171.135 281.921 171.096C281.921 171.096 282.154 170.862 282.557 170.446C277.895 171.629 271.661 171.863 264.181 170.394C249.428 167.508 237.727 174.125 237.233 174.411C236.896 174.606 236.779 175.035 236.974 175.386Z" fill="#217C58"/>
<path d="M261.791 43.8391C261.791 43.8391 265.363 57.8921 263.077 60.3361C260.791 62.7931 257.402 57.5281 257.402 57.5281C257.402 57.5281 259.077 44.4111 261.791 43.8391Z" fill="#39393B"/>
<path d="M257.856 62.455C257.856 62.455 261.558 58.087 263.648 62.455C265.739 66.823 264.129 75.676 258.506 74.233L257.856 62.455Z" fill="#D46A43"/>
<path d="M254.61 73.323C252.558 74.285 251.129 76.365 251.129 78.783C251.129 82.111 253.83 84.815 257.155 84.815C260.48 84.815 263.181 82.111 263.181 78.783C263.181 76.391 261.791 74.324 259.778 73.349C259.09 73.011 258.324 72.803 257.519 72.764C257.376 72.387 257.246 72.01 257.09 71.646C257.116 71.646 257.142 71.646 257.155 71.646C258.142 71.646 259.09 71.854 259.934 72.218C262.48 73.31 264.285 75.845 264.285 78.783C264.285 82.722 261.09 85.92 257.155 85.92C253.22 85.92 250.025 82.722 250.025 78.783C250.025 76.131 251.48 73.817 253.623 72.582L254.61 73.323Z" fill="white"/>
<path d="M248.519 84.8801V96.9311C248.519 96.9311 242.168 107.344 223.221 94.7341C226.805 90.7171 226.922 82.9691 225.467 78.3411C225.467 78.3411 226.857 79.2771 229.156 80.3041C229.623 80.5121 230.13 80.7331 230.662 80.9541C235.389 82.9561 242.519 85.3481 248.519 84.8801Z" fill="#EA9B7A"/>
<path d="M248.519 84.88V90.522C243.363 89.378 234.337 86.557 229.156 80.304C229.623 80.512 230.13 80.733 230.662 80.954C235.389 82.956 242.519 85.348 248.519 84.88Z" fill="#39393B"/>
<path d="M258.817 80.9411C248.701 91.4191 226.247 78.9131 225.52 78.5101C225.507 78.4971 225.507 78.4971 225.507 78.4971C225.299 77.5611 225.117 76.6251 224.948 75.7151C223.52 67.9151 223.429 60.6871 224.221 53.8101C223.844 46.5561 228.156 39.8091 234.974 37.3131C242.039 34.7391 248.376 37.8461 252.181 39.0161C257.921 40.7841 261.545 48.2201 261.571 58.8151C261.584 71.8021 261.324 78.3411 258.817 80.9411Z" fill="#EA9B7A"/>
<path d="M260.35 46.725C258.012 47.05 255.609 47.297 253.142 47.492L251.791 41.018L251.35 47.622C246.804 47.934 242.09 48.051 237.246 48.051L236.649 41.239L235.324 48.051C231.74 48.038 228.104 47.96 224.441 47.856C221.506 34.271 236.22 28.356 248.597 31.177C260.96 34.011 260.35 46.725 260.35 46.725Z" fill="#39393B"/>
<path d="M233.831 43.839C233.831 43.839 229.273 49.923 231.766 55.578C234.26 61.233 232.519 66.771 231.338 70.892C231.338 70.892 228.753 61.792 222.663 60.102C216.572 58.399 219.715 41.72 233.831 43.839Z" fill="#39393B"/>
<path d="M250.129 75.221C251.467 75.429 252.545 75.065 252.61 75.039C252.83 74.961 252.96 74.714 252.882 74.493C252.804 74.272 252.558 74.142 252.337 74.22C252.311 74.233 250.22 74.909 248.48 73.635C248.285 73.492 248.012 73.531 247.87 73.726C247.727 73.921 247.766 74.194 247.96 74.324C248.688 74.87 249.441 75.117 250.129 75.221Z" fill="#D46A43"/>
<path d="M256.558 68.4481C256.558 68.4481 249.519 70.9051 244.233 67.4211C244.233 67.4211 246.09 72.1791 250.649 72.6341C255.207 73.0761 256.558 68.4481 256.558 68.4481Z" fill="white"/>
<path d="M245.35 49.1689C245.35 49.1689 247.454 49.3769 246.714 51.3009C245.974 53.2249 241.766 51.1059 238.753 54.6549C238.753 54.6679 237.467 50.0399 245.35 49.1689Z" fill="#39393B"/>
<path d="M254.87 49.1689C254.87 49.1689 252.766 49.3769 253.506 51.3009C254.246 53.2249 258.454 51.1059 261.467 54.6549C261.467 54.6679 262.753 50.0399 254.87 49.1689Z" fill="#39393B"/>
<g opacity="0.8">
<g opacity="0.8">
<g opacity="0.8">
<g opacity="0.8">
<g opacity="0.8">
<g opacity="0.8">
<g opacity="0.8">
<path opacity="0.8" d="M244.208 63.4561C244.208 64.4311 242.195 65.237 239.701 65.237C237.208 65.237 235.195 64.4441 235.195 63.4561C235.195 62.4811 237.208 61.675 239.701 61.675C242.195 61.675 244.208 62.4811 244.208 63.4561Z" fill="#D46A43"/>
</g>
</g>
</g>
</g>
</g>
</g>
</g>
<path d="M262.57 65.185C262.22 65.224 261.856 65.237 261.48 65.237C258.986 65.237 256.973 64.4441 256.973 63.4561C256.973 62.4811 258.986 61.675 261.48 61.675C261.817 61.675 262.142 61.688 262.454 61.714L262.57 65.185Z" fill="#D46A43"/>
<path d="M244.727 58.8019C244.727 60.1539 244.116 61.2459 243.363 61.2459C242.61 61.2459 242 60.1539 242 58.8019C242 57.4499 242.61 56.3579 243.363 56.3579C244.116 56.3709 244.727 57.4629 244.727 58.8019Z" fill="#39393B"/>
<path d="M258.038 58.8019C258.038 60.1539 257.428 61.2459 256.675 61.2459C255.921 61.2459 255.311 60.1539 255.311 58.8019C255.311 57.4499 255.921 56.3579 256.675 56.3579C257.428 56.3709 258.038 57.4629 258.038 58.8019Z" fill="#39393B"/>
<path d="M252.817 63.937C253.467 63.937 253.895 63.833 253.934 63.82C254.09 63.781 254.207 63.677 254.285 63.547C254.363 63.404 254.376 63.248 254.324 63.105L252.272 57.229C252.168 56.943 251.856 56.787 251.571 56.891C251.285 56.995 251.129 57.307 251.233 57.593L253.051 62.819C252.493 62.845 251.636 62.793 250.779 62.325C250.506 62.182 250.168 62.286 250.025 62.546C249.883 62.819 249.986 63.157 250.246 63.3C251.194 63.82 252.129 63.937 252.817 63.937Z" fill="#39393B"/>
<path d="M229.896 73.05C229.831 73.206 228.065 77.314 225.52 78.51C225.507 78.497 225.507 78.4971 225.507 78.4971C225.299 77.5611 225.117 76.6251 224.948 75.7151C225.026 75.6891 227.598 75.247 229.896 73.05Z" fill="#39393B"/>
<path d="M227.429 63.6901C227.429 63.6901 222.052 56.4621 218.104 62.1431C214.858 66.8231 220.974 79.3031 227.545 74.7401L227.429 63.6901Z" fill="#EA9B7A"/>
<path d="M221.857 74.818C219.805 75.78 218.377 77.899 218.377 80.304C218.377 83.632 221.078 86.336 224.403 86.336C227.727 86.336 230.428 83.632 230.428 80.304C230.428 77.912 229.039 75.845 227.026 74.87C226.338 74.532 225.571 74.324 224.766 74.285C224.623 73.908 224.494 73.531 224.338 73.167C224.364 73.167 224.39 73.167 224.403 73.167C225.39 73.167 226.338 73.375 227.182 73.739C229.727 74.831 231.532 77.366 231.532 80.304C231.532 84.243 228.338 87.441 224.403 87.441C220.468 87.441 217.273 84.243 217.273 80.304C217.273 77.652 218.766 75.299 220.909 74.064C221.208 74.35 221.52 74.61 221.857 74.818Z" fill="white"/>
<path d="M226.688 72.6731C226.714 72.6731 226.727 72.6731 226.753 72.6731C227.052 72.6341 227.273 72.3611 227.247 72.0621C226.571 65.9131 221.403 63.7811 221.182 63.6901C220.896 63.5731 220.572 63.7161 220.468 64.0021C220.351 64.2881 220.494 64.6131 220.779 64.7171C220.987 64.7951 225.558 66.7061 226.156 72.1791C226.169 72.4651 226.416 72.6731 226.688 72.6731Z" fill="#39393B"/>
<path d="M221.52 69.319C221.636 69.319 221.766 69.28 221.87 69.189C222.351 68.799 223.805 67.837 224.766 68.084C225.065 68.162 225.364 67.98 225.442 67.681C225.519 67.382 225.338 67.083 225.039 67.005C223.377 66.576 221.39 68.149 221.169 68.318C220.935 68.513 220.896 68.864 221.091 69.098C221.208 69.241 221.364 69.319 221.52 69.319Z" fill="#39393B"/>
<path d="M184.781 178.194C184.781 178.194 186.547 182.016 184.508 190.349C182.469 198.695 179.053 203.921 179.053 203.921C179.053 203.921 170.495 190.934 184.781 178.194Z" fill="#217C58"/>
<path d="M147.067 170.212C147.093 170.628 147.119 171.057 147.158 171.46C147.21 171.876 147.275 172.279 147.34 172.695C147.378 172.89 147.404 173.098 147.456 173.306L147.599 173.891C147.963 175.477 148.534 176.894 149.158 178.194C149.469 178.818 149.82 179.455 150.158 180.001C150.339 180.274 150.508 180.56 150.69 180.833L151.236 181.6C152.716 183.615 154.287 185.123 155.807 186.41C157.339 187.697 158.859 188.75 160.339 189.699C161.079 190.18 161.82 190.609 162.56 191.038C163.3 191.467 164.014 191.857 164.742 192.247C166.196 193.001 167.625 193.716 169.053 194.366C171.91 195.679 174.741 196.784 177.572 197.785C180.391 198.786 183.222 199.683 186.027 200.502C188.845 201.334 191.65 202.088 194.468 202.777C197.286 203.466 200.104 204.09 202.948 204.688C203.974 204.896 205.39 205.039 206.87 205.156C209.13 205.325 211.585 205.455 213.195 205.728C213.584 203.388 211.611 201.503 212 199.163C212.455 196.433 212.909 193.69 213.403 190.96L212.273 188.516C210.559 188.1 208.844 187.658 207.117 187.203C207.065 187.19 207.013 187.177 206.961 187.164C204.455 186.488 201.974 185.734 199.507 184.928C197.001 184.122 194.507 183.251 192.053 182.328C189.611 181.405 187.222 180.417 184.897 179.364C182.585 178.311 180.326 177.206 178.235 176.023C177.196 175.438 176.17 174.84 175.235 174.203C174.767 173.891 174.3 173.579 173.871 173.254C173.443 172.929 173.027 172.604 172.638 172.279C172.04 171.785 171.495 171.265 171.053 170.784C170.923 170.641 170.806 170.511 170.69 170.368L170.664 170.342L171.066 169.796L171.793 168.808C172.17 168.288 172.534 167.781 172.949 167.248C173.754 166.195 174.534 165.155 175.352 164.102L177.832 160.956C179.52 158.863 181.196 156.744 182.923 154.651L184.209 153.078L185.507 151.505L187.338 149.295L188.118 148.359L189.066 147.215L190.741 145.2L193.39 142.054C195.143 139.961 196.91 137.855 198.689 135.775L209.299 123.243L209.364 123.165C213.831 117.887 213.182 109.97 207.909 105.498C202.676 101.065 194.871 101.676 190.377 106.824L187.598 110.022L184.871 113.22C183.962 114.286 183.066 115.365 182.17 116.431C181.274 117.497 180.365 118.576 179.482 119.655C177.702 121.813 175.923 123.984 174.157 126.168L171.521 129.457L171.17 129.899L168.897 132.772C168.027 133.877 167.157 134.995 166.3 136.1L165.001 137.777L164.417 138.544L163.716 139.467C162.001 141.716 160.3 143.991 158.612 146.292L156.093 149.789C155.261 150.959 154.43 152.181 153.599 153.377C153.184 153.962 152.768 154.586 152.352 155.223L151.119 157.095L150.807 157.563L150.729 157.68L150.69 157.745L150.625 157.836L150.365 158.252C150.197 158.538 150.028 158.811 149.859 159.097C149.781 159.24 149.69 159.396 149.612 159.552L149.378 160.02C149.223 160.332 149.067 160.631 148.911 160.956C148.768 161.294 148.625 161.632 148.495 161.97L148.301 162.49C148.236 162.659 148.171 162.854 148.119 163.036C148.002 163.4 147.885 163.777 147.781 164.141C147.677 164.518 147.599 164.921 147.508 165.311C147.43 165.701 147.34 166.091 147.288 166.507C147.236 166.923 147.184 167.326 147.145 167.742C147.106 168.158 147.093 168.574 147.08 169.003L147.067 169.627C147.054 169.796 147.067 170.004 147.067 170.212Z" fill="#EA9B7A"/>
<path d="M201.845 185.656C201.845 185.656 199.819 183.68 197.326 184.187C197.326 184.187 191.43 194.184 194.494 202.764C194.494 202.764 195.858 203.999 198.728 203.765C198.715 203.765 195.858 193.456 201.845 185.656Z" fill="black"/>
<path d="M190.404 194.392C190.585 197.681 193.404 200.19 196.676 200.008C199.962 199.826 202.468 197.005 202.286 193.729C202.105 190.44 199.287 187.931 196.014 188.113C192.728 188.282 190.209 191.103 190.404 194.392Z" fill="black"/>
<path d="M196.598 198.5C199.053 198.357 200.936 196.251 200.793 193.807C200.65 191.35 198.546 189.465 196.092 189.608C193.637 189.751 191.754 191.857 191.897 194.301C192.04 196.745 194.144 198.643 196.598 198.5Z" fill="white"/>
<path d="M206.858 204.844C209.118 205.013 211.572 205.143 213.182 205.416C213.572 203.076 211.598 201.191 211.988 198.851C212.442 196.121 212.897 193.378 213.39 190.648L212.26 188.204C210.546 187.788 208.832 187.346 207.105 186.891C207.053 186.878 207.001 186.865 206.949 186.852C206.247 190.726 205.157 198.877 206.858 204.844Z" fill="#D46A43"/>
<path d="M212.403 111.66C213.611 115.56 212.689 119.824 210.013 122.905C205.001 128.703 195.416 139.909 190.105 146.942C182.676 156.77 173.3 169.107 173.3 169.107C173.3 169.107 180.053 175.048 184.793 178.181C184.793 178.181 173.209 187.983 179.066 203.908C179.066 203.908 158.249 192.455 147.716 181.457C140.028 173.423 142.158 163.4 149.184 153.806C152.729 148.97 180.092 117.757 189.806 106.837C193.391 102.807 199.053 101.195 204.143 102.95C207.39 104.094 210.819 106.538 212.403 111.66Z" fill="#21B573"/>
<path d="M207.338 189.816C207.338 189.816 208.156 185.045 209.39 180.469C210.416 176.647 212.494 175.464 212.494 175.464C212.948 178.064 213.585 179.637 213.663 184.369C213.663 184.369 214.818 183.29 216.922 183.719C219.026 184.148 226.273 185.682 226.377 187.359C226.584 191.194 217.507 189.374 217.507 189.374C217.507 189.374 227.234 191.207 226.987 193.898C226.792 196.069 217.987 196.485 217.987 196.485C217.987 196.485 226.48 196.563 225.454 199.618C224.377 202.855 216.494 200.814 216.494 200.814C216.494 200.814 222.169 203.544 221.623 204.688C220.831 206.339 217.468 206.794 212.039 205.468C206.455 204.103 207.338 189.816 207.338 189.816Z" fill="#EA9B7A"/>
<path d="M197.313 139.935C197.105 139.961 196.884 139.909 196.715 139.766C196.403 139.493 196.351 139.025 196.624 138.713L209.195 123.776C209.468 123.464 209.936 123.412 210.247 123.685C210.559 123.958 210.611 124.426 210.338 124.738L197.767 139.675C197.65 139.818 197.481 139.909 197.313 139.935Z" fill="#217C58"/>
<path d="M210.974 128.859L206.221 129.587C205.806 129.652 205.429 129.366 205.364 128.963C205.299 128.547 205.585 128.17 205.988 128.105L210.741 127.377C211.156 127.312 211.533 127.598 211.598 128.001C211.663 128.417 211.377 128.794 210.974 128.859Z" fill="#217C58"/>
<path d="M159.82 172.344C159.898 172.448 160.002 172.513 160.119 172.526C160.248 172.552 160.391 172.526 160.508 172.435C164.092 169.77 170.469 169.484 173.625 169.523C173.495 169.38 173.378 169.25 173.261 169.107L173.235 169.081L173.638 168.522C173.352 168.522 173.04 168.509 172.703 168.522C170.729 166.624 165.404 164.778 165.17 164.7C164.911 164.609 164.638 164.752 164.547 164.999C164.456 165.259 164.599 165.532 164.846 165.623C164.898 165.636 168.949 167.04 171.183 168.561C167.703 168.717 162.95 169.367 159.911 171.642C159.703 171.824 159.664 172.123 159.82 172.344Z" fill="#217C58"/>
</svg>
