<svg width="341" height="429" viewBox="0 0 341 429" fill="none" xmlns="http://www.w3.org/2000/svg">
<path d="M175.566 428.784C266.913 428.784 340.964 424.262 340.964 418.683C340.964 413.104 266.913 408.582 175.566 408.582C84.2188 408.582 10.1675 413.104 10.1675 418.683C10.1675 424.262 84.2188 428.784 175.566 428.784Z" fill="#CED3E6"/>
<path d="M199.708 102.952L199.916 103.94L200.072 104.733L200.344 106.228C200.513 107.203 200.669 108.152 200.812 109.101C201.085 110.999 201.318 112.858 201.526 114.717C201.929 118.435 202.227 122.114 202.396 125.806C202.565 129.485 202.617 133.164 202.578 136.843C202.526 140.522 202.37 144.188 202.124 147.854C201.864 151.52 201.487 155.186 201.033 158.839C200.773 160.659 200.539 162.492 200.24 164.312C200.098 165.222 199.955 166.132 199.799 167.042L199.292 169.759C199.137 170.669 198.929 171.566 198.747 172.476C198.552 173.373 198.383 174.283 198.163 175.18C197.747 176.974 197.344 178.781 196.864 180.575C196.63 181.472 196.409 182.369 196.163 183.253L195.409 185.931L195.215 186.594L195.124 186.932L194.929 187.608C194.734 188.245 194.539 188.791 194.319 189.35C194.111 189.87 193.89 190.403 193.669 190.871C193.448 191.365 193.215 191.794 192.981 192.236L192.643 192.847C192.526 193.055 192.41 193.25 192.293 193.432L191.942 194.004L191.604 194.537C191.371 194.901 191.15 195.213 190.916 195.538C190.007 196.812 189.111 197.878 188.241 198.853C187.371 199.828 186.527 200.686 185.682 201.492C184.007 203.104 182.384 204.469 180.786 205.756C177.592 208.304 174.462 210.449 171.332 212.451C165.099 216.442 158.904 219.887 152.67 223.124C146.45 226.361 140.19 229.351 133.905 232.211C130.749 233.628 127.593 235.019 124.424 236.371C122.84 237.047 121.256 237.723 119.658 238.386L117.243 239.361L114.762 240.349L103.879 215.727L105.996 214.648L108.165 213.517L112.516 211.242C115.412 209.708 118.308 208.161 121.165 206.575C126.905 203.442 132.58 200.205 138.099 196.903C140.852 195.252 143.567 193.549 146.216 191.846C148.865 190.143 151.45 188.401 153.891 186.633C156.333 184.865 158.657 183.071 160.631 181.329C161.618 180.458 162.514 179.6 163.228 178.846C163.93 178.092 164.462 177.39 164.566 177.156C164.566 177.143 164.592 177.104 164.579 177.104C164.566 177.117 164.566 177.117 164.553 177.13L164.514 177.169C164.501 177.195 164.488 177.208 164.475 177.234C164.423 177.299 164.41 177.351 164.345 177.468C164.306 177.559 164.228 177.689 164.176 177.832C164.099 178.001 164.047 178.157 163.969 178.378L163.917 178.534C163.904 178.586 163.917 178.534 163.917 178.521L163.93 178.456L163.995 178.183L164.125 177.624L164.631 175.414C164.8 174.673 164.943 173.932 165.099 173.191C165.423 171.709 165.67 170.214 165.943 168.719C166.086 167.978 166.189 167.224 166.306 166.47C166.423 165.716 166.553 164.975 166.644 164.221C167.086 161.218 167.423 158.189 167.696 155.147C167.956 152.105 168.124 149.063 168.254 146.008C168.358 142.953 168.384 139.898 168.332 136.856C168.293 133.801 168.163 130.759 167.956 127.717C167.761 124.688 167.488 121.672 167.124 118.695C166.943 117.213 166.735 115.744 166.514 114.314C166.41 113.599 166.293 112.897 166.176 112.208L165.995 111.22L165.852 110.518L199.708 102.952Z" fill="#EA9B7A"/>
<path d="M163.514 111.337L157.333 158.267C166.566 163.441 175.319 167.146 183.371 168.615L163.514 111.337Z" fill="#A92F4B"/>
<path d="M176.644 183.89C176.514 183.89 176.371 183.864 176.254 183.786C171.449 181.173 164.839 178.976 164.774 178.95C164.345 178.807 164.112 178.339 164.254 177.91C164.397 177.481 164.865 177.247 165.293 177.39C165.566 177.481 172.111 179.652 177.046 182.343C177.449 182.564 177.592 183.058 177.371 183.461C177.215 183.734 176.942 183.89 176.644 183.89Z" fill="#D46A43"/>
<path d="M165.488 179.145C165.073 179.145 164.722 178.833 164.67 178.417C164.618 177.962 164.943 177.559 165.397 177.507C168.813 177.13 173.293 177.104 173.475 177.104C173.929 177.104 174.293 177.468 174.293 177.923C174.293 178.378 173.929 178.742 173.475 178.755C173.423 178.755 168.891 178.781 165.566 179.145C165.553 179.145 165.514 179.145 165.488 179.145Z" fill="#D46A43"/>
<path d="M76.5686 371.818L68.0364 385.754L51.79 378.565L59.1665 363.576L76.5686 371.818Z" fill="#EA9B7A"/>
<path d="M0.349854 386.482L61.7898 413.704C62.6079 413.08 63.3871 412.001 64.1144 410.649C66.8026 405.618 68.8156 396.583 70.322 390.98C70.4908 390.33 70.6597 389.719 70.8285 389.173C71.1012 388.25 71.3609 387.483 71.5947 386.95C73.4778 382.673 69.387 381.737 69.387 381.737C60.4651 385.091 57.4782 372.819 52.0368 373.989C52.0368 373.989 49.6992 374.47 42.8812 376.706C36.0632 378.942 26.479 378.162 18.1156 377.993C7.31071 377.772 3.0381 380.437 1.3758 382.829C0.038175 384.74 0.349854 386.482 0.349854 386.482Z" fill="#FAAF3A"/>
<path d="M0.349787 386.482L61.7897 413.704C62.6079 413.08 63.3871 412.001 64.1143 410.649L1.36275 382.842C0.0381078 384.74 0.349787 386.482 0.349787 386.482Z" fill="#C77E2E"/>
<path d="M55.5172 410.922L57.3483 411.728C56.4522 408.842 56.1535 404.89 58.4002 400.418C61.3871 394.477 66.8415 391.994 70.309 390.98C70.4778 390.33 70.6466 389.719 70.8154 389.173C67.1662 390.057 60.543 392.579 56.9717 399.703C54.8289 403.98 54.8159 407.867 55.5172 410.922Z" fill="#C77E2E"/>
<path d="M42.2967 380.801C42.7512 380.996 43.2967 380.879 43.6213 380.463C43.9979 379.982 43.907 379.28 43.4265 378.903L40.011 376.251C39.5305 375.874 38.8292 375.965 38.4526 376.446C38.076 376.927 38.1669 377.629 38.6474 378.006L42.0629 380.658C42.1408 380.723 42.2188 380.775 42.2967 380.801Z" fill="white"/>
<path d="M47.5306 379.293C47.9851 379.488 48.5305 379.371 48.8552 378.955C49.2318 378.474 49.1409 377.772 48.6604 377.395L45.2449 374.743C44.7644 374.366 44.0631 374.457 43.6865 374.938C43.3099 375.419 43.4008 376.121 43.8813 376.498L47.2968 379.15C47.3747 379.215 47.4527 379.267 47.5306 379.293Z" fill="white"/>
<path d="M37.4788 381.334C37.9333 381.529 38.4788 381.412 38.8035 380.996C39.1801 380.515 39.0892 379.813 38.6087 379.436L35.1932 376.784C34.7127 376.407 34.0114 376.498 33.6348 376.979C33.2581 377.46 33.3491 378.162 33.8296 378.539L37.2451 381.191C37.323 381.256 37.4009 381.308 37.4788 381.334Z" fill="white"/>
<path d="M32.6868 381.789C33.1414 381.984 33.6868 381.867 34.0115 381.451C34.3881 380.97 34.2972 380.268 33.8167 379.891L30.4012 377.239C29.9207 376.862 29.2194 376.953 28.8428 377.434C28.4662 377.915 28.5571 378.617 29.0376 378.994L32.4531 381.646C32.531 381.698 32.6089 381.75 32.6868 381.789Z" fill="white"/>
<path d="M27.6219 381.919C28.0764 382.114 28.6219 381.997 28.9465 381.581C29.3231 381.1 29.2322 380.398 28.7517 380.021L25.3362 377.369C24.8557 376.992 24.1544 377.083 23.7778 377.564C23.4012 378.045 23.4921 378.747 23.9726 379.124L27.3881 381.776C27.466 381.841 27.544 381.88 27.6219 381.919Z" fill="white"/>
<path d="M22.3362 381.594C22.7908 381.789 23.3362 381.672 23.6609 381.256C24.0375 380.775 23.9466 380.073 23.4661 379.696L20.0506 377.044C19.5701 376.667 18.8688 376.758 18.4922 377.239C18.1156 377.72 18.2065 378.422 18.687 378.799L22.1025 381.451C22.1804 381.516 22.2583 381.568 22.3362 381.594Z" fill="white"/>
<path d="M114.711 237.307C120.412 231.691 165.398 219.133 195.267 227.479C198.695 234.07 203.046 250.775 192.345 266.232C153.086 272.654 131.178 285.875 131.178 285.875C131.178 285.875 117.256 318.076 108.983 329.893C100.711 341.71 81.7375 379.241 81.7375 379.241L53.1538 367.021C53.1538 367.021 99.1915 252.595 114.711 237.307Z" fill="#39393B"/>
<path d="M84.7892 372.169C84.6854 372.169 84.5815 372.143 84.4776 372.104L56.5043 360.469C56.0887 360.3 55.8809 359.806 56.0627 359.39C56.2316 358.974 56.7121 358.766 57.1406 358.948L85.1139 370.583C85.5295 370.752 85.7373 371.246 85.5555 371.662C85.4126 371.974 85.1139 372.169 84.7892 372.169Z" fill="#585859"/>
<path d="M80.0881 369.816C79.9842 369.816 79.8803 369.803 79.7894 369.764C79.3608 369.595 79.166 369.114 79.3219 368.698C79.3738 368.555 85.2308 353.93 98.8798 333.195C112.438 312.603 126.619 277.776 126.762 277.425C126.931 277.009 127.411 276.801 127.84 276.97C128.256 277.139 128.463 277.62 128.295 278.049C128.152 278.4 113.918 313.37 100.269 334.105C86.7113 354.697 80.9192 369.166 80.8673 369.309C80.7244 369.621 80.4127 369.816 80.0881 369.816Z" fill="#585859"/>
<path d="M148.696 374.275L146.541 390.473H128.775L129.463 373.794L148.696 374.275Z" fill="#EA9B7A"/>
<path d="M84.9448 418.566H152.138C152.631 417.656 152.904 416.369 153.021 414.835C153.436 409.141 151.631 400.067 150.735 394.347C150.631 393.684 150.54 393.06 150.463 392.488C150.333 391.526 150.268 390.733 150.268 390.148C150.268 385.481 146.138 386.274 146.138 386.274C139.333 392.943 131.645 382.933 127.151 386.222C127.151 386.222 125.216 387.613 119.879 392.41C114.541 397.22 105.477 400.379 97.7496 403.616C87.7759 407.789 84.9578 411.949 84.3993 414.822C83.9578 417.097 84.9448 418.566 84.9448 418.566Z" fill="#FAAF3A"/>
<path d="M84.9451 418.566H152.138C152.632 417.656 152.904 416.369 153.021 414.835H84.3867C83.9581 417.097 84.9451 418.566 84.9451 418.566Z" fill="#C77E2E"/>
<path d="M145.281 418.566H147.281C145.294 416.291 143.424 412.794 143.671 407.802C143.995 401.159 147.982 396.674 150.749 394.347C150.645 393.684 150.554 393.06 150.476 392.488C147.489 394.776 142.463 399.768 142.073 407.724C141.827 412.482 143.398 416.044 145.281 418.566Z" fill="#C77E2E"/>
<path d="M121.009 396.375C121.502 396.375 121.957 396.037 122.087 395.53C122.23 394.932 121.879 394.334 121.282 394.191L117.087 393.151C116.49 393.008 115.892 393.359 115.749 393.957C115.606 394.555 115.97 395.153 116.555 395.296L120.749 396.336C120.827 396.362 120.918 396.375 121.009 396.375Z" fill="white"/>
<path d="M125.178 392.878C125.671 392.878 126.126 392.54 126.256 392.033C126.399 391.435 126.048 390.837 125.451 390.694L121.256 389.654C120.659 389.511 120.061 389.875 119.918 390.46C119.775 391.058 120.139 391.656 120.723 391.799L124.918 392.839C124.996 392.865 125.087 392.878 125.178 392.878Z" fill="white"/>
<path d="M116.814 398.819C117.308 398.819 117.762 398.481 117.892 397.974C118.035 397.376 117.684 396.778 117.087 396.635L112.892 395.595C112.295 395.452 111.698 395.803 111.555 396.401C111.412 396.999 111.763 397.597 112.36 397.74L116.555 398.78C116.633 398.806 116.723 398.819 116.814 398.819Z" fill="white"/>
<path d="M112.62 401.172C113.113 401.172 113.568 400.834 113.698 400.327C113.841 399.729 113.49 399.131 112.892 398.988L108.698 397.948C108.1 397.805 107.503 398.156 107.36 398.754C107.217 399.352 107.581 399.95 108.165 400.093L112.36 401.133C112.438 401.159 112.529 401.172 112.62 401.172Z" fill="white"/>
<path d="M108.035 403.343C108.529 403.343 108.983 403.005 109.113 402.498C109.256 401.9 108.892 401.302 108.308 401.159L104.113 400.119C103.516 399.976 102.919 400.327 102.776 400.925C102.633 401.523 102.996 402.121 103.581 402.264L107.776 403.304C107.853 403.33 107.944 403.343 108.035 403.343Z" fill="white"/>
<path d="M103.074 405.189C103.568 405.189 104.022 404.851 104.152 404.344C104.295 403.746 103.944 403.148 103.347 403.005L99.1524 401.965C98.555 401.822 97.9576 402.173 97.8148 402.771C97.6719 403.369 98.0355 403.967 98.6199 404.11L102.815 405.15C102.893 405.176 102.983 405.189 103.074 405.189Z" fill="white"/>
<path d="M283.316 240.232C283.29 240.505 283.251 240.765 283.225 241.012C283.083 241.116 282.953 241.22 282.823 241.324C272.395 249.332 260.226 254.662 247.798 257.691C247.356 257.795 246.928 257.899 246.486 258.003C244.356 258.497 242.214 258.926 240.071 259.277C237.175 259.758 234.279 260.135 231.409 260.382C228.863 260.603 226.331 260.746 223.837 260.785C213.084 260.98 202.89 259.576 194.267 256.833C193.942 256.729 193.604 256.625 193.28 256.508C190.994 255.741 188.838 254.883 186.812 253.934C186.501 253.791 186.189 253.648 185.89 253.492C184.631 252.881 183.423 252.218 182.28 251.529C182.462 247.382 182.514 242.416 182.475 237.112C182.475 236.67 182.475 236.228 182.462 235.786C182.384 228.402 182.163 220.433 181.878 213.153C181.852 212.802 181.839 212.464 181.839 212.126C181.683 208.317 181.501 204.703 181.345 201.492C181.319 201.154 181.306 200.803 181.293 200.478C181.15 197.761 181.007 195.33 180.878 193.341C180.839 192.834 180.813 192.34 180.774 191.833C180.748 191.443 180.722 191.053 180.696 190.676C180.592 189.272 180.475 187.907 180.358 186.555C180.176 184.397 179.968 182.304 179.748 180.276C179.488 177.962 179.215 175.7 178.93 173.529C178.605 171.189 178.28 168.927 177.93 166.756C177.553 164.429 177.163 162.193 176.748 160.048C175.306 152.482 173.683 145.982 172.06 140.366C171.943 139.976 171.839 139.612 171.722 139.222C171.06 136.986 170.41 134.919 169.774 132.969C169.631 132.54 169.488 132.124 169.358 131.695C165.748 120.97 162.761 114.496 162.709 110.154C162.605 101.119 169.203 98.2202 176.085 94.5802C176.41 94.4112 176.735 94.2422 177.059 94.0602C178.215 93.4362 179.384 92.7732 180.501 92.0582C180.981 91.7592 181.449 91.4472 181.904 91.1222C182.228 90.9012 182.527 90.6672 182.826 90.4462C185.553 88.3402 187.942 85.7012 189.501 81.9572L215.513 76.4712C215.513 76.4712 218.006 77.7582 222.175 78.8762C222.565 78.9802 222.967 79.0842 223.396 79.1882C223.889 79.3052 224.396 79.4222 224.928 79.5262C225.253 79.5912 225.604 79.6562 225.941 79.7212C226.201 79.7732 226.474 79.8252 226.746 79.8642C229.24 80.2542 232.123 80.5012 235.383 80.4362C235.707 80.4232 236.045 80.4232 236.37 80.4102C236.603 80.3972 236.837 80.3842 237.071 80.3842C239.279 80.2672 241.382 80.5532 243.408 81.2032C243.798 81.3202 244.175 81.4632 244.551 81.6192C253.005 84.9992 259.655 95.1132 263.953 110.648C265.148 114.964 266.33 119.176 267.473 123.284C267.603 123.739 267.719 124.181 267.849 124.623C268.096 125.52 268.343 126.417 268.59 127.314C268.68 127.639 268.771 127.964 268.862 128.289C269.745 131.474 270.602 134.62 271.434 137.727C271.434 137.727 271.434 137.727 271.434 137.74C271.525 138.065 271.615 138.403 271.693 138.728C271.693 138.728 271.693 138.728 271.693 138.741C271.745 138.923 271.784 139.092 271.836 139.261L272.304 141.081C275.187 152.196 277.589 162.908 279.135 173.711C279.459 175.96 279.745 178.209 279.979 180.471C280.044 181.017 280.109 181.628 280.174 182.317C280.187 182.447 280.2 182.564 280.213 182.694C280.239 182.928 280.265 183.162 280.29 183.409C280.303 183.526 280.316 183.656 280.329 183.773C280.745 187.868 281.277 193.536 281.81 199.789C281.836 200.114 281.875 200.452 281.901 200.79C283.096 215.298 284.174 232.614 283.316 240.232Z" fill="#DF615C"/>
<path d="M204.15 97.2582C214.539 95.0612 220.149 82.0612 220.383 81.4892C220.539 81.1122 220.37 80.6702 219.994 80.5142C219.617 80.3582 219.175 80.5272 219.02 80.9042C218.968 81.0342 213.266 94.2812 203.241 95.9062C193.384 97.5052 189.462 90.2512 189.293 89.9392C189.098 89.5752 188.657 89.4322 188.293 89.6272C187.929 89.8222 187.787 90.2642 187.981 90.6282C188.02 90.7192 192.54 99.1562 203.487 97.3752C203.708 97.3492 203.929 97.2972 204.15 97.2582Z" fill="#A92F4B"/>
<path d="M214.682 235.63C224.448 233.576 234.539 228.545 244.629 220.654C258.473 209.825 267.564 197.267 267.655 197.137C267.888 196.799 267.823 196.344 267.486 196.097C267.148 195.863 266.681 195.928 266.447 196.266C266.356 196.396 257.369 208.798 243.694 219.497C231.149 229.312 211.955 239.66 191.8 233.212C191.41 233.082 190.994 233.303 190.864 233.693C190.735 234.083 190.955 234.499 191.345 234.629C198.773 237.008 206.617 237.333 214.682 235.63Z" fill="#A92F4B"/>
<path d="M208.838 228.168C208.851 228.168 208.851 228.168 208.838 228.168C224.058 224.697 232.227 201.713 232.577 200.738C232.707 200.348 232.512 199.932 232.123 199.789C231.733 199.659 231.318 199.854 231.175 200.244C231.097 200.478 222.928 223.423 208.526 226.712C208.123 226.803 207.877 227.206 207.968 227.609C208.058 227.999 208.448 228.246 208.838 228.168Z" fill="#A92F4B"/>
<path d="M180.748 191.82C182.631 190.52 184.41 188.908 185.812 187.075C189.202 182.655 189.656 178.131 187.098 174.335C186.579 173.581 186.111 172.892 185.669 172.242C180.436 164.598 179.89 163.805 180.345 151.234C180.488 147.282 179.371 144.162 177.033 142.004C175.462 140.535 173.54 139.69 171.696 139.196C171.813 139.573 171.917 139.95 172.033 140.34C173.566 140.808 175.098 141.562 176.358 142.732C178.475 144.695 179.475 147.555 179.345 151.208C178.877 164.104 179.553 165.092 184.838 172.814C185.28 173.464 185.747 174.153 186.267 174.907C189.384 179.496 186.825 184.124 185.02 186.477C183.812 188.05 182.293 189.48 180.67 190.663C180.696 191.04 180.735 191.43 180.748 191.82Z" fill="#A92F4B"/>
<path d="M280.316 183.721C278.29 184.904 276.33 185.645 274.459 186.048C269.408 187.114 265.031 185.58 262.213 182.746C258.849 179.353 257.538 173.516 261.551 168.94C265.421 164.507 263.758 162.154 261.655 159.164C259.577 156.226 256.992 152.56 259.681 146.125C261.226 142.42 263.603 139.885 266.745 138.611C268.317 137.974 269.914 137.714 271.421 137.675C271.511 138 271.602 138.338 271.68 138.663C270.213 138.676 268.641 138.91 267.109 139.534C264.226 140.704 262.031 143.057 260.59 146.502C258.109 152.43 260.33 155.55 262.46 158.579C264.629 161.66 266.68 164.572 262.291 169.577C259.057 173.269 259.304 178.391 262.914 182.018C266.551 185.684 273.031 186.958 280.2 182.603C280.226 182.837 280.251 183.071 280.277 183.318C280.29 183.474 280.303 183.604 280.316 183.721Z" fill="#A92F4B"/>
<path d="M212.474 187.465C214.98 191.781 220.409 193.848 225.37 192.405C226.123 192.184 226.915 191.898 227.707 191.56C234.084 188.83 241.434 182.395 244.252 174.907C246.421 169.135 245.759 163.22 242.317 157.825C237.226 149.843 234.279 142.42 233.785 136.388C233.486 132.813 231.032 130.044 227.538 129.329C224.019 128.614 220.668 130.2 218.993 133.372C218.902 133.541 218.811 133.71 218.72 133.879C214.435 142.251 216.993 148.309 219.253 153.652C221.617 159.242 223.655 164.065 217.201 170.331C211.331 176.025 209.565 182.434 212.474 187.465ZM217.902 171.033C224.863 164.286 222.578 158.917 220.175 153.249C217.889 147.854 215.539 142.29 219.617 134.321C219.707 134.152 219.785 133.983 219.876 133.827C220.655 132.358 221.837 131.279 223.24 130.681C224.487 130.148 225.902 129.992 227.344 130.291C230.408 130.928 232.551 133.346 232.811 136.466C233.11 139.976 234.136 143.811 235.915 147.958C237.317 151.247 239.187 154.705 241.499 158.345C244.811 163.545 245.421 168.992 243.343 174.556C240.291 182.694 231.668 189.532 225.11 191.443C220.565 192.769 215.63 190.884 213.344 186.958C210.669 182.356 212.37 176.402 217.902 171.033Z" fill="#A92F4B"/>
<path d="M169.319 131.669C169.462 132.085 169.592 132.501 169.735 132.93C173.202 134.321 176.397 134.269 178.942 133.723C180.241 133.45 181.371 133.047 182.293 132.657C188.644 129.914 192.955 124.025 192.851 120.463C192.812 119.124 192.137 118.149 190.955 117.72C184.124 115.224 181.345 110.713 180.306 100.456C180.02 97.6742 178.916 95.5162 177.007 94.0212C176.683 94.1902 176.358 94.3593 176.033 94.5413C176.111 94.5933 176.189 94.6583 176.28 94.7233C178.033 96.0363 179.046 97.9992 179.306 100.56C180.384 111.285 183.345 116.017 190.604 118.656C191.41 118.955 191.812 119.553 191.838 120.489C191.929 123.726 187.695 129.225 181.877 131.747C179.202 132.93 174.54 134.087 169.319 131.669Z" fill="#A92F4B"/>
<path d="M204.578 133.32C205.799 134.646 207.773 135.14 209.734 134.737C210.383 134.594 211.032 134.36 211.643 134.022C214.785 132.28 215.954 128.64 214.772 124.298C213.539 119.774 215.889 117.603 218.162 115.51C220.162 113.677 222.214 111.779 220.59 108.529C219.344 106.033 217.032 104.863 213.941 105.149C210.292 105.5 207.097 107.736 205.383 111.142C202.474 116.901 199.682 128.016 204.578 133.32ZM206.266 111.584C207.643 108.841 210.175 106.878 213.019 106.28C213.357 106.215 213.695 106.163 214.032 106.124C216.733 105.864 218.643 106.826 219.707 108.958C221.006 111.545 219.526 112.897 217.487 114.769C215.227 116.849 212.422 119.436 213.811 124.545C214.863 128.419 213.876 131.63 211.162 133.138C209.123 134.269 206.604 134.061 205.305 132.644C200.76 127.717 203.474 117.109 206.266 111.584Z" fill="#A92F4B"/>
<path d="M189.968 168.511C190.527 171.137 191.579 173.269 193.397 174.335C196.124 175.934 198.799 176.558 200.773 176.142C201.63 175.96 202.345 175.583 202.89 175.011C204.5 173.282 203.968 170.175 201.436 166.483C198.501 162.206 201.072 159.489 203.812 156.603C206.137 154.146 208.552 151.611 207.202 148.14C206.228 145.644 203.994 144.487 200.734 144.773C195.267 145.267 190.761 149.661 190.02 155.238C189.436 159.58 189.137 164.598 189.968 168.511ZM190.994 155.381C191.306 153.028 192.345 150.909 193.851 149.258C195.371 147.607 197.358 146.424 199.579 145.956C199.981 145.865 200.384 145.813 200.812 145.774C203.656 145.527 205.448 146.411 206.267 148.504C207.396 151.39 205.306 153.6 203.098 155.927C200.345 158.826 197.228 162.115 200.617 167.055C202.864 170.318 203.436 172.983 202.163 174.335C200.747 175.856 197.358 175.505 193.903 173.477C190.735 171.618 189.696 165.183 190.994 155.381Z" fill="#A92F4B"/>
<path d="M181.864 213.14C185.851 211.697 187.189 213.699 189.124 216.598C190.864 219.185 193.02 222.409 197.864 223.553C199.513 223.943 201.098 223.93 202.591 223.618C206.5 222.799 209.695 219.874 211.227 216.598C213.292 212.191 212.383 207.797 208.838 205.119C207.292 203.962 206.487 202.857 206.331 201.752C206.123 200.192 207.292 198.684 208.539 197.085C210.266 194.862 212.227 192.353 210.721 189.129C209.539 186.594 207.318 185.086 204.461 184.865C199.708 184.514 194.383 187.738 190.89 193.055C187.903 197.605 184.124 199.594 181.254 200.452C181.267 200.777 181.293 201.128 181.306 201.466C184.384 200.582 188.5 198.489 191.708 193.601C194.357 189.571 198.085 186.815 201.721 186.048C202.617 185.853 203.513 185.788 204.383 185.853C206.864 186.035 208.786 187.348 209.812 189.545C211.045 192.21 209.435 194.277 207.734 196.461C206.422 198.151 205.058 199.893 205.318 201.869C205.5 203.247 206.448 204.56 208.201 205.899C211.954 208.733 211.747 213.062 210.292 216.169C208.344 220.329 203.513 223.865 198.059 222.578C193.591 221.525 191.63 218.613 189.916 216.039C187.981 213.14 186.293 210.618 181.786 212.1C181.838 212.451 181.851 212.789 181.864 213.14Z" fill="#A92F4B"/>
<path d="M232.356 201.089C232.694 202.818 233.733 204.001 235.265 204.417C236.084 204.638 236.993 204.638 237.954 204.443C240.096 203.988 242.447 202.532 244.369 200.348C246.343 198.112 248.317 198.398 251.044 198.788C253.694 199.165 256.992 199.646 261.2 197.735C265.875 195.603 266.654 191.183 265.408 187.972C264.265 185.073 261.187 182.551 257.109 183.903C254.187 184.865 252.291 186.36 250.603 187.66C248.031 189.662 245.824 191.391 240.746 191.079C238.226 190.923 236.2 191.599 234.759 193.081C231.954 195.954 232.33 200.829 232.343 201.024C232.356 201.063 232.356 201.076 232.356 201.089ZM233.33 200.933C233.304 200.556 233.071 196.24 235.473 193.783C236.707 192.522 238.46 191.95 240.681 192.08C246.122 192.405 248.59 190.494 251.2 188.453C252.901 187.127 254.655 185.762 257.421 184.839C260.888 183.695 263.511 185.853 264.472 188.336C265.563 191.118 264.875 194.966 260.784 196.825C256.836 198.619 253.823 198.19 251.174 197.813C249.642 197.592 248.239 197.397 246.889 197.683C245.759 197.917 244.681 198.502 243.616 199.698C241.109 202.532 237.772 204.092 235.512 203.481C234.356 203.143 233.603 202.272 233.33 200.933Z" fill="#A92F4B"/>
<path d="M275.836 225.009C272.433 230.651 273.862 236.93 277.238 239.751C278.862 241.103 280.784 241.636 282.823 241.324C282.953 241.22 283.082 241.116 283.225 241.012C283.264 240.765 283.29 240.505 283.329 240.232C281.329 240.713 279.459 240.31 277.875 238.984C274.836 236.436 273.55 230.703 276.693 225.529C279.875 220.277 277.368 218.652 274.719 216.936C272.291 215.35 269.758 213.725 270.148 209.006C270.343 206.679 271.278 204.807 272.953 203.442C274.407 202.259 276.264 201.57 278.083 201.18C279.433 200.894 280.771 200.777 281.914 200.738C281.888 200.4 281.862 200.075 281.836 199.737C279.018 199.841 275.083 200.426 272.329 202.675C270.446 204.209 269.381 206.315 269.174 208.928C268.745 214.232 271.771 216.195 274.2 217.768C276.784 219.458 278.511 220.589 275.836 225.009Z" fill="#A92F4B"/>
<path d="M193.28 256.495C193.604 256.612 193.929 256.716 194.267 256.82C194.306 255.286 194.669 251.997 196.942 249.787C198.838 247.954 201.669 247.226 205.357 247.629C210.253 248.175 212.474 250.203 214.422 251.997C217.708 255.013 219.993 256.443 228.565 250.84C231.824 248.708 234.85 247.46 237.486 246.901C241.746 246.004 245.019 246.888 246.733 248.656C248.837 250.827 248.733 254.272 246.486 257.99C246.928 257.886 247.356 257.782 247.798 257.678C249.837 253.856 249.733 250.307 247.46 247.954C244.408 244.808 237.032 244.106 228.032 249.995C219.682 255.468 217.954 253.882 215.097 251.256C213.136 249.449 210.682 247.2 205.461 246.628C201.461 246.186 198.358 247.005 196.241 249.072C193.851 251.425 193.358 254.714 193.28 256.495Z" fill="#A92F4B"/>
<path d="M249.032 240.505C250.278 243.17 254.382 245.367 258.213 244.561C258.382 244.522 258.551 244.483 258.707 244.431C264.551 242.78 267.914 238.035 268.174 231.08C268.369 225.698 267.875 220.42 262.901 218.132C262.875 218.119 262.849 218.106 262.811 218.106C262.577 218.054 257.07 216.715 253.642 219.042C252.2 220.017 251.343 221.499 251.097 223.423C250.642 226.829 251.681 228.922 252.421 230.443C253.356 232.315 253.772 233.173 250.915 235.123C248.798 236.592 248.11 238.555 249.032 240.505ZM251.473 235.968C254.876 233.641 254.382 232.198 253.317 230.027C252.59 228.545 251.668 226.686 252.071 223.579C252.291 221.941 253.006 220.693 254.2 219.874C257.122 217.885 262.018 218.951 262.525 219.068C266.083 220.719 267.434 224.203 267.174 231.041C267.005 235.63 265.343 241.519 258.434 243.482C254.993 244.444 251.032 242.455 249.928 240.089C249.214 238.568 249.746 237.151 251.473 235.968Z" fill="#A92F4B"/>
<path d="M185.89 253.479C186.189 253.635 186.501 253.778 186.812 253.921C188.89 251.49 189.747 248.838 189.345 246.069C188.696 241.571 184.942 237.801 182.462 235.773C182.475 236.215 182.475 236.657 182.475 237.099C184.787 239.14 187.825 242.442 188.371 246.212C188.734 248.734 187.929 251.139 185.981 253.388C185.942 253.414 185.916 253.453 185.89 253.479Z" fill="#A92F4B"/>
<path d="M166.761 37.1591C166.761 37.1591 152.021 34.0391 151.671 28.4101C151.359 23.2101 157.489 23.7561 157.489 23.7561C157.489 23.7561 150.333 12.0041 154.437 9.70311C158.541 7.38911 163.722 13.9801 163.722 13.9801C163.722 13.9801 159.969 0.0441064 164.982 1.04511C169.995 2.04611 170.644 9.70311 170.644 9.70311C170.644 9.70311 187.306 3.7621 196.773 6.6091C203.228 8.5461 204.747 14.7601 204.747 14.7601C204.747 14.7601 208.578 12.4721 211.305 13.8761C214.02 15.2801 211.539 20.0641 211.539 20.0641C211.539 20.0641 215.747 23.3011 214.461 28.4491C213.176 33.5971 209.5 43.7631 209.5 43.7631L166.761 37.1591Z" fill="#39393B"/>
<path d="M187.566 78.1091L188.994 84.8951C189.916 85.3631 190.839 85.7531 191.748 86.0651C204.994 90.6541 215.838 79.2271 215.838 79.2271L210.89 55.7231L190.345 75.4441L187.566 78.1091Z" fill="#EA9B7A"/>
<path d="M187.566 78.1092L188.994 84.8952C189.916 85.3632 190.839 85.7532 191.748 86.0652C200.929 79.9812 206.007 67.9302 206.007 67.9302L190.358 75.4442L187.566 78.1092Z" fill="#39393B"/>
<path d="M174.527 23.2102C174.527 23.2102 158.488 28.2022 168.008 44.1012C167.995 44.0882 175.839 27.6042 174.527 23.2102Z" fill="#39393B"/>
<path d="M172.774 49.8471C172.774 49.8471 167.969 46.1031 166.748 51.1211C165.527 56.1261 169.137 64.9791 174.683 62.2491L172.774 49.8471Z" fill="#D46A43"/>
<path d="M172.033 66.6692C172.033 66.6692 174.968 80.6962 189.527 77.5892C203.994 74.5082 211.461 61.0532 211.864 60.4162C211.877 60.4032 211.877 60.4032 211.877 60.4032L211.409 57.4262L209.007 41.9562L207.721 33.6882C207.721 33.6882 206.474 18.5822 191.942 18.8422C181.319 19.0372 172.111 22.7552 168.397 29.0992C167.034 31.4392 166.41 34.1432 166.748 37.1592L169.384 51.9402L170.034 55.5672L172.033 66.6692Z" fill="#EA9B7A"/>
<path d="M201.734 43.7761C201.734 43.7761 199.591 52.3821 194.851 51.9921C190.111 51.5891 184.852 52.1351 181.189 54.8781C181.189 54.8781 173.852 53.7861 170.384 57.4391C168.06 59.8961 173.527 78.1741 183.67 78.8241C193.812 79.4871 206.007 73.3901 207.215 63.6921C208.422 53.9941 206.604 46.3371 206.604 46.3371L201.734 43.7761Z" fill="#39393B"/>
<path d="M178.202 58.9732C178.202 58.9732 186.397 58.1281 190.41 55.8271C190.41 55.8271 192.202 63.8352 185.28 64.5242C179.722 65.0832 178.202 58.9732 178.202 58.9732Z" fill="white"/>
<path d="M188.773 49.7303C188.994 50.7573 191.267 51.1343 193.851 50.5883C196.435 50.0423 198.37 48.7683 198.15 47.7543C197.929 46.7273 195.656 46.3503 193.072 46.8963C190.487 47.4423 188.565 48.7033 188.773 49.7303Z" fill="#D46A43"/>
<path d="M170.047 55.5541C170.41 55.5151 170.8 55.4501 171.19 55.3721C173.774 54.8261 175.709 53.5521 175.488 52.5381C175.267 51.5241 172.995 51.1341 170.41 51.6801C170.06 51.7581 169.722 51.8361 169.397 51.9401L170.047 55.5541Z" fill="#D46A43"/>
<path d="M187.747 44.0753C188.046 45.4793 188.916 46.4803 189.695 46.3113C190.474 46.1423 190.877 44.8812 190.578 43.4772C190.28 42.0732 189.41 41.0723 188.63 41.2413C187.851 41.4103 187.449 42.6713 187.747 44.0753Z" fill="#39393B"/>
<path d="M173.89 47.0003C174.189 48.4043 175.059 49.4053 175.838 49.2363C176.618 49.0673 177.02 47.8063 176.721 46.4023C176.423 44.9983 175.553 43.9973 174.773 44.1663C173.994 44.3353 173.592 45.5963 173.89 47.0003Z" fill="#39393B"/>
<path d="M182.501 52.5513C182.825 52.4863 183.02 52.1743 182.955 51.8493C182.89 51.5373 182.579 51.3293 182.254 51.3943C180.137 51.8363 178.916 50.9393 178.475 50.5103C179.773 45.2843 181.046 40.0193 181.059 39.9673C181.137 39.6553 180.942 39.3303 180.631 39.2523C180.319 39.1743 179.994 39.3693 179.916 39.6813C179.903 39.7333 178.579 45.1933 177.254 50.5233C177.215 50.6923 177.254 50.8743 177.358 51.0173C177.436 51.1343 179.085 53.2793 182.501 52.5513Z" fill="#39393B"/>
<path d="M193.396 36.1712C192.76 34.7542 190.942 32.2452 186.176 33.0252C185.591 33.1162 185.15 33.6102 185.124 34.1952C185.085 34.9362 185.669 35.5603 186.41 35.5473C187.708 35.5083 189.669 35.8073 191.15 37.6403C191.604 38.2123 192.474 38.2382 192.994 37.7312L193.111 37.6142C193.513 37.2372 193.617 36.6652 193.396 36.1712Z" fill="#39393B"/>
<path d="M169.176 41.2804C169.189 39.7334 169.826 36.6914 174.514 35.4824C175.085 35.3394 175.683 35.6124 175.955 36.1324C176.293 36.7954 176.007 37.6014 175.319 37.8874C174.111 38.3814 172.436 39.4473 171.826 41.7093C171.631 42.4113 170.865 42.7884 170.176 42.5414L170.02 42.4894C169.501 42.3074 169.176 41.8134 169.176 41.2804Z" fill="#39393B"/>
<path d="M206.098 55.6841C206.202 55.8271 208.942 59.7141 211.851 60.4161C211.864 60.4031 211.864 60.4031 211.864 60.4031L211.396 57.4261C211.409 57.4131 209.033 57.5041 206.098 55.6841Z" fill="#39393B"/>
<path d="M206.617 45.4143C206.617 45.4143 210.63 36.7043 215.981 41.7613C220.383 45.9213 216.669 59.9743 209.059 57.0363L206.617 45.4143Z" fill="#EA9B7A"/>
<path d="M209.357 54.5922C209.643 54.5272 209.851 54.2542 209.825 53.9552C209.253 48.1312 213.604 45.1282 213.786 45.0112C214.058 44.8292 214.123 44.4652 213.942 44.1922C213.76 43.9192 213.396 43.8542 213.123 44.0232C212.916 44.1662 207.994 47.5202 208.643 54.0592C208.669 54.3842 208.968 54.6182 209.292 54.5922C209.305 54.6052 209.331 54.6052 209.357 54.5922Z" fill="#39393B"/>
<path d="M213.994 49.9641C214.162 49.9251 214.305 49.8211 214.396 49.6521C214.539 49.3661 214.435 49.0021 214.136 48.8591C213.864 48.7161 211.461 47.5201 209.825 48.3391C209.539 48.4821 209.409 48.8331 209.552 49.1321C209.695 49.4181 210.046 49.5481 210.344 49.4051C211.279 48.9371 213.058 49.6391 213.604 49.9251C213.721 49.9771 213.864 49.9901 213.994 49.9641Z" fill="#39393B"/>
<path d="M168.411 29.0992C168.618 29.5672 168.917 29.9442 169.307 30.2172C172.761 32.5962 179.229 30.1262 185.021 26.9022C190.813 23.6782 196.111 27.2662 196.111 27.2662C195.644 33.5712 201.579 32.8172 201.28 37.5882C200.981 42.3592 202.708 48.1962 202.708 48.1962L206.241 46.9482C206.578 44.6732 207.994 42.9312 208.994 41.9562L207.708 33.6882C207.708 33.6882 206.462 18.5822 191.929 18.8422C181.332 19.0372 172.112 22.7422 168.411 29.0992Z" fill="#39393B"/>
<path d="M276.901 227.934C276.901 227.934 290.771 282.703 218.864 282.703C180.462 282.703 162.203 278.998 162.203 278.998C162.203 278.998 161.281 312.941 159.489 327.267C157.696 341.593 151.372 377.265 151.372 377.265L121.126 379.605C121.126 379.605 116.295 255.325 134.827 243.885C153.359 232.445 180.02 232.107 225.786 227.7C225.799 227.7 266.888 220.745 276.901 227.934Z" fill="#39393B"/>
<path d="M147.242 367.333C147.177 367.333 147.112 367.32 147.047 367.307C146.605 367.203 146.333 366.761 146.437 366.319C150.618 348.834 152.281 323.796 153.605 303.672C154.917 283.834 155.709 273.395 157.761 271.575C160.034 269.573 166.761 270.288 177.916 271.471C191.747 272.94 212.63 275.163 235.162 272.576C246.356 271.289 254.927 266.908 260.654 259.537C270.927 246.316 268.576 227.765 268.55 227.583C268.485 227.128 268.81 226.712 269.252 226.66C269.706 226.595 270.122 226.92 270.174 227.362C270.277 228.142 272.654 246.771 261.953 260.538C255.94 268.273 246.992 272.875 235.343 274.214C212.63 276.827 191.63 274.591 177.734 273.109C168.137 272.082 160.566 271.276 158.839 272.81C158.449 273.161 157.67 274.864 156.878 282.391C156.281 287.955 155.8 295.287 155.242 303.789C153.904 323.978 152.242 349.094 148.021 366.709C147.943 367.086 147.605 367.333 147.242 367.333Z" fill="#585859"/>
<path d="M121.464 369.803C121.035 369.803 120.671 369.465 120.645 369.023C120.619 368.568 120.97 368.178 121.412 368.152L152.346 366.28C152.8 366.254 153.19 366.605 153.216 367.047C153.242 367.502 152.891 367.892 152.45 367.918L121.516 369.79C121.49 369.803 121.477 369.803 121.464 369.803Z" fill="#585859"/>
<path d="M204.669 243.612H114.061C113.853 243.612 113.684 243.443 113.684 243.235V232.068C113.684 231.86 113.853 231.691 114.061 231.691H204.669C204.876 231.691 205.045 231.86 205.045 232.068V243.235C205.045 243.443 204.876 243.612 204.669 243.612Z" fill="#CED3E6"/>
<path d="M104.152 243.612C100.711 243.612 97.7106 241.298 96.8146 237.97L79.7241 173.919C78.6852 170.006 81.6332 166.158 85.672 166.158H126.58C129.333 166.158 131.762 167.991 132.515 170.656L152.982 243.599H104.152V243.612Z" fill="white"/>
<path d="M132.528 170.669L152.826 243.014H157.501L137.203 170.669C136.45 168.004 134.034 166.171 131.268 166.171H126.593C129.346 166.158 131.774 168.004 132.528 170.669Z" fill="#CED3E6"/>
<path d="M120.97 205.925C121.905 209.942 119.398 213.205 115.372 213.205C111.359 213.205 107.347 209.942 106.411 205.925C105.476 201.908 107.983 198.645 112.009 198.645C116.022 198.645 120.034 201.908 120.97 205.925Z" fill="#CED3E6"/>
<path d="M176.761 217.508C176.761 217.508 158.216 218.782 152.294 224.463L155.904 237.307C155.904 237.307 166.995 232.77 170.06 233.212C173.138 233.654 174.969 238.698 185.241 235.63L176.761 217.508Z" fill="#EA9B7A"/>
<path d="M176.852 216.663L178.943 215.805L181.111 214.895C182.566 214.284 184.007 213.647 185.462 212.997C188.358 211.71 191.228 210.384 194.085 209.006C199.786 206.263 205.384 203.351 210.773 200.27C216.162 197.176 221.383 193.9 226.136 190.39C227.318 189.506 228.487 188.622 229.604 187.725C230.72 186.815 231.798 185.905 232.837 184.982C234.876 183.136 236.746 181.238 238.214 179.392C238.941 178.482 239.59 177.559 240.071 176.753C240.499 176.012 240.915 175.193 241.279 174.27C242.006 172.437 242.577 170.266 242.967 167.887C243.733 163.103 243.759 157.578 243.266 151.923C242.772 146.255 241.772 140.405 240.46 134.594C239.798 131.682 239.045 128.77 238.227 125.897C237.811 124.454 237.383 123.024 236.941 121.62C236.72 120.918 236.487 120.216 236.266 119.527L235.928 118.526L235.759 118.045L235.681 117.824L235.642 117.72L235.629 117.681C231.72 109.517 235.162 99.7152 243.318 95.8022C251.473 91.8892 261.265 95.3343 265.174 103.498C265.551 104.291 265.862 105.097 266.109 105.903L266.603 107.606L266.733 108.061L266.836 108.425L267.031 109.127L267.382 110.479C267.603 111.376 267.823 112.247 268.031 113.131C268.447 114.886 268.836 116.628 269.187 118.37C269.914 121.867 270.538 125.364 271.07 128.9C272.122 135.972 272.836 143.161 272.927 150.597C272.979 154.315 272.849 158.098 272.512 161.946C272.161 165.807 271.564 169.746 270.59 173.776C269.603 177.806 268.213 181.927 266.161 186.035C265.122 188.089 263.914 190.117 262.499 192.08C261.122 193.978 259.72 195.616 258.278 197.163C255.395 200.231 252.421 202.779 249.421 205.106C246.421 207.407 243.382 209.474 240.331 211.398C234.227 215.22 228.058 218.47 221.838 221.447C215.617 224.411 209.344 227.089 203.033 229.572C199.877 230.807 196.708 232.003 193.514 233.147C191.916 233.719 190.319 234.278 188.709 234.824L186.28 235.643L183.748 236.462C178.254 238.23 172.358 235.214 170.579 229.715C168.891 224.476 171.54 218.886 176.553 216.819L176.852 216.663Z" fill="#EA9B7A"/>
<path d="M252.733 181.42C252.668 181.42 252.603 181.407 252.551 181.394C246.227 179.496 239.162 179.782 239.097 179.795C238.733 179.808 238.435 179.535 238.422 179.171C238.409 178.807 238.682 178.508 239.045 178.495C239.344 178.482 246.396 178.183 252.941 180.146C253.279 180.25 253.473 180.614 253.382 180.952C253.266 181.238 253.006 181.42 252.733 181.42Z" fill="#D46A43"/>
<path d="M240.681 179.769C240.499 179.769 240.318 179.691 240.188 179.548C239.954 179.275 239.98 178.872 240.253 178.625C242.616 176.584 245.577 175.687 245.707 175.648C246.045 175.544 246.408 175.739 246.512 176.09C246.616 176.428 246.421 176.792 246.071 176.896C246.045 176.909 243.24 177.754 241.097 179.6C240.993 179.717 240.837 179.769 240.681 179.769Z" fill="#D46A43"/>
<path d="M275.849 140.015L262.408 143.707L261.421 143.98L252.135 146.528L251.006 146.84L239.058 150.116L238.136 145.878L237.928 144.864L235.772 134.906L235.552 133.905L231.487 115.12C230.383 110.778 229.656 105.344 230.266 100.911C231.162 94.3462 236.915 85.8312 247.525 85.2592C249.421 85.1552 251.2 85.4412 252.863 86.0522C253.2 86.1562 253.538 86.2992 253.863 86.4422C257.07 87.8982 259.85 90.5762 262.239 94.0212C262.434 94.2942 262.616 94.5672 262.785 94.8532C267.33 101.769 270.434 111.441 272.512 120.489C272.602 120.84 272.68 121.191 272.758 121.542C273.719 125.845 274.447 129.992 274.992 133.58C275.083 134.139 275.161 134.685 275.226 135.218C275.486 137.012 275.693 138.624 275.849 140.015Z" fill="#DF615C"/>
<path d="M274.992 133.58C273.395 132.124 271.239 131.11 267.914 131.708C263.966 132.41 260.862 131.136 259.616 128.289C258.668 126.157 259.109 123.661 260.629 122.491C263.668 120.151 268.33 120.346 272.758 121.542C272.68 121.191 272.602 120.84 272.512 120.489C267.966 119.332 263.213 119.254 260.018 121.698C258.59 122.803 257.928 124.727 258.161 126.716C258.239 127.379 258.421 128.042 258.694 128.692C260.148 131.981 263.668 133.476 268.096 132.683C271.667 132.033 273.641 133.424 275.226 135.218C275.161 134.698 275.083 134.152 274.992 133.58Z" fill="#A92F4B"/>
<path d="M260.953 104.174C258.2 100.183 260.265 97.5442 262.785 94.8662C262.616 94.5802 262.434 94.3072 262.239 94.0342C259.577 96.8292 256.889 100.04 260.135 104.746C262.382 108.009 262.94 110.661 261.681 112.026C260.265 113.547 256.863 113.196 253.421 111.168C250.252 109.296 249.227 102.874 250.512 93.0722C250.824 90.7192 251.863 88.6002 253.369 86.9492C253.525 86.7802 253.694 86.6112 253.863 86.4552C253.538 86.3122 253.2 86.1692 252.863 86.0652C251.084 87.8982 249.889 90.2772 249.525 92.9292C248.967 97.2582 248.668 102.289 249.486 106.189C250.045 108.815 251.097 110.947 252.915 112.026C255.642 113.625 258.33 114.249 260.291 113.833C261.148 113.651 261.876 113.274 262.408 112.702C264.018 110.973 263.486 107.866 260.953 104.174Z" fill="#A92F4B"/>
<path d="M235.798 134.035C233.591 120.892 230.798 108.594 230.773 108.464C230.708 108.204 230.448 108.035 230.188 108.1C229.928 108.165 229.76 108.425 229.824 108.685C229.85 108.815 232.63 121.048 234.824 134.126C234.967 134.633 235.798 134.659 235.798 134.035Z" fill="#A92F4B"/>
<path d="M232.24 118.175C232.149 118.175 232.058 118.149 231.98 118.097L226.915 114.847C226.695 114.704 226.617 114.405 226.773 114.171C226.915 113.937 227.214 113.872 227.448 114.028L232.513 117.278C232.733 117.421 232.811 117.72 232.656 117.954C232.565 118.097 232.396 118.175 232.24 118.175Z" fill="#A92F4B"/>
<path d="M199.41 119.579C197.695 119.579 196.124 118.955 194.721 117.72C186.709 110.661 186.748 84.999 186.748 83.907C186.748 83.4 187.163 82.984 187.683 82.984C188.202 82.984 188.618 83.4 188.605 83.92C188.605 84.18 188.566 109.816 195.942 116.316C197.202 117.421 198.578 117.863 200.124 117.655C209.981 116.355 214.461 87.6381 215.357 76.6791C215.396 76.1721 215.851 75.782 216.357 75.821C216.864 75.86 217.253 76.3151 217.214 76.8221C217.201 76.9261 216.357 87.04 213.955 97.245C210.643 111.259 206.072 118.747 200.371 119.501C200.059 119.566 199.734 119.579 199.41 119.579Z" fill="white"/>
<path d="M273.862 359.273H176.748C174.475 359.273 172.631 357.427 172.631 355.152C172.631 352.877 174.475 351.031 176.748 351.031H273.862C276.135 351.031 277.979 352.877 277.979 355.152C277.979 357.427 276.135 359.273 273.862 359.273Z" fill="#084FC7"/>
<path d="M167.813 422.154C167.631 422.154 167.449 422.141 167.267 422.115C165.021 421.816 163.436 419.736 163.735 417.487L181.423 285.277C181.695 283.236 183.436 281.702 185.501 281.702H264.732C266.797 281.702 268.537 283.236 268.81 285.277L286.225 417.5C286.524 419.749 284.939 421.829 282.68 422.115C280.433 422.414 278.355 420.828 278.07 418.566L261.122 289.931H189.098L171.891 418.579C171.605 420.659 169.839 422.154 167.813 422.154Z" fill="#0875F7"/>
<path d="M208.448 285.823H259.901C276.2 285.823 293.667 276.892 296.16 260.772C299.511 239.205 300.329 218.327 299.407 199.165C298.355 177.494 289.94 157.37 272.914 143.941C272.914 143.941 280.265 227.531 273.628 250.619C264.784 281.468 208.448 285.823 208.448 285.823Z" fill="#0875F7"/>
<path d="M50.9717 113.69V138.416C50.9717 141.679 53.621 144.331 56.8806 144.331H101.737L115.282 149.193C116.671 149.687 118.009 148.322 117.463 146.944L112.347 133.697V113.677C112.347 110.414 109.697 107.762 106.425 107.762H56.8806C53.621 107.762 50.9717 110.414 50.9717 113.69Z" fill="#0875F7"/>
<path d="M89.9316 126.755C89.9316 129.121 91.8407 131.032 94.2043 131.032C96.5678 131.032 98.4769 129.108 98.4769 126.755C98.4769 124.389 96.5678 122.478 94.2043 122.478C91.8537 122.465 89.9316 124.389 89.9316 126.755Z" fill="#084FC7"/>
<path d="M76.3994 126.755C76.3994 129.121 78.3085 131.032 80.672 131.032C83.0356 131.032 84.9446 129.108 84.9446 126.755C84.9446 124.389 83.0356 122.478 80.672 122.478C78.3085 122.465 76.3994 124.389 76.3994 126.755Z" fill="#084FC7"/>
<path d="M62.8545 126.755C62.8545 129.121 64.7765 131.032 67.1271 131.032C69.4907 131.032 71.3997 129.108 71.3997 126.755C71.3997 124.389 69.4777 122.478 67.1271 122.478C64.7635 122.465 62.8545 124.389 62.8545 126.755Z" fill="#084FC7"/>
<path d="M94.1133 58.2841H84.646C83.7889 58.2841 83.1006 57.5951 83.1006 56.7371V6.21912C83.1006 5.36112 83.7889 4.67212 84.646 4.67212H94.1133C94.9704 4.67212 95.6587 5.36112 95.6587 6.21912V56.7371C95.6587 57.5951 94.9704 58.2841 94.1133 58.2841Z" fill="#0875F7"/>
<path d="M92.2433 33.3111H86.5292C85.6981 33.3111 85.0098 32.6351 85.0098 31.7901V31.1531C85.0098 30.3211 85.6851 29.6321 86.5292 29.6321H92.2433C93.0745 29.6321 93.7628 30.3081 93.7628 31.1531V31.7901C93.7498 32.6351 93.0745 33.3111 92.2433 33.3111Z" fill="#084FC7"/>
<path d="M95.6587 9.00122H83.1006V11.0682H95.6587V9.00122Z" fill="#084FC7"/>
<path d="M95.6587 13.3301H83.1006V15.3971H95.6587V13.3301Z" fill="#084FC7"/>
<path d="M95.6587 45.2842H83.1006V47.3512H95.6587V45.2842Z" fill="#084FC7"/>
<path d="M95.6587 49.613H83.1006V51.6801H95.6587V49.613Z" fill="#084FC7"/>
<path d="M70.1661 58.2841H58.3872C58.1794 58.2841 57.9976 58.1151 57.9976 57.8941V5.06212C57.9976 4.85412 58.1664 4.67212 58.3872 4.67212H70.1661C70.3739 4.67212 70.5557 4.84112 70.5557 5.06212V57.8941C70.5557 58.1151 70.3739 58.2841 70.1661 58.2841Z" fill="#21B573"/>
<path d="M67.1271 33.3111H61.413C60.5819 33.3111 59.8936 32.6351 59.8936 31.7901V31.1531C59.8936 30.3211 60.5689 29.6321 61.413 29.6321H67.1271C67.9583 29.6321 68.6466 30.3081 68.6466 31.1531V31.7901C68.6466 32.6351 67.9583 33.3111 67.1271 33.3111Z" fill="#217C58"/>
<path d="M70.5557 9.00122H57.9976V11.0682H70.5557V9.00122Z" fill="#217C58"/>
<path d="M70.5557 13.3301H57.9976V15.3971H70.5557V13.3301Z" fill="#217C58"/>
<path d="M70.5557 45.2842H57.9976V47.3512H70.5557V45.2842Z" fill="#217C58"/>
<path d="M70.5557 49.613H57.9976V51.6801H70.5557V49.613Z" fill="#217C58"/>
<path d="M81.5552 58.2841H72.0879C71.2308 58.2841 70.5425 57.5951 70.5425 56.7371V6.21912C70.5425 5.36112 71.2308 4.67212 72.0879 4.67212H81.5552C82.4123 4.67212 83.1006 5.36112 83.1006 6.21912V56.7371C83.1006 57.5951 82.4123 58.2841 81.5552 58.2841Z" fill="#DF615C"/>
<path d="M79.6852 33.3111H73.9711C73.14 33.3111 72.4517 32.6351 72.4517 31.7901V31.1531C72.4517 30.3211 73.127 29.6321 73.9711 29.6321H79.6852C80.5164 29.6321 81.2047 30.3081 81.2047 31.1531V31.7901C81.2047 32.6351 80.5164 33.3111 79.6852 33.3111Z" fill="#A92F4B"/>
<path d="M83.1138 9.00122H70.5557V11.0682H83.1138V9.00122Z" fill="#A92F4B"/>
<path d="M83.1138 13.3301H70.5557V15.3971H83.1138V13.3301Z" fill="#A92F4B"/>
<path d="M83.1138 45.2842H70.5557V47.3512H83.1138V45.2842Z" fill="#A92F4B"/>
<path d="M83.1138 49.613H70.5557V51.6801H83.1138V49.613Z" fill="#A92F4B"/>
<path d="M116.061 56.3991L104.425 58.2711C104.217 58.3101 104.009 58.1671 103.983 57.9461L95.5811 5.79013C95.5421 5.58213 95.685 5.37413 95.9058 5.34813L107.542 3.47613C107.75 3.43713 107.957 3.58013 107.983 3.80113L116.386 55.9571C116.412 56.1651 116.269 56.3601 116.061 56.3991Z" fill="#FAAF3A"/>
<path d="M110.256 32.0371L102.295 33.3241C102.113 33.3501 101.944 33.2331 101.905 33.0511L101.425 30.0871C101.399 29.9051 101.516 29.7361 101.698 29.6971L109.659 28.4101C109.84 28.3841 110.009 28.5011 110.048 28.6831L110.529 31.6471C110.555 31.8291 110.438 32.0111 110.256 32.0371Z" fill="#C77E2E"/>
<path d="M108.622 7.67789L96.2231 9.6792L96.5519 11.72L108.951 9.71866L108.622 7.67789Z" fill="#C77E2E"/>
<path d="M109.311 11.955L96.9121 13.9563L97.2408 15.997L109.639 13.9957L109.311 11.955Z" fill="#C77E2E"/>
<path d="M114.388 43.4965L101.989 45.4978L102.318 47.5385L114.717 45.5372L114.388 43.4965Z" fill="#C77E2E"/>
<path d="M115.081 47.7702L102.682 49.7715L103.011 51.8122L115.409 49.8109L115.081 47.7702Z" fill="#C77E2E"/>
<g opacity="0.8">
<g opacity="0.8">
<g opacity="0.8">
<path opacity="0.8" d="M148.346 72.6492H34.6214L32.1279 66.0322H151.19L148.346 72.6492Z" fill="#CED3E6"/>
</g>
</g>
</g>
<path d="M151.19 58.1672H32.1279V66.0322H151.19V58.1672Z" fill="#39393B"/>
<path d="M44.2573 66.0322L47.4391 72.7142H54.9453L57.0882 66.0322H44.2573Z" fill="#39393B"/>
<path d="M139.06 66.0322L135.878 72.7142H128.372L126.242 66.0322H139.06Z" fill="#39393B"/>
</svg>
